<?xml version="1.0" encoding="UTF-8"?>
<svg width="85.618mm" height="101.59mm" version="1.1" viewBox="0 0 85.618 101.59" xmlns="http://www.w3.org/2000/svg" xmlns:xlink="http://www.w3.org/1999/xlink">
 <defs>
  <marker id="a" overflow="visible" orient="auto">
   <path transform="scale(-.6)" d="m8.7186 4.0337-10.926-4.0177 10.926-4.0177c-1.7455 2.3721-1.7354 5.6175-6e-7 8.0354z" fill="#0072b2" fill-rule="evenodd" stroke="#0072b2" stroke-linejoin="round" stroke-width=".625"/>
  </marker>
  <marker id="c" overflow="visible" orient="auto">
   <path transform="scale(-.6)" d="m8.7186 4.0337-10.926-4.0177 10.926-4.0177c-1.7455 2.3721-1.7354 5.6175-6e-7 8.0354z" fill="#f0e442" fill-rule="evenodd" stroke="#f0e442" stroke-linejoin="round" stroke-width=".625"/>
  </marker>
  <linearGradient id="b" x1="68.997" x2="96.118" y1="74.215" y2="56.639" gradientUnits="userSpaceOnUse">
   <stop stop-color="#56b4e9" offset="0"/>
   <stop stop-color="#56b4e9" stop-opacity="0" offset="1"/>
  </linearGradient>
 </defs>
 <g transform="translate(-29.656 -2.4174)">
  <g shape-rendering="auto">
   <path d="m41.694 11.289c-0.08595 16.142 9.7079 29.305 16.571 43.03 6.8646 13.729 10.125 19.697 20.045 31.271 3.9666 4.6277 11.893 14.165 18.442 14.165" color="#000000" color-rendering="auto" fill="none" image-rendering="auto" solid-color="#000000" stroke="#000" stroke-width=".5" style="isolation:auto;mix-blend-mode:normal"/>
   <path d="m99.896 36.681s-6.9926-6.4256-11.528-22.301" color="#000000" color-rendering="auto" fill="none" image-rendering="auto" marker-end="url(#c)" solid-color="#000000" stroke="#f0e442" stroke-width=".5" style="isolation:auto;mix-blend-mode:normal"/>
   <path d="m67.085 21.311c-0.54431 1.0886 0.09798 2.4737-1.2027 3.3409-2.9454 1.9636-4.4935 4.1534-4.1427 7.8845 3.6987 4.5587 9.3607 2.3991 13.23-1.47 0.72474-0.72474 0.43569-3.5441 0.93544-4.5436 1.2152-2.4303 3.3819-2.3234 1.9377-5.2786-1.6718-0.52144-9.8661-1.7162-10.758 0.06682z" color="#000000" color-rendering="auto" fill="#009e73" fill-rule="evenodd" image-rendering="auto" solid-color="#000000" style="isolation:auto;mix-blend-mode:normal"/>
  </g>
  <g stroke-width="1px">
   <g transform="matrix(.26458 0 0 .26458 -5.4617 -16.253)" color="#000000" aria-label="B">
    <path d="m270.36 183.85v-10.499h3.9388q1.2031 0 1.9264 0.32226 0.73047 0.31511 1.1387 0.98112 0.41537 0.65886 0.41537 1.3822 0 0.67318-0.36524 1.2676-0.36523 0.5944-1.1029 0.95964 0.95247 0.2793 1.4609 0.95247 0.51563 0.67318 0.51563 1.5898 0 0.73763-0.3151 1.375-0.30795 0.6302-0.76628 0.97395t-1.153 0.52279q-0.6875 0.17188-1.6901 0.17188zm1.3893-6.0872h2.2702q0.92383 0 1.3249-0.12175 0.52995-0.15755 0.79492-0.52278 0.27214-0.36524 0.27214-0.91667 0-0.52279-0.25065-0.91667-0.25065-0.40104-0.71615-0.54427-0.46549-0.15039-1.597-0.15039h-2.0983zm0 4.8483h2.6139q0.67318 0 0.94531-0.0501 0.47982-0.0859 0.80209-0.28645 0.32226-0.20053 0.52994-0.58008 0.20769-0.38672 0.20769-0.88802 0-0.58724-0.30078-1.0169-0.30079-0.43685-0.8379-0.60872-0.52994-0.17904-1.5326-0.17904h-2.4277z" style=""/>
   </g>
   <g transform="matrix(.26458 0 0 .26458 27.592 39.876)" color="#000000" aria-label="D">
    <path d="m270.42 183.85v-10.499h3.6165q1.2246 0 1.8691 0.15039 0.90235 0.20768 1.5397 0.75195 0.83073 0.70182 1.2389 1.7975 0.41536 1.0885 0.41536 2.4922 0 1.196-0.27929 2.1198-0.2793 0.92383-0.71615 1.5326-0.43685 0.60156-0.95963 0.95247-0.51563 0.34375-1.2533 0.52279-0.73047 0.17904-1.6829 0.17904zm1.3893-1.2389h2.2415q1.0384 0 1.6256-0.19336 0.5944-0.19335 0.94531-0.54427 0.49414-0.49414 0.76628-1.3249 0.27929-0.83789 0.27929-2.0267 0-1.6471-0.54427-2.528-0.53711-0.88802-1.3106-1.1888-0.55859-0.21484-1.7975-0.21484h-2.2057z" style=""/>
   </g>
   <g transform="matrix(.26458 0 0 .26458 -3.4018 2.8348)" color="#000000" aria-label="D">
    <path d="m270.42 183.85v-10.499h3.6165q1.2246 0 1.8691 0.15039 0.90235 0.20768 1.5397 0.75195 0.83073 0.70182 1.2389 1.7975 0.41536 1.0885 0.41536 2.4922 0 1.196-0.27929 2.1198-0.2793 0.92383-0.71615 1.5326-0.43685 0.60156-0.95963 0.95247-0.51563 0.34375-1.2533 0.52279-0.73047 0.17904-1.6829 0.17904zm1.3893-1.2389h2.2415q1.0384 0 1.6256-0.19336 0.5944-0.19335 0.94531-0.54427 0.49414-0.49414 0.76628-1.3249 0.27929-0.83789 0.27929-2.0267 0-1.6471-0.54427-2.528-0.53711-0.88802-1.3106-1.1888-0.55859-0.21484-1.7975-0.21484h-2.2057z" style=""/>
   </g>
   <g transform="matrix(.26458 0 0 .26458 13.607 -10.394)" color="#000000" aria-label="D">
    <path d="m270.42 183.85v-10.499h3.6165q1.2246 0 1.8691 0.15039 0.90235 0.20768 1.5397 0.75195 0.83073 0.70182 1.2389 1.7975 0.41536 1.0885 0.41536 2.4922 0 1.196-0.27929 2.1198-0.2793 0.92383-0.71615 1.5326-0.43685 0.60156-0.95963 0.95247-0.51563 0.34375-1.2533 0.52279-0.73047 0.17904-1.6829 0.17904zm1.3893-1.2389h2.2415q1.0384 0 1.6256-0.19336 0.5944-0.19335 0.94531-0.54427 0.49414-0.49414 0.76628-1.3249 0.27929-0.83789 0.27929-2.0267 0-1.6471-0.54427-2.528-0.53711-0.88802-1.3106-1.1888-0.55859-0.21484-1.7975-0.21484h-2.2057z" style=""/>
   </g>
   <g transform="matrix(.26458 0 0 .26458 -8.0538 -32.565)" color="#000000" aria-label="E">
    <path d="m270.45 183.85v-10.499h7.5912v1.2389h-6.2018v3.2155h5.8079v1.2318h-5.8079v3.5736h6.4453v1.2389z" style=""/>
   </g>
   <g transform="matrix(.26458 0 0 .26458 7.1626 -29.69)" color="#000000" aria-label="E">
    <path d="m270.45 183.85v-10.499h7.5912v1.2389h-6.2018v3.2155h5.8079v1.2318h-5.8079v3.5736h6.4453v1.2389z" style=""/>
   </g>
   <g transform="matrix(.26458 0 0 .26458 -22.06 -33.11)" color="#000000" aria-label="D">
    <path d="m270.42 183.85v-10.499h3.6165q1.2246 0 1.8691 0.15039 0.90235 0.20768 1.5397 0.75195 0.83073 0.70182 1.2389 1.7975 0.41536 1.0885 0.41536 2.4922 0 1.196-0.27929 2.1198-0.2793 0.92383-0.71615 1.5326-0.43685 0.60156-0.95963 0.95247-0.51563 0.34375-1.2533 0.52279-0.73047 0.17904-1.6829 0.17904zm1.3893-1.2389h2.2415q1.0384 0 1.6256-0.19336 0.5944-0.19335 0.94531-0.54427 0.49414-0.49414 0.76628-1.3249 0.27929-0.83789 0.27929-2.0267 0-1.6471-0.54427-2.528-0.53711-0.88802-1.3106-1.1888-0.55859-0.21484-1.7975-0.21484h-2.2057z" style=""/>
   </g>
  </g>
  <g>
   <path d="m91.659 45.646c-6.4797 4.3198-11.67 11.379-18.104 17.613-4.2641 4.5494-7.0942 10.042-11.568 14.515-2.8707 2.8707-10.679 1.2292-12.095 2.6458-1.1321 1.1321-1.6443 2.9389-2.4568 4.1577-1.4191 2.1287-6.1633 0.41654-8.3155 1.1339-2.4817 0.82722-4.3153 3.4508-5.1027 5.6696 2.0879-0.12125 3.0238-2.8978 5.1027-3.5908 2.3822-0.79407 5.4938 0.61093 7.9375 0 2.9127-0.72818 4.2875-3.067 6.9926-3.9688 2.6865-0.8955 6.8405 0.90805 8.8824-1.1339 7.5093-7.5093 12.361-5.6136 20.789-9.8274 5.0189-2.5095 6.7598-4.1112 12.662-5.2917 2.5256-1.973 4.7736-2.9538 7.1816-4.1577" color="#000000" color-rendering="auto" fill="url(#b)" fill-rule="evenodd" image-rendering="auto" shape-rendering="auto" solid-color="#000000" stroke="#56b4e9" stroke-width=".5" style="isolation:auto;mix-blend-mode:normal"/>
   <g stroke-width="1px">
    <g transform="matrix(.26458 0 0 .26458 .93544 -17.907)" color="#000000" fill="#56b4e9" aria-label="River">
     <path d="m177.58 359.06v-10.499h4.655q1.4036 0 2.1341 0.28646 0.73047 0.2793 1.1673 0.99544 0.43685 0.71615 0.43685 1.5827 0 1.1172-0.72331 1.8835-0.72331 0.76627-2.2344 0.97396 0.55143 0.26497 0.83789 0.52278 0.60872 0.5586 1.153 1.3965l1.8262 2.8574h-1.7474l-1.3893-2.1842q-0.60872-0.94531-1.0026-1.4466t-0.70898-0.70182q-0.30795-0.20052-0.63021-0.2793-0.23633-0.0501-0.77344-0.0501h-1.6113v4.6621zm1.3893-5.8652h2.9863q0.95247 0 1.4896-0.19335 0.53711-0.20053 0.81641-0.63021 0.2793-0.43685 0.2793-0.94532 0-0.74479-0.54427-1.2246-0.53711-0.47982-1.7044-0.47982h-3.3229z" style=""/>
     <path d="m188 350.05v-1.4824h1.2891v1.4824zm0 9.0163v-7.6055h1.2891v7.6055z" style=""/>
     <path d="m193.37 359.06-2.8932-7.6055h1.3607l1.6328 4.5547q0.26497 0.73763 0.48698 1.5326 0.17187-0.60156 0.47981-1.4466l1.6901-4.6406h1.3249l-2.8789 7.6055z" style=""/>
     <path d="m203.83 356.61 1.332 0.16471q-0.31511 1.1673-1.1673 1.8118-0.85222 0.64453-2.1771 0.64453-1.6686 0-2.6497-1.0241-0.97395-1.0312-0.97395-2.8861 0-1.9193 0.98828-2.9792 0.98828-1.0599 2.5638-1.0599 1.5254 0 2.4922 1.0384 0.96679 1.0384 0.96679 2.9219 0 0.11459-7e-3 0.34375h-5.6719q0.0716 1.2533 0.70898 1.9193 0.63737 0.66602 1.5898 0.66602 0.70898 0 1.2103-0.3724 0.5013-0.37239 0.79492-1.1888zm-4.2324-2.084h4.2468q-0.0859-0.95964-0.48698-1.4395-0.61589-0.74479-1.597-0.74479-0.88802 0-1.4967 0.5944-0.60156 0.5944-0.66602 1.5898z" style=""/>
     <path d="m206.77 359.06v-7.6055h1.1602v1.153q0.44401-0.80925 0.81641-1.0671 0.37955-0.25781 0.83073-0.25781 0.65169 0 1.3249 0.41536l-0.44401 1.196q-0.47265-0.27929-0.94531-0.27929-0.42252 0-0.75911 0.25781-0.33659 0.25065-0.47982 0.70182-0.21484 0.6875-0.21484 1.5039v3.9818z" style=""/>
    </g>
    <g transform="matrix(.26458 0 0 .26458 -9.889 -45.837)" color="#000000" fill="#800000" aria-label="Sewage pipe">
     <path d="m177.09 351.26 1.3106-0.11458q0.0931 0.78776 0.42968 1.2962 0.34375 0.5013 1.0599 0.81641 0.71614 0.30794 1.6113 0.30794 0.79492 0 1.4036-0.23633 0.60873-0.23633 0.90235-0.64453 0.30078-0.41536 0.30078-0.90234 0-0.49414-0.28646-0.85938-0.28646-0.37239-0.94531-0.62305-0.42253-0.16471-1.8691-0.50846-1.4466-0.35091-2.0267-0.65885-0.75195-0.39388-1.1244-0.97396-0.36523-0.58724-0.36523-1.3106 0-0.79492 0.45117-1.4824 0.45117-0.69466 1.3177-1.0527 0.86654-0.35807 1.9264-0.35807 1.1673 0 2.0553 0.37956 0.89518 0.3724 1.375 1.1029 0.47982 0.73047 0.51563 1.6543l-1.332 0.10026q-0.10743-0.99544-0.73047-1.5039-0.61589-0.50846-1.8262-0.50846-1.2604 0-1.8405 0.4655-0.57292 0.45833-0.57292 1.11 0 0.56576 0.40821 0.93099 0.40104 0.36524 2.0911 0.75195 1.6973 0.37956 2.3275 0.66602 0.91666 0.42253 1.3535 1.0742 0.43685 0.64453 0.43685 1.4896 0 0.83789-0.47982 1.5827-0.47981 0.73763-1.3822 1.153-0.89518 0.4082-2.0195 0.4082-1.4251 0-2.3919-0.41536-0.95963-0.41537-1.5111-1.2461-0.54428-0.83789-0.57292-1.8906z" style=""/>
     <path d="m192.4 352.18 1.332 0.16471q-0.31511 1.1673-1.1673 1.8118t-2.1771 0.64453q-1.6686 0-2.6497-1.0241-0.97396-1.0312-0.97396-2.8861 0-1.9193 0.98828-2.9792 0.98828-1.0599 2.5638-1.0599 1.5254 0 2.4922 1.0384 0.9668 1.0384 0.9668 2.9219 0 0.11458-7e-3 0.34375h-5.6719q0.0716 1.2532 0.70898 1.9193 0.63737 0.66602 1.5898 0.66602 0.70898 0 1.2103-0.3724 0.50131-0.3724 0.79493-1.1888zm-4.2324-2.084h4.2468q-0.0859-0.95963-0.48698-1.4394-0.61589-0.74479-1.597-0.74479-0.88803 0-1.4968 0.5944-0.60156 0.5944-0.66602 1.5898z" style=""/>
     <path d="m196.76 354.63-2.3275-7.6055h1.332l1.2103 4.39 0.45117 1.6328q0.0286-0.12174 0.39388-1.5684l1.2103-4.4544h1.3249l1.1387 4.4115 0.37956 1.4538 0.43684-1.4681 1.3034-4.3971h1.2533l-2.3776 7.6055h-1.3392l-1.2103-4.5547-0.29362-1.2962-1.5397 5.8509z" style=""/>
     <path d="m210.95 353.69q-0.71614 0.60872-1.3822 0.85937-0.65885 0.25065-1.418 0.25065-1.2532 0-1.9264-0.60872-0.67317-0.61589-0.67317-1.5684 0-0.5586 0.25065-1.0169 0.25781-0.46549 0.66601-0.74479 0.41537-0.2793 0.93099-0.42253 0.37956-0.10026 1.1458-0.19336 1.5612-0.18619 2.2988-0.44401 7e-3 -0.26497 7e-3 -0.33659 0-0.78776-0.36523-1.11-0.49414-0.43685-1.4681-0.43685-0.9095 0-1.3464 0.32227-0.42969 0.3151-0.63737 1.1243l-1.2604-0.17187q0.17188-0.80925 0.56576-1.3034 0.39388-0.5013 1.1387-0.76627 0.74479-0.27214 1.7259-0.27214 0.97396 0 1.5827 0.22917 0.60873 0.22917 0.89518 0.58008 0.28646 0.34375 0.40105 0.8737 0.0644 0.32942 0.0644 1.1888v1.7188q0 1.7975 0.0788 2.2773 0.0859 0.47266 0.32943 0.90951h-1.3464q-0.20052-0.40105-0.25782-0.93815zm-0.10742-2.8789q-0.70182 0.28646-2.1055 0.48698-0.79492 0.11458-1.1243 0.25781-0.32943 0.14323-0.50847 0.42253-0.17903 0.27213-0.17903 0.60872 0 0.51563 0.38671 0.85938 0.39388 0.34375 1.1458 0.34375 0.74479 0 1.3249-0.32227 0.58008-0.32943 0.85221-0.89518 0.20768-0.43685 0.20768-1.2891z" style=""/>
     <path d="m213.91 355.26 1.2532 0.1862q0.0788 0.58008 0.43685 0.84505 0.47982 0.35808 1.3106 0.35808 0.89518 0 1.3822-0.35808 0.48698-0.35807 0.65886-1.0026 0.10026-0.39388 0.0931-1.6543-0.84505 0.99545-2.1055 0.99545-1.5684 0-2.4277-1.1315-0.85937-1.1315-0.85937-2.7142 0-1.0885 0.39388-2.0052 0.39388-0.92382 1.1387-1.4251 0.75195-0.5013 1.7617-0.5013 1.3464 0 2.22 1.0885v-0.91666h1.1888v6.5742q0 1.776-0.36523 2.5137-0.35808 0.74479-1.1458 1.1745-0.7806 0.42969-1.9264 0.42969-1.3607 0-2.1986-0.61589-0.83789-0.60872-0.80924-1.8405zm1.0671-4.569q0 1.4968 0.5944 2.1842t1.4896 0.6875q0.88802 0 1.4896-0.68034 0.60157-0.6875 0.60157-2.1484 0-1.3965-0.62305-2.1055-0.61589-0.70898-1.4896-0.70898-0.85938 0-1.4609 0.70182-0.60156 0.69466-0.60156 2.0697z" style=""/>
     <path d="m227.52 352.18 1.332 0.16471q-0.3151 1.1673-1.1673 1.8118-0.85221 0.64453-2.1771 0.64453-1.6686 0-2.6497-1.0241-0.97396-1.0312-0.97396-2.8861 0-1.9193 0.98828-2.9792 0.98828-1.0599 2.5638-1.0599 1.5254 0 2.4922 1.0384 0.9668 1.0384 0.9668 2.9219 0 0.11458-7e-3 0.34375h-5.6719q0.0716 1.2532 0.70899 1.9193 0.63737 0.66602 1.5898 0.66602 0.70899 0 1.2103-0.3724t0.79492-1.1888zm-4.2324-2.084h4.2467q-0.0859-0.95963-0.48698-1.4394-0.61588-0.74479-1.597-0.74479-0.88802 0-1.4968 0.5944-0.60156 0.5944-0.66601 1.5898z" style=""/>
     <path d="m177.39 373.68v-10.52h1.1745v0.98828q0.41537-0.58008 0.93815-0.86654 0.52279-0.29362 1.2676-0.29362 0.97396 0 1.7188 0.50131 0.74479 0.5013 1.1244 1.418 0.37956 0.90951 0.37956 1.998 0 1.1673-0.42253 2.1055-0.41536 0.93099-1.2174 1.4323-0.79492 0.49414-1.6758 0.49414-0.64453 0-1.1602-0.27213-0.50846-0.27214-0.83789-0.6875v3.7025zm1.1673-6.6745q0 1.4681 0.5944 2.1699 0.5944 0.70183 1.4394 0.70183 0.85938 0 1.4681-0.72331 0.61589-0.73047 0.61589-2.2559 0-1.4538-0.60156-2.1771-0.59441-0.72331-1.4251-0.72331-0.82356 0-1.4609 0.77344-0.63021 0.76627-0.63021 2.2344z" style=""/>
     <path d="m185.57 361.75v-1.4824h1.2891v1.4824zm0 9.0163v-7.6055h1.2891v7.6055z" style=""/>
     <path d="m188.82 373.68v-10.52h1.1745v0.98828q0.41536-0.58008 0.93815-0.86654 0.52279-0.29362 1.2676-0.29362 0.97396 0 1.7188 0.50131 0.74479 0.5013 1.1244 1.418 0.37955 0.90951 0.37955 1.998 0 1.1673-0.42252 2.1055-0.41537 0.93099-1.2174 1.4323-0.79492 0.49414-1.6758 0.49414-0.64453 0-1.1602-0.27213-0.50846-0.27214-0.83789-0.6875v3.7025zm1.1673-6.6745q0 1.4681 0.5944 2.1699 0.5944 0.70183 1.4394 0.70183 0.85938 0 1.4681-0.72331 0.61589-0.73047 0.61589-2.2559 0-1.4538-0.60157-2.1771-0.5944-0.72331-1.4251-0.72331-0.82357 0-1.4609 0.77344-0.6302 0.76627-0.6302 2.2344z" style=""/>
     <path d="m202.19 368.31 1.332 0.16471q-0.3151 1.1673-1.1673 1.8118-0.85222 0.64453-2.1771 0.64453-1.6686 0-2.6497-1.0241-0.97396-1.0312-0.97396-2.8861 0-1.9193 0.98829-2.9792 0.98828-1.0599 2.5638-1.0599 1.5254 0 2.4922 1.0384 0.9668 1.0384 0.9668 2.9219 0 0.11458-7e-3 0.34375h-5.6719q0.0716 1.2533 0.70898 1.9193 0.63737 0.66602 1.5898 0.66602 0.70899 0 1.2103-0.3724 0.5013-0.37239 0.79492-1.1888zm-4.2324-2.084h4.2467q-0.0859-0.95963-0.48697-1.4394-0.61589-0.74479-1.597-0.74479-0.88802 0-1.4967 0.5944-0.60157 0.5944-0.66602 1.5898z" style=""/>
    </g>
    <g transform="matrix(.26458 0 0 .26458 32.633 -64.169)" color="#000000" fill="#009e73" aria-label="Algal bloom">
     <path d="m176.41 354.63 4.0319-10.499h1.4968l4.2969 10.499h-1.5827l-1.2246-3.1797h-4.39l-1.153 3.1797zm3.0293-4.3112h3.5592l-1.0957-2.9076q-0.5013-1.3249-0.74479-2.1771-0.20052 1.0098-0.56576 2.0052z" style=""/>
     <path d="m187.16 354.63v-10.499h1.2891v10.499z" style=""/>
     <path d="m190.22 355.26 1.2533 0.1862q0.0788 0.58008 0.43685 0.84505 0.47982 0.35808 1.3105 0.35808 0.89519 0 1.3822-0.35808 0.48697-0.35807 0.65885-1.0026 0.10026-0.39388 0.0931-1.6543-0.84505 0.99545-2.1055 0.99545-1.5684 0-2.4277-1.1315-0.85938-1.1315-0.85938-2.7142 0-1.0885 0.39388-2.0052 0.39388-0.92382 1.1387-1.4251 0.75196-0.5013 1.7617-0.5013 1.3464 0 2.22 1.0885v-0.91666h1.1888v6.5742q0 1.776-0.36524 2.5137-0.35807 0.74479-1.1458 1.1745-0.7806 0.42969-1.9264 0.42969-1.3607 0-2.1986-0.61589-0.83789-0.60872-0.80925-1.8405zm1.0671-4.569q0 1.4968 0.5944 2.1842t1.4896 0.6875q0.88803 0 1.4896-0.68034 0.60156-0.6875 0.60156-2.1484 0-1.3965-0.62305-2.1055-0.61588-0.70898-1.4896-0.70898-0.85937 0-1.4609 0.70182-0.60156 0.69466-0.60156 2.0697z" style=""/>
     <path d="m203.58 353.69q-0.71614 0.60872-1.3822 0.85937-0.65885 0.25065-1.418 0.25065-1.2532 0-1.9264-0.60872-0.67318-0.61589-0.67318-1.5684 0-0.5586 0.25066-1.0169 0.25781-0.46549 0.66601-0.74479 0.41537-0.2793 0.93099-0.42253 0.37956-0.10026 1.1458-0.19336 1.5612-0.18619 2.2988-0.44401 7e-3 -0.26497 7e-3 -0.33659 0-0.78776-0.36523-1.11-0.49414-0.43685-1.4681-0.43685-0.9095 0-1.3464 0.32227-0.42969 0.3151-0.63737 1.1243l-1.2604-0.17187q0.17188-0.80925 0.56576-1.3034 0.39388-0.5013 1.1387-0.76627 0.74479-0.27214 1.7259-0.27214 0.97396 0 1.5827 0.22917t0.89518 0.58008q0.28646 0.34375 0.40104 0.8737 0.0645 0.32942 0.0645 1.1888v1.7188q0 1.7975 0.0788 2.2773 0.0859 0.47266 0.32943 0.90951h-1.3464q-0.20052-0.40105-0.25782-0.93815zm-0.10742-2.8789q-0.70182 0.28646-2.1055 0.48698-0.79492 0.11458-1.1244 0.25781-0.32942 0.14323-0.50846 0.42253-0.17904 0.27213-0.17904 0.60872 0 0.51563 0.38672 0.85938 0.39388 0.34375 1.1458 0.34375 0.74479 0 1.3249-0.32227 0.58007-0.32943 0.85221-0.89518 0.20768-0.43685 0.20768-1.2891z" style=""/>
     <path d="m206.76 354.63v-10.499h1.2891v10.499z" style=""/>
     <path d="m215.31 354.63h-1.196v-10.499h1.2891v3.7454q0.81641-1.0241 2.084-1.0241 0.70183 0 1.3249 0.28646 0.63021 0.2793 1.0312 0.79492 0.40821 0.50847 0.63737 1.2318 0.22917 0.72331 0.22917 1.5469 0 1.9551-0.9668 3.0221-0.96679 1.0671-2.3203 1.0671-1.3464 0-2.1126-1.1244zm-0.0143-3.86q0 1.3678 0.37239 1.9766 0.60873 0.99545 1.6471 0.99545 0.84505 0 1.4609-0.73047 0.61588-0.73763 0.61588-2.1914 0-1.4896-0.5944-2.1986-0.58724-0.70898-1.4251-0.70898-0.84505 0-1.4609 0.73763-0.61588 0.73047-0.61588 2.1198z" style=""/>
     <path d="m222.25 354.63v-10.499h1.2891v10.499z" style=""/>
     <path d="m225.07 350.83q0-2.1126 1.1745-3.1296 0.98112-0.84505 2.3919-0.84505 1.5684 0 2.5638 1.0312 0.99544 1.0241 0.99544 2.8359 0 1.4681-0.44401 2.3132-0.43685 0.83789-1.2819 1.3034-0.83789 0.46549-1.8333 0.46549-1.597 0-2.5853-1.0241-0.98112-1.0241-0.98112-2.9505zm1.3249 0q0 1.4609 0.63737 2.1914 0.63737 0.72331 1.6042 0.72331 0.95964 0 1.597-0.73047t0.63737-2.2272q0-1.4108-0.64453-2.1341-0.63737-0.73047-1.5898-0.73047-0.96679 0-1.6042 0.72331-0.63737 0.7233-0.63737 2.1842z" style=""/>
     <path d="m233.23 350.83q0-2.1126 1.1745-3.1296 0.98112-0.84505 2.3919-0.84505 1.5684 0 2.5638 1.0312 0.99544 1.0241 0.99544 2.8359 0 1.4681-0.44401 2.3132-0.43685 0.83789-1.2819 1.3034-0.83789 0.46549-1.8333 0.46549-1.597 0-2.5853-1.0241-0.98112-1.0241-0.98112-2.9505zm1.3249 0q0 1.4609 0.63737 2.1914 0.63737 0.72331 1.6042 0.72331 0.95963 0 1.597-0.73047t0.63737-2.2272q0-1.4108-0.64453-2.1341-0.63737-0.73047-1.5898-0.73047-0.9668 0-1.6042 0.72331-0.63737 0.7233-0.63737 2.1842z" style=""/>
     <path d="m241.88 354.63v-7.6055h1.153v1.067q0.35807-0.55859 0.95247-0.89518 0.5944-0.34375 1.3535-0.34375 0.84505 0 1.3822 0.35091 0.54427 0.35092 0.76628 0.98112 0.90234-1.332 2.349-1.332 1.1315 0 1.7402 0.63021 0.60872 0.62305 0.60872 1.9264v5.2207h-1.2819v-4.791q0-0.77344-0.1289-1.11-0.12175-0.34375-0.45118-0.55143-0.32942-0.20768-0.77343-0.20768-0.80209 0-1.332 0.53711-0.52995 0.52995-0.52995 1.7044v4.4186h-1.2891v-4.9414q0-0.85937-0.3151-1.2891t-1.0312-0.42969q-0.54427 0-1.0098 0.28646-0.45834 0.28646-0.66602 0.83789t-0.20768 1.5898v3.946z" style=""/>
    </g>
   </g>
  </g>
  <g>
   <path d="m61.606 31.334c-0.51952 0.04-0.62295 0.04624-0.80181-0.4009-0.90026-2.2507-1.0539-4.7502-1.6036-6.949-0.68319-2.7328-2.5189-5.2649-3.2072-8.0181-0.53383-2.1353 0.0039-4.6618-0.53454-6.8154" color="#000000" color-rendering="auto" fill="none" image-rendering="auto" shape-rendering="auto" solid-color="#000000" stroke="#f0e442" stroke-width=".5" style="isolation:auto;mix-blend-mode:normal"/>
   <path d="m77.642 23.984c4.0808-2.6715 6.4145-2.9779 6.4145-8.1517 0-1.5324 0.06643-2.6735-0.53454-3.8754-0.72153-1.4431 0.3892-3.9222 0-5.479" color="#000000" color-rendering="auto" fill="none" image-rendering="auto" shape-rendering="auto" solid-color="#000000" stroke="#f0e442" stroke-width=".5" style="isolation:auto;mix-blend-mode:normal"/>
   <g transform="matrix(.26458 0 0 .26458 46.238 -76.172)" color="#000000" fill="#f0e442" stroke-width="1px" aria-label="Longshore drift">
    <path d="m177.5 354.63v-10.499h1.3893v9.2598h5.1706v1.2389z" style=""/>
    <path d="m185.08 350.83q0-2.1126 1.1745-3.1296 0.98112-0.84505 2.3919-0.84505 1.5684 0 2.5638 1.0312 0.99545 1.0241 0.99545 2.8359 0 1.4681-0.44401 2.3132-0.43685 0.83789-1.2819 1.3034-0.83789 0.46549-1.8333 0.46549-1.597 0-2.5853-1.0241-0.98112-1.0241-0.98112-2.9505zm1.3249 0q0 1.4609 0.63737 2.1914 0.63737 0.72331 1.6042 0.72331 0.95964 0 1.597-0.73047t0.63737-2.2272q0-1.4108-0.64453-2.1341-0.63737-0.73047-1.5898-0.73047-0.96679 0-1.6042 0.72331-0.63737 0.7233-0.63737 2.1842z" style=""/>
    <path d="m193.72 354.63v-7.6055h1.1602v1.0814q0.83789-1.2533 2.4206-1.2533 0.6875 0 1.2604 0.25065 0.58008 0.24349 0.86654 0.64453 0.28646 0.40105 0.40104 0.95248 0.0716 0.35807 0.0716 1.2532v4.6764h-1.2891v-4.6263q0-0.78776-0.15039-1.1745-0.15039-0.39389-0.53711-0.62305-0.37955-0.23633-0.89518-0.23633-0.82357 0-1.4251 0.52279-0.5944 0.52278-0.5944 1.9837v4.1536z" style=""/>
    <path d="m201.65 355.26 1.2533 0.1862q0.0788 0.58008 0.43684 0.84505 0.47982 0.35808 1.3106 0.35808 0.89518 0 1.3822-0.35808 0.48698-0.35807 0.65886-1.0026 0.10026-0.39388 0.0931-1.6543-0.84506 0.99545-2.1055 0.99545-1.5684 0-2.4277-1.1315-0.85937-1.1315-0.85937-2.7142 0-1.0885 0.39388-2.0052 0.39388-0.92382 1.1387-1.4251 0.75195-0.5013 1.7617-0.5013 1.3464 0 2.22 1.0885v-0.91666h1.1888v6.5742q0 1.776-0.36523 2.5137-0.35807 0.74479-1.1458 1.1745-0.7806 0.42969-1.9264 0.42969-1.3607 0-2.1986-0.61589-0.8379-0.60872-0.80925-1.8405zm1.0671-4.569q0 1.4968 0.5944 2.1842t1.4896 0.6875q0.88802 0 1.4896-0.68034 0.60156-0.6875 0.60156-2.1484 0-1.3965-0.62305-2.1055-0.61588-0.70898-1.4896-0.70898-0.85938 0-1.4609 0.70182-0.60156 0.69466-0.60156 2.0697z" style=""/>
    <path d="m209.54 352.36 1.2747-0.20052q0.10742 0.76628 0.5944 1.1745 0.49414 0.40821 1.375 0.40821 0.88802 0 1.3177-0.35808 0.42968-0.36523 0.42968-0.85221 0-0.43685-0.37955-0.6875-0.26498-0.17188-1.3177-0.43685-1.418-0.35807-1.9694-0.61589-0.54427-0.26497-0.83073-0.7233-0.2793-0.4655-0.2793-1.0241 0-0.50846 0.22917-0.93815 0.23632-0.43685 0.63737-0.72331 0.30078-0.222 0.8164-0.3724 0.52279-0.15755 1.1172-0.15755 0.89518 0 1.5684 0.25782 0.68034 0.25781 1.0026 0.70182 0.32227 0.43685 0.44401 1.1745l-1.2604 0.17187q-0.0859-0.58724-0.5013-0.91666-0.40821-0.32943-1.1602-0.32943-0.88802 0-1.2676 0.29362t-0.37956 0.6875q0 0.25065 0.15756 0.45117 0.15755 0.20768 0.49414 0.34375 0.19336 0.0716 1.1387 0.32943 1.3678 0.36523 1.905 0.60156 0.54427 0.22917 0.85221 0.67318t0.30794 1.1029q0 0.64453-0.37955 1.2174-0.3724 0.56575-1.0814 0.88086-0.70899 0.30794-1.6042 0.30794-1.4824 0-2.263-0.61588-0.77344-0.61589-0.98828-1.8262z" style=""/>
    <path d="m217.38 354.63v-10.499h1.2891v3.7669q0.90234-1.0456 2.2773-1.0456 0.84505 0 1.4681 0.33659 0.62305 0.32943 0.88802 0.91667 0.27213 0.58724 0.27213 1.7044v4.8197h-1.2891v-4.8197q0-0.96679-0.42252-1.4036-0.41537-0.44401-1.1816-0.44401-0.57292 0-1.0814 0.30078-0.50131 0.29362-0.71615 0.80208-0.21484 0.50847-0.21484 1.4036v4.1608z" style=""/>
    <path d="m225.07 350.83q0-2.1126 1.1745-3.1296 0.98112-0.84505 2.3919-0.84505 1.5684 0 2.5638 1.0312 0.99544 1.0241 0.99544 2.8359 0 1.4681-0.44401 2.3132-0.43685 0.83789-1.2819 1.3034-0.83789 0.46549-1.8333 0.46549-1.597 0-2.5853-1.0241-0.98112-1.0241-0.98112-2.9505zm1.3249 0q0 1.4609 0.63737 2.1914 0.63737 0.72331 1.6042 0.72331 0.95964 0 1.597-0.73047t0.63737-2.2272q0-1.4108-0.64453-2.1341-0.63737-0.73047-1.5898-0.73047-0.96679 0-1.6042 0.72331-0.63737 0.7233-0.63737 2.1842z" style=""/>
    <path d="m233.7 354.63v-7.6055h1.1602v1.153q0.44401-0.80924 0.81641-1.067 0.37956-0.25782 0.83073-0.25782 0.65169 0 1.3249 0.41537l-0.44401 1.196q-0.47266-0.2793-0.94532-0.2793-0.42252 0-0.75911 0.25782-0.33659 0.25065-0.47982 0.70182-0.21484 0.6875-0.21484 1.5039v3.9818z" style=""/>
    <path d="m243.82 352.18 1.332 0.16471q-0.31511 1.1673-1.1673 1.8118t-2.1771 0.64453q-1.6686 0-2.6497-1.0241-0.97396-1.0312-0.97396-2.8861 0-1.9193 0.98828-2.9792 0.98828-1.0599 2.5638-1.0599 1.5254 0 2.4922 1.0384 0.9668 1.0384 0.9668 2.9219 0 0.11458-7e-3 0.34375h-5.6719q0.0716 1.2532 0.70898 1.9193 0.63737 0.66602 1.5898 0.66602 0.70898 0 1.2103-0.3724 0.50131-0.3724 0.79493-1.1888zm-4.2324-2.084h4.2468q-0.0859-0.95963-0.48698-1.4394-0.61589-0.74479-1.597-0.74479-0.88802 0-1.4967 0.5944-0.60156 0.5944-0.66602 1.5898z" style=""/>
    <path d="m182.33 370.76v-0.95964q-0.72331 1.1315-2.127 1.1315-0.9095 0-1.6758-0.5013-0.75911-0.5013-1.1816-1.3965-0.41536-0.90235-0.41536-2.0697 0-1.1387 0.37955-2.0625 0.37956-0.93098 1.1387-1.4251 0.75911-0.49414 1.6973-0.49414 0.6875 0 1.2246 0.29362 0.53711 0.28646 0.8737 0.75196v-3.7669h1.2819v10.499zm-4.0749-3.7956q0 1.4609 0.61588 2.1842 0.61589 0.72331 1.4538 0.72331 0.84505 0 1.4323-0.6875 0.5944-0.69466 0.5944-2.1126 0-1.5612-0.60156-2.2917t-1.4824-0.73047q-0.85938 0-1.4395 0.70182-0.57291 0.70183-0.57291 2.2129z" style=""/>
    <path d="m185.54 370.76v-7.6055h1.1602v1.153q0.44401-0.80924 0.8164-1.067 0.37956-0.25782 0.83073-0.25782 0.6517 0 1.3249 0.41537l-0.44401 1.196q-0.47265-0.27929-0.94531-0.27929-0.42253 0-0.75912 0.25781-0.33658 0.25065-0.47981 0.70182-0.21485 0.6875-0.21485 1.5039v3.9818z" style=""/>
    <path d="m190.46 361.75v-1.4824h1.2891v1.4824zm0 9.0163v-7.6055h1.2891v7.6055z" style=""/>
    <path d="m194.03 370.76v-6.6029h-1.1387v-1.0026h1.1387v-0.80925q0-0.76627 0.13607-1.1387 0.18619-0.5013 0.65169-0.80924 0.47266-0.31511 1.3177-0.31511 0.54427 0 1.2031 0.12891l-0.19336 1.1244q-0.40104-0.0716-0.75911-0.0716-0.58724 0-0.83073 0.25065-0.24349 0.25066-0.24349 0.93816v0.70182h1.4824v1.0026h-1.4824v6.6029z" style=""/>
    <path d="m200.6 369.61 0.1862 1.1387q-0.54427 0.11459-0.97396 0.11459-0.70182 0-1.0885-0.22201-0.38672-0.222-0.54427-0.58008-0.15756-0.36523-0.15756-1.5254v-4.3756h-0.94531v-1.0026h0.94531v-1.8835l1.2819-0.77344v2.6569h1.2962v1.0026h-1.2962v4.4473q0 0.55143 0.0645 0.70898 0.0716 0.15756 0.222 0.25065 0.15755 0.0931 0.44401 0.0931 0.21485 0 0.56576-0.0501z" style=""/>
   </g>
  </g>
  <g stroke-width="1px">
   <g transform="matrix(.26458 0 0 .26458 -.37798 21.923)" color="#000000" aria-label="A">
    <path d="m269.26 183.85 4.0319-10.499h1.4968l4.2969 10.499h-1.5827l-1.2246-3.1797h-4.39l-1.153 3.1797zm3.0293-4.3112h3.5592l-1.0957-2.9076q-0.5013-1.3249-0.74479-2.1771-0.20052 1.0098-0.56576 2.0052z" style=""/>
   </g>
   <g transform="matrix(.26458 0 0 .26458 14.174 7.1815)" color="#000000" aria-label="C">
    <path d="m277.91 180.17 1.3893 0.35091q-0.43685 1.7116-1.5755 2.6139-1.1315 0.89518-2.7715 0.89518-1.6973 0-2.7643-0.6875-1.0599-0.69466-1.6185-2.0052-0.55143-1.3105-0.55143-2.8144 0-1.64 0.62304-2.8574 0.63021-1.2246 1.7832-1.8548 1.1602-0.63737 2.5495-0.63737 1.5755 0 2.6497 0.80208 1.0742 0.80209 1.4968 2.2559l-1.3678 0.32227q-0.36523-1.1458-1.0599-1.6686-0.69466-0.52279-1.7474-0.52279-1.2103 0-2.0267 0.58008-0.80925 0.58008-1.1387 1.5612-0.32942 0.97396-0.32942 2.0124 0 1.3392 0.38672 2.3418 0.39388 0.99544 1.2174 1.4896 0.82357 0.49414 1.7832 0.49414 1.1673 0 1.9766-0.67318 0.80924-0.67317 1.0957-1.998z" style=""/>
   </g>
   <g transform="matrix(.26458 0 0 .26458 27.025 12.851)" color="#000000" aria-label="C">
    <path d="m277.91 180.17 1.3893 0.35091q-0.43685 1.7116-1.5755 2.6139-1.1315 0.89518-2.7715 0.89518-1.6973 0-2.7643-0.6875-1.0599-0.69466-1.6185-2.0052-0.55143-1.3105-0.55143-2.8144 0-1.64 0.62304-2.8574 0.63021-1.2246 1.7832-1.8548 1.1602-0.63737 2.5495-0.63737 1.5755 0 2.6497 0.80208 1.0742 0.80209 1.4968 2.2559l-1.3678 0.32227q-0.36523-1.1458-1.0599-1.6686-0.69466-0.52279-1.7474-0.52279-1.2103 0-2.0267 0.58008-0.80925 0.58008-1.1387 1.5612-0.32942 0.97396-0.32942 2.0124 0 1.3392 0.38672 2.3418 0.39388 0.99544 1.2174 1.4896 0.82357 0.49414 1.7832 0.49414 1.1673 0 1.9766-0.67318 0.80924-0.67317 1.0957-1.998z" style=""/>
   </g>
   <g transform="matrix(.26458 0 0 .26458 17.387 25.891)" color="#000000" aria-label="D">
    <path d="m270.42 183.85v-10.499h3.6165q1.2246 0 1.8691 0.15039 0.90235 0.20768 1.5397 0.75195 0.83073 0.70182 1.2389 1.7975 0.41536 1.0885 0.41536 2.4922 0 1.196-0.27929 2.1198-0.2793 0.92383-0.71615 1.5326-0.43685 0.60156-0.95963 0.95247-0.51563 0.34375-1.2533 0.52279-0.73047 0.17904-1.6829 0.17904zm1.3893-1.2389h2.2415q1.0384 0 1.6256-0.19336 0.5944-0.19335 0.94531-0.54427 0.49414-0.49414 0.76628-1.3249 0.27929-0.83789 0.27929-2.0267 0-1.6471-0.54427-2.528-0.53711-0.88802-1.3106-1.1888-0.55859-0.21484-1.7975-0.21484h-2.2057z" style=""/>
   </g>
  </g>
  <g>
   <g transform="matrix(.20562 -.16651 .16651 .20562 -19.416 63.944)" color="#000000" fill="#0072b2" stroke-width="1px" aria-label="Salinity">
    <path d="m291.77 246.43 0.67017-0.0586q0.0476 0.40283 0.21972 0.66284 0.17579 0.25635 0.542 0.41748 0.36621 0.15747 0.82397 0.15747 0.4065 0 0.71777-0.12085 0.31128-0.12085 0.46143-0.32959 0.15381-0.2124 0.15381-0.46142 0-0.25269-0.14649-0.43946-0.14648-0.19043-0.48339-0.3186-0.21607-0.0842-0.95581-0.26001-0.73975-0.17944-1.0364-0.33691-0.38452-0.20142-0.57495-0.49805-0.18677-0.30029-0.18677-0.67017 0-0.40649 0.23071-0.75805 0.23072-0.35523 0.67383-0.53833 0.44312-0.18311 0.98511-0.18311 0.59692 0 1.051 0.19409 0.45777 0.19043 0.70313 0.56397 0.24536 0.37353 0.26367 0.84594l-0.68115 0.0513q-0.0549-0.50903-0.37354-0.76904-0.31494-0.26001-0.93384-0.26001-0.64453 0-0.94116 0.23804-0.29297 0.23437-0.29297 0.56763 0 0.2893 0.20874 0.47607 0.20508 0.18677 1.0693 0.38452 0.86792 0.19409 1.1902 0.34058 0.46875 0.21606 0.69213 0.54931 0.22339 0.32959 0.22339 0.76172 0 0.42847-0.24536 0.80933-0.24536 0.3772-0.70679 0.5896-0.45776 0.20874-1.0327 0.20874-0.72876 0-1.2231-0.2124-0.49073-0.21241-0.77271-0.63721-0.27832-0.42847-0.29297-0.9668z" style=""/>
    <path d="m299.47 247.67q-0.36621 0.31128-0.70679 0.43945-0.33691 0.12818-0.7251 0.12818-0.64086 0-0.9851-0.31128-0.34424-0.31494-0.34424-0.80201 0-0.28564 0.12817-0.52001 0.13184-0.23804 0.34058-0.38086 0.2124-0.14283 0.47607-0.21607 0.1941-0.0513 0.58594-0.0989 0.79834-0.0952 1.1755-0.22705 4e-3 -0.13549 4e-3 -0.17212 0-0.40283-0.18677-0.56762-0.25268-0.22339-0.75073-0.22339-0.46509 0-0.68848 0.16479-0.21972 0.16114-0.32592 0.57495l-0.64454-0.0879q0.0879-0.41381 0.28931-0.6665 0.20142-0.25635 0.58228-0.39185 0.38086-0.13916 0.88256-0.13916 0.49805 0 0.80933 0.11719t0.45776 0.29663q0.14649 0.17578 0.20508 0.44678 0.033 0.16846 0.033 0.60791v0.87891q0 0.91919 0.0403 1.1646 0.0439 0.2417 0.16845 0.46509h-0.68847q-0.10254-0.20508-0.13184-0.47974zm-0.0549-1.4722q-0.35889 0.14649-1.0767 0.24902-0.4065 0.0586-0.57495 0.13184-0.16846 0.0732-0.26001 0.21606-0.0916 0.13917-0.0916 0.31128 0 0.26368 0.19776 0.43946 0.20141 0.17578 0.58594 0.17578 0.38085 0 0.67749-0.1648 0.29663-0.16845 0.43579-0.45776 0.1062-0.22339 0.1062-0.65918z" style=""/>
    <path d="m301.09 248.15v-5.3687h0.65918v5.3687z" style=""/>
    <path d="m302.78 243.54v-0.75806h0.65918v0.75806zm0 4.6106v-3.8892h0.65918v3.8892z" style=""/>
    <path d="m304.45 248.15v-3.8892h0.59326v0.55297q0.42846-0.64087 1.2378-0.64087 0.35156 0 0.64453 0.12818 0.29663 0.12451 0.44312 0.32959 0.14648 0.20508 0.20508 0.48706 0.0366 0.1831 0.0366 0.64087v2.3914h-0.65918v-2.3657q0-0.40283-0.0769-0.60058-0.0769-0.20142-0.27466-0.31861-0.19409-0.12085-0.45776-0.12085-0.42114 0-0.72876 0.26734-0.30395 0.26733-0.30395 1.0144v2.124z" style=""/>
    <path d="m308.63 243.54v-0.75806h0.65918v0.75806zm0 4.6106v-3.8892h0.65918v3.8892z" style=""/>
    <path d="m311.73 247.56 0.0952 0.58227q-0.27832 0.0586-0.49805 0.0586-0.35889 0-0.55664-0.11352-0.19775-0.11353-0.27832-0.29663-0.0806-0.18677-0.0806-0.78003v-2.2376h-0.4834v-0.51269h0.4834v-0.96314l0.65552-0.39551v1.3586h0.66284v0.51269h-0.66284v2.2742q0 0.28198 0.033 0.36255 0.0366 0.0806 0.11352 0.12817 0.0806 0.0476 0.22706 0.0476 0.10986 0 0.2893-0.0256z" style=""/>
    <path d="m312.34 249.65-0.0732-0.6189q0.21607 0.0586 0.3772 0.0586 0.21973 0 0.35156-0.0733 0.13184-0.0732 0.21607-0.20507 0.0623-0.0989 0.20141-0.49073 0.0183-0.0549 0.0586-0.16113l-1.4758-3.8965h0.71045l0.80932 2.2522q0.15747 0.42847 0.28198 0.90088 0.11353-0.4541 0.271-0.88623l0.8313-2.2668h0.65918l-1.4795 3.9551q-0.23804 0.64087-0.36988 0.88257-0.17578 0.32593-0.40283 0.47608-0.22705 0.1538-0.54199 0.1538-0.19043 0-0.42481-0.0806z" style=""/>
   </g>
   <path d="m77.192 70.913 15.016-10.446" color="#000000" color-rendering="auto" fill="none" image-rendering="auto" marker-end="url(#a)" shape-rendering="auto" solid-color="#000000" stroke="#0072b2" stroke-width=".25" style="isolation:auto;mix-blend-mode:normal"/>
   <path d="m38.544 43.304 26.08-9.6384c0.85888-1.2565-0.23892-1.7064-0.82577-1.963l-26.19 9.5968c-0.39429 0.88913-0.32187 1.7135 0.93544 2.0045" color="#000000" color-rendering="auto" fill="#e69f00" fill-rule="evenodd" image-rendering="auto" shape-rendering="auto" solid-color="#000000" stroke="#800000" stroke-width=".5" style="isolation:auto;mix-blend-mode:normal"/>
  </g>
 </g>
</svg>
