<?xml version="1.0" encoding="UTF-8"?>
<svg width="68.659mm" height="96.718mm" version="1.1" viewBox="0 0 68.659 96.718" xmlns="http://www.w3.org/2000/svg">
 <g transform="translate(-37.443 -7.2875)">
  <path d="m41.694 11.289c-0.08595 16.142 9.7079 29.305 16.571 43.03 6.8646 13.729 10.125 19.697 20.045 31.271 3.9666 4.6277 11.893 14.165 18.442 14.165" color="#000000" color-rendering="auto" fill="none" image-rendering="auto" shape-rendering="auto" solid-color="#000000" stroke="#000" stroke-width=".5" style="isolation:auto;mix-blend-mode:normal"/>
  <g stroke-width="1px">
   <g transform="matrix(.26458 0 0 .26458 -.37798 21.923)" color="#000000" aria-label="A">
    <path d="m269.26 183.85 4.0319-10.499h1.4968l4.2969 10.499h-1.5827l-1.2246-3.1797h-4.39l-1.153 3.1797zm3.0293-4.3112h3.5592l-1.0957-2.9076q-0.5013-1.3249-0.74479-2.1771-0.20052 1.0098-0.56576 2.0052z"/>
   </g>
   <g transform="matrix(.26458 0 0 .26458 -5.4617 -16.253)" color="#000000" aria-label="B">
    <path d="m270.36 183.85v-10.499h3.9388q1.2031 0 1.9264 0.32227 0.73047 0.3151 1.1387 0.98112 0.41537 0.65886 0.41537 1.3822 0 0.67317-0.36524 1.2676-0.36524 0.5944-1.1029 0.95963 0.95248 0.2793 1.4609 0.95248 0.51563 0.67318 0.51563 1.5898 0 0.73763-0.3151 1.375-0.30795 0.63021-0.76628 0.97396-0.45834 0.34375-1.153 0.52279-0.6875 0.17188-1.6901 0.17188zm1.3893-6.0873h2.2702q0.92383 0 1.3249-0.12174 0.52995-0.15756 0.79493-0.52279 0.27213-0.36524 0.27213-0.91667 0-0.52279-0.25065-0.91667-0.25065-0.40104-0.71615-0.54427-0.46549-0.15039-1.597-0.15039h-2.0983zm0 4.8483h2.6139q0.67318 0 0.94532-0.0501 0.47982-0.0859 0.80208-0.28646 0.32227-0.20052 0.52995-0.58008 0.20768-0.38672 0.20768-0.88802 0-0.58724-0.30078-1.0169-0.30078-0.43685-0.83789-0.60873-0.52995-0.17903-1.5326-0.17903h-2.4277z"/>
   </g>
   <g transform="matrix(.26458 0 0 .26458 14.174 7.1815)" color="#000000" aria-label="C">
    <path d="m277.91 180.17 1.3893 0.35091q-0.43685 1.7116-1.5755 2.6139-1.1315 0.89518-2.7715 0.89518-1.6973 0-2.7643-0.6875-1.0599-0.69466-1.6185-2.0052-0.55143-1.3106-0.55143-2.8145 0-1.64 0.62304-2.8574 0.63021-1.2246 1.7832-1.8548 1.1602-0.63737 2.5495-0.63737 1.5755 0 2.6497 0.80208 1.0742 0.80209 1.4968 2.2559l-1.3678 0.32226q-0.36524-1.1458-1.0599-1.6686t-1.7474-0.52279q-1.2103 0-2.0267 0.58008-0.80924 0.58008-1.1387 1.5612-0.32943 0.97396-0.32943 2.0124 0 1.3392 0.38672 2.3418 0.39388 0.99544 1.2174 1.4896 0.82357 0.49414 1.7832 0.49414 1.1673 0 1.9766-0.67318 0.80924-0.67318 1.0957-1.998z"/>
   </g>
   <g transform="matrix(.26458 0 0 .26458 27.025 12.851)" color="#000000" aria-label="C">
    <path d="m277.91 180.17 1.3893 0.35091q-0.43685 1.7116-1.5755 2.6139-1.1315 0.89518-2.7715 0.89518-1.6973 0-2.7643-0.6875-1.0599-0.69466-1.6185-2.0052-0.55143-1.3106-0.55143-2.8145 0-1.64 0.62304-2.8574 0.63021-1.2246 1.7832-1.8548 1.1602-0.63737 2.5495-0.63737 1.5755 0 2.6497 0.80208 1.0742 0.80209 1.4968 2.2559l-1.3678 0.32226q-0.36524-1.1458-1.0599-1.6686t-1.7474-0.52279q-1.2103 0-2.0267 0.58008-0.80924 0.58008-1.1387 1.5612-0.32943 0.97396-0.32943 2.0124 0 1.3392 0.38672 2.3418 0.39388 0.99544 1.2174 1.4896 0.82357 0.49414 1.7832 0.49414 1.1673 0 1.9766-0.67318 0.80924-0.67318 1.0957-1.998z"/>
   </g>
   <g transform="matrix(.26458 0 0 .26458 17.387 25.891)" color="#000000" aria-label="D">
    <path d="m270.42 183.85v-10.499h3.6165q1.2246 0 1.8692 0.15039 0.90234 0.20769 1.5397 0.75196 0.83073 0.70182 1.2389 1.7975 0.41537 1.0885 0.41537 2.4922 0 1.196-0.2793 2.1198t-0.71615 1.5326q-0.43685 0.60157-0.95964 0.95248-0.51562 0.34375-1.2532 0.52279-0.73047 0.17904-1.683 0.17904zm1.3893-1.2389h2.2415q1.0384 0 1.6256-0.19336 0.5944-0.19336 0.94532-0.54427 0.49414-0.49414 0.76627-1.3249 0.2793-0.8379 0.2793-2.0267 0-1.6471-0.54427-2.528-0.53711-0.88803-1.3106-1.1888-0.5586-0.21484-1.7975-0.21484h-2.2057z"/>
   </g>
   <g transform="matrix(.26458 0 0 .26458 27.592 39.876)" color="#000000" aria-label="D">
    <path d="m270.42 183.85v-10.499h3.6165q1.2246 0 1.8692 0.15039 0.90234 0.20769 1.5397 0.75196 0.83073 0.70182 1.2389 1.7975 0.41537 1.0885 0.41537 2.4922 0 1.196-0.2793 2.1198t-0.71615 1.5326q-0.43685 0.60157-0.95964 0.95248-0.51562 0.34375-1.2532 0.52279-0.73047 0.17904-1.683 0.17904zm1.3893-1.2389h2.2415q1.0384 0 1.6256-0.19336 0.5944-0.19336 0.94532-0.54427 0.49414-0.49414 0.76627-1.3249 0.2793-0.8379 0.2793-2.0267 0-1.6471-0.54427-2.528-0.53711-0.88803-1.3106-1.1888-0.5586-0.21484-1.7975-0.21484h-2.2057z"/>
   </g>
   <g transform="matrix(.26458 0 0 .26458 -3.4018 2.8348)" color="#000000" aria-label="D">
    <path d="m270.42 183.85v-10.499h3.6165q1.2246 0 1.8692 0.15039 0.90234 0.20769 1.5397 0.75196 0.83073 0.70182 1.2389 1.7975 0.41537 1.0885 0.41537 2.4922 0 1.196-0.2793 2.1198t-0.71615 1.5326q-0.43685 0.60157-0.95964 0.95248-0.51562 0.34375-1.2532 0.52279-0.73047 0.17904-1.683 0.17904zm1.3893-1.2389h2.2415q1.0384 0 1.6256-0.19336 0.5944-0.19336 0.94532-0.54427 0.49414-0.49414 0.76627-1.3249 0.2793-0.8379 0.2793-2.0267 0-1.6471-0.54427-2.528-0.53711-0.88803-1.3106-1.1888-0.5586-0.21484-1.7975-0.21484h-2.2057z"/>
   </g>
   <g transform="matrix(.26458 0 0 .26458 13.607 -10.394)" color="#000000" aria-label="D">
    <path d="m270.42 183.85v-10.499h3.6165q1.2246 0 1.8692 0.15039 0.90234 0.20769 1.5397 0.75196 0.83073 0.70182 1.2389 1.7975 0.41537 1.0885 0.41537 2.4922 0 1.196-0.2793 2.1198t-0.71615 1.5326q-0.43685 0.60157-0.95964 0.95248-0.51562 0.34375-1.2532 0.52279-0.73047 0.17904-1.683 0.17904zm1.3893-1.2389h2.2415q1.0384 0 1.6256-0.19336 0.5944-0.19336 0.94532-0.54427 0.49414-0.49414 0.76627-1.3249 0.2793-0.8379 0.2793-2.0267 0-1.6471-0.54427-2.528-0.53711-0.88803-1.3106-1.1888-0.5586-0.21484-1.7975-0.21484h-2.2057z"/>
   </g>
   <g transform="matrix(.26458 0 0 .26458 -8.0538 -32.565)" color="#000000" aria-label="E">
    <path d="m270.45 183.85v-10.499h7.5912v1.2389h-6.2018v3.2155h5.808v1.2318h-5.808v3.5736h6.4453v1.2389z"/>
   </g>
   <g transform="matrix(.26458 0 0 .26458 7.1626 -29.69)" color="#000000" aria-label="E">
    <path d="m270.45 183.85v-10.499h7.5912v1.2389h-6.2018v3.2155h5.808v1.2318h-5.808v3.5736h6.4453v1.2389z"/>
   </g>
   <g transform="matrix(.26458 0 0 .26458 -22.06 -33.11)" color="#000000" aria-label="D">
    <path d="m270.42 183.85v-10.499h3.6165q1.2246 0 1.8692 0.15039 0.90234 0.20769 1.5397 0.75196 0.83073 0.70182 1.2389 1.7975 0.41537 1.0885 0.41537 2.4922 0 1.196-0.2793 2.1198t-0.71615 1.5326q-0.43685 0.60157-0.95964 0.95248-0.51562 0.34375-1.2532 0.52279-0.73047 0.17904-1.683 0.17904zm1.3893-1.2389h2.2415q1.0384 0 1.6256-0.19336 0.5944-0.19336 0.94532-0.54427 0.49414-0.49414 0.76627-1.3249 0.2793-0.8379 0.2793-2.0267 0-1.6471-0.54427-2.528-0.53711-0.88803-1.3106-1.1888-0.5586-0.21484-1.7975-0.21484h-2.2057z"/>
   </g>
  </g>
  <g fill="none" shape-rendering="auto" stroke="#999" stroke-width=".5">
   <path d="m44.53 95.323h0.98038v0.81501h-0.9814zm3.4912 0h0.98038v0.81501h-0.9814zm-1.8336 2.7946v-1.9384h1.0323v1.8382m-0.38084-6.5687 2.9066 2.7601 2e-6 3.8754h-5.8131v-3.8754z" color="#000000" color-rendering="auto" image-rendering="auto" solid-color="#000000" style="isolation:auto;mix-blend-mode:normal"/>
   <path d="m50.978 92.617h0.98038v0.81501h-0.9814zm3.4912 0h0.98038v0.81501h-0.9814zm-1.8336 2.7946v-1.9384h1.0323v1.8382m-0.38084-6.5687 2.9066 2.7601 2e-6 3.8754h-5.8131v-3.8754z" color="#000000" color-rendering="auto" image-rendering="auto" solid-color="#000000" style="isolation:auto;mix-blend-mode:normal"/>
   <path d="m57.66 95.724h0.98038v0.81501h-0.9814zm3.4912 0h0.98038v0.81501h-0.9814zm-1.8336 2.7946v-1.9384h1.0323v1.8382m-0.38084-6.5687 2.9066 2.7601 2e-6 3.8754h-5.8131v-3.8754z" color="#000000" color-rendering="auto" image-rendering="auto" solid-color="#000000" style="isolation:auto;mix-blend-mode:normal"/>
   <path d="m94.722 27.558c-0.12971-1.5698-0.28158-3.1126-0.75595-4.5357-0.11974-0.3592-0.07687-2.7491-0.47247-2.5513-0.42588 0.21294-1.6161 2.0037-1.7954 2.3624-0.38647 0.77293-0.89446 1.5119-0.85045 1.5119 0.66288 0 6.8036 0.38258 6.8036 0.56696 0 0.18009-1.6247-1.3789-1.7954-1.6064-0.78728-1.0497-0.66315-2.4104-1.8899-3.0238m-3.0238 7.276c1.5258 0.26908 3.0825 0.18899 4.6302 0.18899 1.2899 0 2.3925 0.18899 3.6853 0.18899 0.2753 0 2.4516-0.19944 2.5513 0 0.34011 0.68021-1.3245 1.639-1.7009 1.8899-2.7479 1.8319-10.427 2.7764-9.1659-2.2679z" color="#000000" color-rendering="auto" image-rendering="auto" solid-color="#000000" style="isolation:auto;mix-blend-mode:normal"/>
  </g>
  <g transform="matrix(.26458 0 0 .26458 9.0591 -20.865)" color="#000000" fill="#999" stroke-width="1px" aria-label="Sea">
   <path d="m269.94 180.48 1.3106-0.11458q0.0931 0.78776 0.42969 1.2962 0.34375 0.50131 1.0599 0.81641 0.71615 0.30795 1.6113 0.30795 0.79492 0 1.4036-0.23633 0.60872-0.23633 0.90235-0.64454 0.30078-0.41536 0.30078-0.90234 0-0.49414-0.28646-0.85938-0.28646-0.3724-0.94532-0.62305-0.42252-0.16471-1.8691-0.50846-1.4466-0.35091-2.0267-0.65886-0.75195-0.39388-1.1244-0.97396-0.36524-0.58724-0.36524-1.3106 0-0.79492 0.45118-1.4824 0.45117-0.69467 1.3177-1.0527t1.9264-0.35807q1.1673 0 2.0553 0.37955 0.89518 0.3724 1.375 1.1029t0.51563 1.6543l-1.332 0.10026q-0.10742-0.99544-0.73047-1.5039-0.61588-0.50846-1.8262-0.50846-1.2604 0-1.8405 0.46549-0.57292 0.45834-0.57292 1.11 0 0.56576 0.4082 0.93099 0.40105 0.36524 2.0912 0.75196 1.6973 0.37956 2.3275 0.66602 0.91667 0.42252 1.3535 1.0742 0.43685 0.64453 0.43685 1.4896 0 0.8379-0.47982 1.5827-0.47981 0.73763-1.3822 1.153-0.89518 0.4082-2.0195 0.4082-1.4251 0-2.3919-0.41536-0.95964-0.41537-1.5111-1.2461-0.54427-0.83789-0.57292-1.8906z"/>
   <path d="m285.24 181.4 1.332 0.16471q-0.31511 1.1673-1.1673 1.8119-0.85222 0.64453-2.1771 0.64453-1.6686 0-2.6498-1.0241-0.97396-1.0312-0.97396-2.8861 0-1.9193 0.98829-2.9792 0.98828-1.0599 2.5638-1.0599 1.5254 0 2.4922 1.0384 0.9668 1.0384 0.9668 2.9219 0 0.11458-7e-3 0.34375h-5.6719q0.0716 1.2533 0.70898 1.9193 0.63737 0.66601 1.5898 0.66601 0.70899 0 1.2103-0.37239 0.5013-0.3724 0.79492-1.1888zm-4.2324-2.084h4.2468q-0.0859-0.95964-0.48699-1.4394-0.61588-0.7448-1.597-0.7448-0.88803 0-1.4968 0.5944-0.60157 0.59441-0.66602 1.5898z"/>
   <path d="m293.15 182.91q-0.71615 0.60873-1.3822 0.85938-0.65886 0.25065-1.418 0.25065-1.2533 0-1.9264-0.60872-0.67318-0.61589-0.67318-1.5684 0-0.55859 0.25065-1.0169 0.25782-0.46549 0.66602-0.74479 0.41536-0.2793 0.93099-0.42253 0.37956-0.10026 1.1458-0.19336 1.5612-0.1862 2.2988-0.44401 7e-3 -0.26497 7e-3 -0.33659 0-0.78776-0.36523-1.11-0.49415-0.43685-1.4681-0.43685-0.9095 0-1.3464 0.32227-0.42969 0.3151-0.63737 1.1244l-1.2604-0.17187q0.17187-0.80925 0.56575-1.3034 0.39388-0.50131 1.1387-0.76628 0.74479-0.27214 1.7259-0.27214 0.97396 0 1.5827 0.22917 0.60872 0.22917 0.89518 0.58008 0.28646 0.34375 0.40105 0.8737 0.0645 0.32943 0.0645 1.1888v1.7188q0 1.7975 0.0788 2.2774 0.0859 0.47266 0.32943 0.90951h-1.3464q-0.20053-0.40105-0.25782-0.93816zm-0.10742-2.8789q-0.70182 0.28646-2.1055 0.48698-0.79493 0.11458-1.1244 0.25781-0.32943 0.14323-0.50847 0.42253-0.17904 0.27214-0.17904 0.60872 0 0.51563 0.38672 0.85938 0.39388 0.34375 1.1458 0.34375 0.74479 0 1.3249-0.32226 0.58008-0.32943 0.85222-0.89519 0.20768-0.43685 0.20768-1.2891z"/>
  </g>
  <g transform="matrix(.26458 0 0 .26458 -27.416 36.776)" color="#000000" fill="#999" stroke-width="1px" aria-label="Land">
   <path d="m270.36 183.85v-10.499h1.3893v9.2598h5.1706v1.2389z"/>
   <path d="m283.37 182.91q-0.71615 0.60873-1.3822 0.85938-0.65885 0.25065-1.418 0.25065-1.2533 0-1.9264-0.60872-0.67318-0.61589-0.67318-1.5684 0-0.55859 0.25066-1.0169 0.25781-0.46549 0.66601-0.74479 0.41537-0.2793 0.931-0.42253 0.37955-0.10026 1.1458-0.19336 1.5612-0.1862 2.2988-0.44401 7e-3 -0.26497 7e-3 -0.33659 0-0.78776-0.36524-1.11-0.49414-0.43685-1.4681-0.43685-0.90951 0-1.3464 0.32227-0.42969 0.3151-0.63737 1.1244l-1.2604-0.17187q0.17188-0.80925 0.56576-1.3034 0.39388-0.50131 1.1387-0.76628 0.74479-0.27214 1.7259-0.27214 0.97396 0 1.5827 0.22917 0.60873 0.22917 0.89519 0.58008 0.28646 0.34375 0.40104 0.8737 0.0645 0.32943 0.0645 1.1888v1.7188q0 1.7975 0.0788 2.2774 0.0859 0.47266 0.32943 0.90951h-1.3464q-0.20052-0.40105-0.25781-0.93816zm-0.10743-2.8789q-0.70182 0.28646-2.1055 0.48698-0.79492 0.11458-1.1244 0.25781t-0.50847 0.42253q-0.17903 0.27214-0.17903 0.60872 0 0.51563 0.38672 0.85938 0.39388 0.34375 1.1458 0.34375 0.7448 0 1.3249-0.32226 0.58008-0.32943 0.85221-0.89519 0.20768-0.43685 0.20768-1.2891z"/>
   <path d="m286.57 183.85v-7.6055h1.1602v1.0814q0.8379-1.2533 2.4206-1.2533 0.6875 0 1.2604 0.25066 0.58008 0.24349 0.86654 0.64453t0.40104 0.95247q0.0716 0.35808 0.0716 1.2533v4.6764h-1.2891v-4.6263q0-0.78776-0.15039-1.1745-0.15039-0.39388-0.53711-0.62305-0.37956-0.23633-0.89518-0.23633-0.82357 0-1.4251 0.52279-0.5944 0.52279-0.5944 1.9837v4.1537z"/>
   <path d="m299.66 183.85v-0.95964q-0.72331 1.1315-2.127 1.1315-0.90951 0-1.6758-0.5013-0.75912-0.50131-1.1816-1.3965-0.41536-0.90235-0.41536-2.0697 0-1.1387 0.37956-2.0625 0.37955-0.93099 1.1387-1.4251 0.75912-0.49415 1.6973-0.49415 0.6875 0 1.2246 0.29362 0.53711 0.28646 0.8737 0.75196v-3.7669h1.2819v10.499zm-4.0749-3.7956q0 1.4609 0.61589 2.1842 0.61588 0.72331 1.4538 0.72331 0.84505 0 1.4323-0.6875 0.5944-0.69466 0.5944-2.1126 0-1.5612-0.60156-2.2917t-1.4824-0.73047q-0.85938 0-1.4395 0.70183-0.57292 0.70182-0.57292 2.2129z"/>
  </g>
 </g>
</svg>
