<?xml version="1.0" encoding="UTF-8" standalone="no"?>
<svg
   xmlns:dc="http://purl.org/dc/elements/1.1/"
   xmlns:cc="http://creativecommons.org/ns#"
   xmlns:rdf="http://www.w3.org/1999/02/22-rdf-syntax-ns#"
   xmlns:svg="http://www.w3.org/2000/svg"
   xmlns="http://www.w3.org/2000/svg"
   xmlns:xlink="http://www.w3.org/1999/xlink"
   xmlns:sodipodi="http://sodipodi.sourceforge.net/DTD/sodipodi-0.dtd"
   xmlns:inkscape="http://www.inkscape.org/namespaces/inkscape"
   width="600"
   height="300"
   version="1.1"
   viewBox="0 0 600 300"
   id="svg127"
   sodipodi:docname="coral-freq.svg"
   inkscape:version="1.0.1 (3bc2e813f5, 2020-09-07)">
  <metadata
     id="metadata133">
    <rdf:RDF>
      <cc:Work
         rdf:about="">
        <dc:format>image/svg+xml</dc:format>
        <dc:type
           rdf:resource="http://purl.org/dc/dcmitype/StillImage" />
        <dc:title></dc:title>
      </cc:Work>
    </rdf:RDF>
  </metadata>
  <defs
     id="defs131">
    <rect
       x="490.52442"
       y="267.01934"
       width="79.116843"
       height="38.569461"
       id="rect78" />
    <rect
       x="172.72727"
       y="-91.608392"
       width="139.86014"
       height="93.706294"
       id="rect70" />
  </defs>
  <sodipodi:namedview
     pagecolor="#ffffff"
     bordercolor="#666666"
     borderopacity="1"
     objecttolerance="10"
     gridtolerance="10"
     guidetolerance="10"
     inkscape:pageopacity="0"
     inkscape:pageshadow="2"
     inkscape:window-width="1037"
     inkscape:window-height="1260"
     id="namedview129"
     showgrid="false"
     inkscape:zoom="2.86"
     inkscape:cx="317.41907"
     inkscape:cy="148.17478"
     inkscape:window-x="0"
     inkscape:window-y="0"
     inkscape:window-maximized="0"
     inkscape:current-layer="svg127"
     inkscape:document-rotation="0">
    <inkscape:grid
       type="xygrid"
       id="grid74" />
  </sodipodi:namedview>
  <path
     id="a"
     d="m80 50v200h200"
     color="#000000"
     fill="none"
     opacity=".5"
     stop-color="#000000"
     stroke="#000"
     stroke-linecap="round"
     stroke-linejoin="round"
     stroke-miterlimit="10"
     stroke-width="5" />
  <use
     transform="translate(280)"
     width="100%"
     height="100%"
     xlink:href="#a"
     id="use3" />
  <g
     transform="translate(-10,-38.683)"
     color="#000000"
     style="white-space:pre;shape-inside:url(#rect1487);fill:#333333;stroke-width:1px"
     aria-label="Size"
     id="g13">
    <path
       d="m 170.21,313.78 1.9062,-0.16667 q 0.13542,1.1458 0.625,1.8854 0.5,0.72916 1.5417,1.1875 1.0417,0.44791 2.3438,0.44791 1.1562,0 2.0417,-0.34375 0.88542,-0.34375 1.3125,-0.9375 0.4375,-0.60416 0.4375,-1.3125 0,-0.71875 -0.41666,-1.25 -0.41667,-0.54167 -1.375,-0.90625 -0.61458,-0.23958 -2.7188,-0.73958 -2.1042,-0.51042 -2.9479,-0.95834 -1.0938,-0.57291 -1.6354,-1.4167 -0.53125,-0.85417 -0.53125,-1.9062 0,-1.1562 0.65625,-2.1562 0.65624,-1.0104 1.9167,-1.5312 1.2604,-0.52083 2.8021,-0.52083 1.6979,0 2.9896,0.55208 1.3021,0.54166 2,1.6042 0.69792,1.0625 0.75,2.4062 l -1.9375,0.14583 q -0.15625,-1.4479 -1.0625,-2.1875 -0.89583,-0.73959 -2.6562,-0.73959 -1.8333,0 -2.6771,0.67709 -0.83333,0.66666 -0.83333,1.6146 0,0.82291 0.59375,1.3542 0.58333,0.53125 3.0417,1.0938 2.4688,0.55208 3.3854,0.96875 1.3333,0.61458 1.9688,1.5625 0.63542,0.93749 0.63542,2.1667 0,1.2188 -0.69792,2.3021 -0.69792,1.0729 -2.0104,1.6771 -1.3021,0.59375 -2.9375,0.59375 -2.0729,0 -3.4792,-0.60417 -1.3958,-0.60416 -2.1979,-1.8125 -0.79167,-1.2188 -0.83334,-2.75 z"
       id="path5" />
    <path
       d="m 184.9,305.57 v -2.1562 h 1.875 v 2.1562 z m 0,13.115 v -11.062 h 1.875 v 11.062 z"
       id="path7" />
    <path
       d="m 188.64,318.68 v -1.5208 l 7.0416,-8.0833 q -1.1979,0.0625 -2.1146,0.0625 h -4.5104 v -1.5208 h 9.0417 v 1.2396 l -5.9896,7.0208 -1.1562,1.2812 q 1.2604,-0.0937 2.3646,-0.0937 h 5.1146 v 1.6146 z"
       id="path9" />
    <path
       d="m 207.86,315.12 1.9375,0.23958 q -0.45833,1.6979 -1.6979,2.6354 -1.23957,0.9375 -3.1667,0.9375 -2.4271,0 -3.8542,-1.4896 -1.4167,-1.5 -1.4167,-4.1979 0,-2.7917 1.4375,-4.3333 1.4375,-1.5417 3.7292,-1.5417 2.2188,0 3.625,1.5104 1.4062,1.5104 1.4062,4.25 0,0.16666 -0.0104,0.5 h -8.25 q 0.10417,1.8229 1.0312,2.7917 0.92703,0.9688 2.3125,0.96875 1.0312,0 1.7604,-0.54167 0.72916,-0.54166 1.1562,-1.7292 z m -6.1562,-3.0312 h 6.1771 q -0.125,-1.3958 -0.70833,-2.0937 -0.89584,-1.0833 -2.3229,-1.0833 -1.2917,0 -2.1771,0.86459 -0.87499,0.86458 -0.96874,2.3125 z"
       id="path11" />
  </g>
  <g
     transform="rotate(-90,40.659,299.34)"
     color="#000000"
     style="white-space:pre;shape-inside:url(#rect1495);fill:#333333;stroke-width:1px"
     aria-label="Frequency"
     id="g33">
    <path
       d="m 141.35,318.68 v -15.271 h 10.302 v 1.8021 h -8.2812 v 4.7292 h 7.1667 v 1.8021 h -7.1667 v 6.9375 z"
       id="path15" />
    <path
       d="m 154.02,318.68 v -11.062 h 1.6875 v 1.6771 q 0.64583,-1.1771 1.1875,-1.5521 0.55208,-0.375 1.2083,-0.375 0.94791,0 1.9271,0.60417 l -0.64584,1.7396 q -0.68749,-0.40625 -1.375,-0.40625 -0.61459,0 -1.1042,0.375 -0.48958,0.36458 -0.69791,1.0208 -0.3125,1 -0.3125,2.1875 v 5.7917 z"
       id="path17" />
    <path
       d="m 168.72,315.12 1.9375,0.23958 q -0.45833,1.6979 -1.6979,2.6354 -1.2396,0.9375 -3.1667,0.9375 -2.4271,0 -3.8542,-1.4896 -1.4167,-1.5 -1.4167,-4.1979 0,-2.7917 1.4375,-4.3333 1.4375,-1.5417 3.7292,-1.5417 2.2187,0 3.625,1.5104 1.4062,1.5104 1.4062,4.25 0,0.16666 -0.0104,0.5 h -8.25 q 0.10416,1.8229 1.0312,2.7917 0.92709,0.96875 2.3125,0.96875 1.0312,0 1.7604,-0.54167 0.72917,-0.54166 1.1562,-1.7292 z m -6.1562,-3.0312 h 6.1771 q -0.125,-1.3958 -0.70834,-2.0937 -0.89583,-1.0833 -2.3229,-1.0833 -1.2917,0 -2.1771,0.86459 -0.875,0.86458 -0.96875,2.3125 z"
       id="path19" />
    <path
       d="m 180.06,322.92 v -5.4167 q -0.4375,0.61458 -1.2292,1.0208 -0.78125,0.40625 -1.6667,0.40625 -1.9688,0 -3.3958,-1.5729 -1.4167,-1.5729 -1.4167,-4.3125 0,-1.6667 0.57291,-2.9896 0.58333,-1.3229 1.6771,-2 1.1042,-0.6875 2.4167,-0.6875 2.0521,0 3.2292,1.7292 v -1.4792 h 1.6875 v 15.302 z m -5.7812,-9.8021 q 0,2.1354 0.89583,3.2083 0.89583,1.0625 2.1458,1.0625 1.1979,0 2.0625,-1.0104 0.86459,-1.0208 0.86459,-3.0937 0,-2.2083 -0.91667,-3.3229 -0.90625,-1.1146 -2.1354,-1.1146 -1.2188,0 -2.0729,1.0417 -0.84374,1.0312 -0.84374,3.2292 z"
       id="path21" />
    <path
       d="m 192.12,318.68 v -1.625 q -1.2917,1.875 -3.5104,1.875 -0.97916,0 -1.8333,-0.375 -0.84374,-0.375 -1.2604,-0.9375 -0.40625,-0.57291 -0.57292,-1.3958 -0.11458,-0.55208 -0.11458,-1.75 v -6.8542 h 1.875 v 6.1354 q 0,1.4687 0.11458,1.9792 0.17708,0.73958 0.75,1.1667 0.57292,0.41667 1.4167,0.41667 0.84375,0 1.5833,-0.42708 0.73958,-0.4375 1.0417,-1.1771 0.3125,-0.75 0.3125,-2.1667 v -5.9271 h 1.875 v 11.062 z"
       id="path23" />
    <path
       d="m 204.31,315.12 1.9375,0.23958 q -0.45834,1.6979 -1.6979,2.6354 -1.23956,0.9375 -3.1667,0.9375 -2.4271,0 -3.8542,-1.4896 -1.4167,-1.5 -1.4167,-4.1979 0,-2.7917 1.4375,-4.3333 1.4375,-1.5417 3.7292,-1.5417 2.2188,0 3.625,1.5104 1.4062,1.5104 1.4062,4.25 0,0.16666 -0.0104,0.5 h -8.25 q 0.10417,1.8229 1.0312,2.7917 0.92703,0.9688 2.3125,0.96875 1.0312,0 1.7604,-0.54167 0.72917,-0.54166 1.1562,-1.7292 z m -6.1562,-3.0312 h 6.1771 q -0.125,-1.3958 -0.70833,-2.0937 -0.89583,-1.0833 -2.3229,-1.0833 -1.2917,0 -2.1771,0.86459 -0.875,0.86458 -0.96875,2.3125 z"
       id="path25" />
    <path
       d="m 208.6,318.68 v -11.062 h 1.6875 v 1.5729 q 1.2188,-1.8229 3.5208,-1.8229 1,0 1.8333,0.36458 0.84375,0.35417 1.2604,0.9375 0.41666,0.58333 0.58333,1.3854 0.10417,0.52083 0.10417,1.8229 v 6.8021 h -1.875 v -6.7292 q 0,-1.1458 -0.21875,-1.7083 -0.21875,-0.57292 -0.78125,-0.90625 -0.55208,-0.34375 -1.3021,-0.34375 -1.1979,0 -2.0729,0.76041 -0.86459,0.76042 -0.86459,2.8854 v 6.0417 z"
       id="path27" />
    <path
       d="m 227.69,314.63 1.8438,0.23958 q -0.30209,1.9062 -1.5521,2.9896 -1.2396,1.0729 -3.0521,1.0729 -2.2708,0 -3.6562,-1.4792 -1.375,-1.4896 -1.375,-4.2604 0,-1.7917 0.59375,-3.1354 0.59375,-1.3438 1.8021,-2.0104 1.2188,-0.67708 2.6458,-0.67708 1.8021,0 2.9479,0.91667 1.1458,0.90624 1.4687,2.5833 l -1.8229,0.28125 q -0.26042,-1.1146 -0.92708,-1.6771 -0.65625,-0.5625 -1.5938,-0.5625 -1.4167,0 -2.3021,1.0208 -0.88542,1.0104 -0.88542,3.2083 0,2.2292 0.85417,3.2396 0.85417,1.0104 2.2292,1.0104 1.1042,0 1.8438,-0.67708 0.73958,-0.67709 0.9375,-2.0833 z"
       id="path29" />
    <path
       d="m 231.05,322.94 -0.20833,-1.7604 q 0.61458,0.16666 1.0729,0.16666 0.62499,0 0.99999,-0.20833 0.375,-0.20833 0.61459,-0.58333 0.17708,-0.28125 0.57291,-1.3958 0.0521,-0.15625 0.16667,-0.45833 l -4.1979,-11.083 h 2.0208 l 2.3021,6.4062 q 0.44791,1.2188 0.80208,2.5625 0.32292,-1.2917 0.77083,-2.5208 l 2.3646,-6.4479 h 1.875 l -4.2083,11.25 q -0.67708,1.8229 -1.0521,2.5104 -0.5,0.92709 -1.1458,1.3542 -0.64583,0.4375 -1.5417,0.4375 -0.54166,0 -1.2083,-0.22917 z"
       id="path31" />
  </g>
  <g
     transform="translate(270,-38.683)"
     color="#000000"
     style="white-space:pre;shape-inside:url(#rect1515);fill:#333333;stroke-width:1px"
     aria-label="Size"
     id="g73">
    <path
       d="m 170.21,313.78 1.9062,-0.16667 q 0.13542,1.1458 0.625,1.8854 0.5,0.72916 1.5417,1.1875 1.0417,0.44791 2.3438,0.44791 1.1562,0 2.0417,-0.34375 0.88542,-0.34375 1.3125,-0.9375 0.4375,-0.60416 0.4375,-1.3125 0,-0.71875 -0.41666,-1.25 -0.41667,-0.54167 -1.375,-0.90625 -0.61458,-0.23958 -2.7188,-0.73958 -2.1042,-0.51042 -2.9479,-0.95834 -1.0938,-0.57291 -1.6354,-1.4167 -0.53125,-0.85417 -0.53125,-1.9062 0,-1.1562 0.65625,-2.1562 0.65624,-1.0104 1.9167,-1.5312 1.2604,-0.52083 2.8021,-0.52083 1.6979,0 2.9896,0.55208 1.3021,0.54166 2,1.6042 0.69792,1.0625 0.75,2.4062 l -1.9375,0.14583 q -0.15625,-1.4479 -1.0625,-2.1875 -0.89583,-0.73959 -2.6562,-0.73959 -1.8333,0 -2.6771,0.67709 -0.83333,0.66666 -0.83333,1.6146 0,0.82291 0.59375,1.3542 0.58333,0.53125 3.0417,1.0938 2.4688,0.55208 3.3854,0.96875 1.3333,0.61458 1.9688,1.5625 0.63542,0.93749 0.63542,2.1667 0,1.2188 -0.69792,2.3021 -0.69792,1.0729 -2.0104,1.6771 -1.3021,0.59375 -2.9375,0.59375 -2.0729,0 -3.4792,-0.60417 -1.3958,-0.60416 -2.1979,-1.8125 -0.79167,-1.2188 -0.83334,-2.75 z"
       id="path65" />
    <path
       d="m 184.9,305.57 v -2.1562 h 1.875 v 2.1562 z m 0,13.115 v -11.062 h 1.875 v 11.062 z"
       id="path67" />
    <path
       d="m 188.64,318.68 v -1.5208 l 7.0416,-8.0833 q -1.1979,0.0625 -2.1146,0.0625 h -4.5104 v -1.5208 h 9.0417 v 1.2396 l -5.9896,7.0208 -1.1562,1.2812 q 1.2604,-0.0937 2.3646,-0.0937 h 5.1146 v 1.6146 z"
       id="path69" />
    <path
       d="m 207.86,315.12 1.9375,0.23958 q -0.45833,1.6979 -1.6979,2.6354 -1.23957,0.9375 -3.1667,0.9375 -2.4271,0 -3.8542,-1.4896 -1.4167,-1.5 -1.4167,-4.1979 0,-2.7917 1.4375,-4.3333 1.4375,-1.5417 3.7292,-1.5417 2.2188,0 3.625,1.5104 1.4062,1.5104 1.4062,4.25 0,0.16666 -0.0104,0.5 h -8.25 q 0.10417,1.8229 1.0312,2.7917 0.92703,0.9688 2.3125,0.96875 1.0312,0 1.7604,-0.54167 0.72916,-0.54166 1.1562,-1.7292 z m -6.1562,-3.0312 h 6.1771 q -0.125,-1.3958 -0.70833,-2.0937 -0.89584,-1.0833 -2.3229,-1.0833 -1.2917,0 -2.1771,0.86459 -0.87499,0.86458 -0.96874,2.3125 z"
       id="path71" />
  </g>
  <text
     xml:space="preserve"
     id="text68"
     style="color:#000000;font-size:9.33333px;line-height:1.2em;font-family:Arial;-inkscape-font-specification:'Arial, Normal';letter-spacing:0px;word-spacing:0px;writing-mode:lr-tb;white-space:pre;shape-inside:url(#rect70);overflow:visible;fill:#000000;stroke:none;stroke-width:0.460196px;stroke-linecap:butt;stroke-linejoin:miter;stroke-opacity:1;"
     transform="matrix(0,-2.1729872,2.1729872,0,519.79489,604.39589)"><tspan
       x="172.72656"
       y="-83.433716"><tspan
         style="stroke:none;stroke-width:0.229132px">Log(Survivorship)</tspan></tspan></text>
  <text
     xml:space="preserve"
     id="text76"
     style="color:#000000;font-size:9.33333px;line-height:1.2em;font-family:Arial;-inkscape-font-specification:'Arial, Normal';letter-spacing:0px;word-spacing:0px;writing-mode:lr-tb;white-space:pre;shape-inside:url(#rect78);overflow:visible;fill:#000000;stroke:#000000;stroke-width:0.706306px;stroke-linecap:butt;stroke-linejoin:miter;stroke-opacity:1;"
     transform="matrix(1.4020825,0,0,1.4296863,-197.45812,-115.32707)"><tspan
       x="490.52344"
       y="275.19324"><tspan
         style="stroke:none;stroke-width:0.706306px">= age</tspan></tspan></text>
</svg>
