<?xml version="1.0" encoding="UTF-8"?>
<svg width="600" height="60" version="1.1" viewBox="0 0 158.75 15.875" xmlns="http://www.w3.org/2000/svg" xmlns:xlink="http://www.w3.org/1999/xlink"><defs><linearGradient id="b" x1="84.302" x2="162.69" y1="93.894" y2="93.894" gradientUnits="userSpaceOnUse"><stop stop-color="#440154" offset="0"/><stop stop-color="#21908c" offset=".51273"/><stop stop-color="#fde725" offset="1"/></linearGradient></defs><g transform="translate(-27.389 -90.421)"><rect id="a" x="84.302" y="91.414" width="78.383" height="4.9609" color="#000000" fill="url(#b)" fill-rule="evenodd" opacity=".8" stop-color="#000000"/><use transform="translate(-3.8006e-8 8.9297)" width="100%" height="100%" fill="#ffffff" stroke-width="1.3333" xlink:href="#a"/><g><g transform="matrix(.75 0 0 .75 -5.327 24.561)" color="#000000" style="shape-inside:url(#rect12);white-space:pre" aria-label="Species richness:  Dominance:"><path d="m46.206 93.26 0.44132-0.03858q0.03135 0.26527 0.14469 0.43649 0.11576 0.16881 0.35691 0.27492 0.24116 0.1037 0.5426 0.1037 0.26768 0 0.47267-0.07958 0.20498-0.07958 0.30386-0.21704 0.10129-0.13987 0.10129-0.30386 0-0.1664-0.09646-0.28939-0.09646-0.1254-0.31833-0.20981-0.14228-0.05547-0.62942-0.17122-0.48714-0.11817-0.68247-0.22186-0.25322-0.13264-0.37862-0.32797-0.12299-0.19775-0.12299-0.44132 0-0.26768 0.15193-0.4992 0.15193-0.23392 0.44373-0.3545 0.2918-0.12058 0.64871-0.12058 0.39308 0 0.69212 0.12781 0.30145 0.1254 0.46302 0.37138t0.17363 0.55707l-0.44855 0.03376q-0.03617-0.33521-0.24598-0.50643-0.2074-0.17122-0.61495-0.17122-0.42444 0-0.61977 0.15675-0.19292 0.15434-0.19292 0.37379 0 0.19051 0.13746 0.3135 0.13505 0.12299 0.70418 0.25322 0.57154 0.12781 0.78376 0.22428 0.30868 0.14228 0.45579 0.36174 0.14711 0.21704 0.14711 0.50161 0 0.28215-0.16158 0.53296-0.16158 0.24839-0.46543 0.38826-0.30145 0.13746-0.68006 0.13746-0.4799 0-0.80546-0.13987-0.32315-0.13987-0.50884-0.41961-0.18328-0.28215-0.19292-0.63665z"/><path d="m49.604 95.377v-3.5426h0.3955v0.3328q0.13987-0.19534 0.31592-0.2918 0.17604-0.09887 0.42685-0.09887 0.32797 0 0.57878 0.16881t0.37862 0.47749q0.12781 0.30627 0.12781 0.67283 0 0.39308-0.14228 0.709-0.13987 0.3135-0.40997 0.48231-0.26768 0.1664-0.56431 0.1664-0.21704 0-0.39067-0.09164-0.17122-0.09164-0.28215-0.23151v1.2468zm0.39308-2.2476q0 0.49437 0.20016 0.7307 0.20016 0.23633 0.48472 0.23633 0.28939 0 0.49437-0.24357 0.2074-0.24598 0.2074-0.75964 0-0.48955-0.20257-0.73312-0.20016-0.24357-0.4799-0.24357-0.27733 0-0.49196 0.26045-0.21222 0.25804-0.21222 0.75241z"/><path d="m54.104 93.571 0.44855 0.05547q-0.10611 0.39309-0.39309 0.61013-0.28698 0.21704-0.73312 0.21704-0.5619 0-0.89228-0.34485-0.32797-0.34727-0.32797-0.97186 0-0.6463 0.3328-1.0032t0.86334-0.35691q0.51366 0 0.83923 0.34968 0.32556 0.34968 0.32556 0.98392 0 0.03858-0.0024 0.11576h-1.91q0.02412 0.42202 0.23875 0.6463 0.21463 0.22428 0.53537 0.22428 0.23874 0 0.40755-0.1254 0.16881-0.1254 0.26768-0.40032zm-1.4252-0.70177h1.4301q-0.02894-0.32315-0.16399-0.48472-0.2074-0.2508-0.53778-0.2508-0.29903 0-0.50402 0.20016-0.20257 0.20016-0.22428 0.53537z"/><path d="m56.768 93.457 0.42685 0.05547q-0.06993 0.44132-0.35932 0.69212-0.28698 0.24839-0.70659 0.24839-0.52572 0-0.84646-0.34244-0.31833-0.34485-0.31833-0.98633 0-0.41479 0.13746-0.72588 0.13746-0.31109 0.4172-0.46543 0.28215-0.15675 0.61254-0.15675 0.4172 0 0.68247 0.21222 0.26527 0.20981 0.34003 0.59807l-0.42202 0.06511q-0.06029-0.25804-0.21463-0.38826-0.15193-0.13022-0.36897-0.13022-0.32797 0-0.53296 0.23633-0.20498 0.23392-0.20498 0.74276 0 0.51608 0.19775 0.75 0.19775 0.23392 0.51608 0.23392 0.25563 0 0.42685-0.15675 0.17122-0.15675 0.21704-0.48231z"/><path d="m57.569 91.359v-0.49919h0.43408v0.49919zm0 3.0362v-2.5611h0.43408v2.5611z"/><path d="m60.417 93.571 0.44855 0.05547q-0.10611 0.39309-0.39308 0.61013-0.28698 0.21704-0.73312 0.21704-0.5619 0-0.89228-0.34485-0.32797-0.34727-0.32797-0.97186 0-0.6463 0.3328-1.0032 0.3328-0.35691 0.86334-0.35691 0.51366 0 0.83922 0.34968 0.32556 0.34968 0.32556 0.98392 0 0.03858-0.0024 0.11576h-1.91q0.02412 0.42202 0.23874 0.6463 0.21463 0.22428 0.53537 0.22428 0.23874 0 0.40756-0.1254 0.16881-0.1254 0.26768-0.40032zm-1.4252-0.70177h1.4301q-0.02894-0.32315-0.16399-0.48472-0.2074-0.2508-0.53778-0.2508-0.29904 0-0.50402 0.20016-0.20257 0.20016-0.22428 0.53537z"/><path d="m61.237 93.631 0.42926-0.06752q0.03617 0.25804 0.20016 0.3955 0.1664 0.13746 0.46302 0.13746 0.29903 0 0.44373-0.12058 0.14469-0.12299 0.14469-0.28698 0-0.1471-0.12781-0.23151-0.08923-0.05788-0.44373-0.14711-0.47749-0.12058-0.66318-0.2074-0.18328-0.08923-0.27974-0.24357-0.09405-0.15675-0.09405-0.34485 0-0.17122 0.07717-0.31592 0.07958-0.1471 0.21463-0.24357 0.10128-0.07476 0.27492-0.1254 0.17604-0.05306 0.3762-0.05306 0.30145 0 0.52813 0.08682 0.2291 0.08682 0.33762 0.23633 0.10852 0.14711 0.14952 0.3955l-0.42444 0.05788q-0.02894-0.19775-0.16881-0.30868-0.13746-0.11093-0.39067-0.11093-0.29903 0-0.42685 0.09887t-0.12781 0.23151q0 0.0844 0.05305 0.15193 0.05306 0.06994 0.1664 0.11576 0.06511 0.02412 0.38344 0.11093 0.46061 0.12299 0.64148 0.20257 0.18328 0.07717 0.28698 0.22669t0.1037 0.37138q0 0.21704-0.12781 0.40997-0.1254 0.19051-0.36415 0.29662-0.23875 0.1037-0.54019 0.1037-0.4992 0-0.76206-0.2074-0.26045-0.2074-0.3328-0.61495z"/><path d="m65.247 94.396v-2.5611h0.39067v0.38826q0.14952-0.27251 0.27492-0.35932 0.12781-0.08682 0.27974-0.08682 0.21945 0 0.44614 0.13987l-0.14952 0.40273q-0.15916-0.09405-0.31833-0.09405-0.14228 0-0.25563 0.08682-0.11334 0.08441-0.16158 0.23633-0.07235 0.23151-0.07235 0.50643v1.3408z"/><path d="m66.899 91.359v-0.49919h0.43408v0.49919zm0 3.0362v-2.5611h0.43408v2.5611z"/><path d="m69.665 93.457 0.42685 0.05547q-0.06994 0.44132-0.35932 0.69212-0.28698 0.24839-0.70659 0.24839-0.52572 0-0.84646-0.34244-0.31833-0.34485-0.31833-0.98633 0-0.41479 0.13746-0.72588 0.13746-0.31109 0.4172-0.46543 0.28215-0.15675 0.61254-0.15675 0.4172 0 0.68247 0.21222 0.26527 0.20981 0.34003 0.59807l-0.42202 0.06511q-0.06029-0.25804-0.21463-0.38826-0.15193-0.13022-0.36897-0.13022-0.32797 0-0.53296 0.23633-0.20498 0.23392-0.20498 0.74276 0 0.51608 0.19775 0.75 0.19775 0.23392 0.51608 0.23392 0.25563 0 0.42685-0.15675t0.21704-0.48231z"/><path d="m70.464 94.396v-3.5354h0.43408v1.2685q0.30386-0.35209 0.76688-0.35209 0.28456 0 0.49437 0.11334 0.20981 0.11093 0.29903 0.30868 0.09164 0.19775 0.09164 0.57395v1.623h-0.43408v-1.623q0-0.32556-0.14228-0.47267-0.13987-0.14952-0.39791-0.14952-0.19293 0-0.36415 0.10129-0.16881 0.09887-0.24116 0.2701-0.07235 0.17122-0.07235 0.47267v1.4011z"/><path d="m73.21 94.396v-2.5611h0.39067v0.36415q0.28215-0.42202 0.81511-0.42202 0.23151 0 0.42444 0.0844 0.19534 0.08199 0.2918 0.21704 0.09646 0.13505 0.13505 0.32074 0.02411 0.12058 0.02411 0.42202v1.5748h-0.43408v-1.5579q0-0.26527-0.05064-0.3955-0.05064-0.13264-0.18087-0.20981-0.12781-0.07958-0.30145-0.07958-0.27733 0-0.4799 0.17604-0.20016 0.17604-0.20016 0.668v1.3987z"/><path d="m77.71 93.571 0.44855 0.05547q-0.10611 0.39309-0.39308 0.61013t-0.73312 0.21704q-0.5619 0-0.89228-0.34485-0.32797-0.34727-0.32797-0.97186 0-0.6463 0.3328-1.0032 0.3328-0.35691 0.86334-0.35691 0.51366 0 0.83922 0.34968 0.32556 0.34968 0.32556 0.98392 0 0.03858-0.0024 0.11576h-1.91q0.02412 0.42202 0.23874 0.6463 0.21463 0.22428 0.53537 0.22428 0.23874 0 0.40756-0.1254 0.16881-0.1254 0.26768-0.40032zm-1.4252-0.70177h1.4301q-0.02894-0.32315-0.16399-0.48472-0.20739-0.2508-0.53778-0.2508-0.29903 0-0.50402 0.20016-0.20257 0.20016-0.22428 0.53537z"/><path d="m78.53 93.631 0.42926-0.06752q0.03617 0.25804 0.20016 0.3955 0.1664 0.13746 0.46302 0.13746 0.29904 0 0.44373-0.12058 0.14469-0.12299 0.14469-0.28698 0-0.1471-0.12781-0.23151-0.08923-0.05788-0.44373-0.14711-0.47749-0.12058-0.66318-0.2074-0.18328-0.08923-0.27974-0.24357-0.09405-0.15675-0.09405-0.34485 0-0.17122 0.07717-0.31592 0.07958-0.1471 0.21463-0.24357 0.10129-0.07476 0.27492-0.1254 0.17604-0.05306 0.3762-0.05306 0.30145 0 0.52813 0.08682 0.2291 0.08682 0.33762 0.23633 0.10852 0.14711 0.14952 0.3955l-0.42444 0.05788q-0.02894-0.19775-0.16881-0.30868-0.13746-0.11093-0.39067-0.11093-0.29903 0-0.42685 0.09887t-0.12781 0.23151q0 0.0844 0.05305 0.15193 0.05306 0.06994 0.1664 0.11576 0.06511 0.02412 0.38344 0.11093 0.46061 0.12299 0.64148 0.20257 0.18328 0.07717 0.28698 0.22669 0.1037 0.14952 0.1037 0.37138 0 0.21704-0.12781 0.40997-0.1254 0.19051-0.36415 0.29662-0.23874 0.1037-0.54019 0.1037-0.4992 0-0.76206-0.2074-0.26045-0.2074-0.3328-0.61495z"/><path d="m81 93.631 0.42926-0.06752q0.03617 0.25804 0.20016 0.3955 0.1664 0.13746 0.46302 0.13746 0.29904 0 0.44373-0.12058 0.14469-0.12299 0.14469-0.28698 0-0.1471-0.12781-0.23151-0.08923-0.05788-0.44373-0.14711-0.47749-0.12058-0.66318-0.2074-0.18328-0.08923-0.27974-0.24357-0.09405-0.15675-0.09405-0.34485 0-0.17122 0.07717-0.31592 0.07958-0.1471 0.21463-0.24357 0.10129-0.07476 0.27492-0.1254 0.17604-0.05306 0.3762-0.05306 0.30145 0 0.52813 0.08682 0.2291 0.08682 0.33762 0.23633 0.10852 0.14711 0.14952 0.3955l-0.42444 0.05788q-0.02894-0.19775-0.16881-0.30868-0.13746-0.11093-0.39067-0.11093-0.29904 0-0.42685 0.09887t-0.12781 0.23151q0 0.0844 0.05306 0.15193 0.05305 0.06994 0.1664 0.11576 0.06511 0.02412 0.38344 0.11093 0.46061 0.12299 0.64148 0.20257 0.18328 0.07717 0.28698 0.22669 0.1037 0.14952 0.1037 0.37138 0 0.21704-0.12781 0.40997-0.1254 0.19051-0.36415 0.29662-0.23874 0.1037-0.54019 0.1037-0.49919 0-0.76206-0.2074-0.26045-0.2074-0.3328-0.61495z"/><path d="m83.763 92.329v-0.49437h0.49437v0.49437zm0 2.0667v-0.49437h0.49437v0.49437z"/><path d="m58.717 106.25v-3.5354h1.2178q0.41238 0 0.62942 0.0507 0.30386 0.0699 0.51849 0.25321 0.27974 0.23633 0.4172 0.6053 0.13987 0.36656 0.13987 0.83923 0 0.40273-0.09405 0.71382t-0.24116 0.51608q-0.1471 0.20257-0.32315 0.32074-0.17363 0.11575-0.42202 0.17604-0.24598 0.0603-0.56672 0.0603zm0.46784-0.4172h0.75482q0.34968 0 0.54743-0.0651 0.20016-0.0651 0.31833-0.18328 0.1664-0.1664 0.25804-0.44614 0.09405-0.28216 0.09405-0.68248 0-0.55466-0.18328-0.85128-0.18087-0.29903-0.44132-0.40032-0.1881-0.0724-0.6053-0.0724h-0.74276z"/><path d="m62.067 104.97q0-0.71141 0.3955-1.0539 0.33038-0.28456 0.80546-0.28456 0.52813 0 0.86334 0.34726 0.33521 0.34486 0.33521 0.95498 0 0.49438-0.14952 0.77894-0.14711 0.28215-0.43167 0.43891-0.28215 0.15675-0.61736 0.15675-0.53778 0-0.87058-0.34486-0.33038-0.34485-0.33038-0.99356zm0.44614 0q0 0.49196 0.21463 0.73794 0.21463 0.24357 0.54019 0.24357 0.32315 0 0.53778-0.24598 0.21463-0.24598 0.21463-0.75 0-0.47508-0.21704-0.71865-0.21463-0.24598-0.53537-0.24598-0.32556 0-0.54019 0.24357t-0.21463 0.73553z"/><path d="m64.975 106.25v-2.5611h0.38826v0.35932q0.12058-0.1881 0.32074-0.30145 0.20016-0.11575 0.45579-0.11575 0.28456 0 0.46543 0.11816 0.18328 0.11817 0.25804 0.33039 0.30386-0.44855 0.79099-0.44855 0.38103 0 0.58601 0.21222 0.20498 0.2098 0.20498 0.64871v1.758h-0.43167v-1.6133q0-0.26045-0.04341-0.37379-0.041-0.11576-0.15193-0.18569-0.11093-0.0699-0.26045-0.0699-0.2701 0-0.44855 0.18087-0.17846 0.17846-0.17846 0.57395v1.4879h-0.43408v-1.664q0-0.28939-0.10611-0.43408-0.10611-0.1447-0.34727-0.1447-0.18328 0-0.34003 0.0965-0.15434 0.0965-0.22428 0.28216-0.06994 0.18569-0.06994 0.53537v1.3288z"/><path d="m69.091 103.21v-0.4992h0.43408v0.4992zm0 3.0362v-2.5611h0.43408v2.5611z"/><path d="m70.186 106.25v-2.5611h0.39067v0.36414q0.28215-0.42202 0.81511-0.42202 0.23151 0 0.42444 0.0844 0.19534 0.082 0.2918 0.21704 0.09646 0.13505 0.13505 0.32074 0.02412 0.12058 0.02412 0.42203v1.5748h-0.43408v-1.5579q0-0.26528-0.05064-0.3955-0.05064-0.13264-0.18087-0.20981-0.12781-0.0796-0.30145-0.0796-0.27733 0-0.4799 0.17605-0.20016 0.17604-0.20016 0.668v1.3987z"/><path d="m74.604 105.93q-0.24116 0.20499-0.46543 0.28939-0.22186 0.0844-0.47749 0.0844-0.42202 0-0.64871-0.20499-0.22669-0.20739-0.22669-0.52813 0-0.1881 0.08441-0.34244 0.08682-0.15675 0.22428-0.2508 0.13987-0.0941 0.3135-0.14229 0.12781-0.0338 0.38585-0.0651 0.52572-0.0627 0.77411-0.14952 0.0024-0.0892 0.0024-0.11334 0-0.26527-0.12299-0.37379-0.1664-0.14711-0.49437-0.14711-0.30627 0-0.45338 0.10852-0.14469 0.10611-0.21463 0.37862l-0.42444-0.0579q0.05788-0.27251 0.19051-0.43891 0.13264-0.1688 0.38344-0.25803 0.2508-0.0916 0.58119-0.0916 0.32797 0 0.53296 0.0772 0.20498 0.0772 0.30145 0.19533 0.09646 0.11576 0.13505 0.29422 0.0217 0.11093 0.0217 0.40032v0.57877q0 0.60531 0.02653 0.76688 0.02894 0.15916 0.11093 0.30627h-0.45338q-0.06752-0.13505-0.08682-0.31592zm-0.03617-0.96945q-0.23633 0.0965-0.709 0.16399-0.26768 0.0386-0.37862 0.0868t-0.17122 0.14228q-0.06029 0.0916-0.06029 0.20498 0 0.17364 0.13022 0.28939 0.13264 0.11576 0.38585 0.11576 0.2508 0 0.44614-0.10852 0.19534-0.11094 0.28698-0.30145 0.06994-0.14711 0.06994-0.43408z"/><path d="m75.68 106.25v-2.5611h0.39067v0.36414q0.28215-0.42202 0.81511-0.42202 0.23151 0 0.42444 0.0844 0.19534 0.082 0.2918 0.21704 0.09646 0.13505 0.13505 0.32074 0.02412 0.12058 0.02412 0.42203v1.5748h-0.43408v-1.5579q0-0.26528-0.05064-0.3955-0.05064-0.13264-0.18087-0.20981-0.12781-0.0796-0.30145-0.0796-0.27733 0-0.4799 0.17605-0.20016 0.17604-0.20016 0.668v1.3987z"/><path d="m80.098 105.31 0.42685 0.0555q-0.06994 0.44131-0.35932 0.69212-0.28698 0.24839-0.70659 0.24839-0.52572 0-0.84646-0.34245-0.31833-0.34485-0.31833-0.98633 0-0.41479 0.13746-0.72588t0.4172-0.46543q0.28215-0.15675 0.61254-0.15675 0.4172 0 0.68247 0.21222 0.26527 0.2098 0.34003 0.59806l-0.42202 0.0651q-0.06029-0.25804-0.21463-0.38827-0.15193-0.13022-0.36897-0.13022-0.32797 0-0.53296 0.23633-0.20498 0.23393-0.20498 0.74277 0 0.51607 0.19775 0.74999 0.19775 0.23393 0.51608 0.23393 0.25563 0 0.42685-0.15676 0.17122-0.15675 0.21704-0.48231z"/><path d="m82.649 105.42 0.44855 0.0555q-0.10611 0.39309-0.39308 0.61013-0.28698 0.21704-0.73312 0.21704-0.5619 0-0.89228-0.34486-0.32797-0.34726-0.32797-0.97186 0-0.6463 0.3328-1.0032 0.3328-0.35691 0.86334-0.35691 0.51366 0 0.83923 0.34967 0.32556 0.34968 0.32556 0.98392 0 0.0386-0.0024 0.11576h-1.91q0.02411 0.42202 0.23874 0.6463 0.21463 0.22428 0.53537 0.22428 0.23874 0 0.40756-0.12541 0.16881-0.1254 0.26768-0.40032zm-1.4252-0.70176h1.4301q-0.02894-0.32315-0.16399-0.48473-0.2074-0.2508-0.53778-0.2508-0.29904 0-0.50402 0.20016-0.20257 0.20016-0.22428 0.53537z"/><path d="m83.763 104.18v-0.49437h0.49437v0.49437zm0 2.0667v-0.49437h0.49437v0.49437z"/></g><g transform="matrix(.75 0 0 .75 19.336 24.561)" color="#000000" style="shape-inside:url(#rect20);white-space:pre" aria-label="Monospecific  Even"><path d="m56.233 94.396v-3.5354h0.70418l0.83681 2.5032q0.11576 0.34968 0.16881 0.52331 0.06029-0.19293 0.1881-0.56672l0.84646-2.4598h0.62942v3.5354h-0.45096v-2.959l-1.0273 2.959h-0.42202l-1.0225-3.0096v3.0096z"/><path d="m60.145 93.115q0-0.71141 0.3955-1.0539 0.33038-0.28456 0.80546-0.28456 0.52813 0 0.86334 0.34727 0.33521 0.34485 0.33521 0.95498 0 0.49437-0.14952 0.77894-0.14711 0.28215-0.43167 0.4389-0.28215 0.15675-0.61736 0.15675-0.53778 0-0.87058-0.34485-0.33038-0.34485-0.33038-0.99357zm0.44614 0q0 0.49196 0.21463 0.73794 0.21463 0.24357 0.54019 0.24357 0.32315 0 0.53778-0.24598 0.21463-0.24598 0.21463-0.75 0-0.47508-0.21704-0.71865-0.21463-0.24598-0.53537-0.24598-0.32556 0-0.54019 0.24357-0.21463 0.24357-0.21463 0.73553z"/><path d="m63.053 94.396v-2.5611h0.39067v0.36415q0.28215-0.42202 0.81511-0.42202 0.23151 0 0.42444 0.0844 0.19534 0.08199 0.2918 0.21704 0.09646 0.13505 0.13505 0.32074 0.02412 0.12058 0.02412 0.42202v1.5748h-0.43408v-1.5579q0-0.26527-0.05064-0.3955-0.05064-0.13264-0.18087-0.20981-0.12781-0.07958-0.30145-0.07958-0.27733 0-0.4799 0.17604-0.20016 0.17604-0.20016 0.668v1.3987z"/><path d="m65.638 93.115q0-0.71141 0.3955-1.0539 0.33038-0.28456 0.80546-0.28456 0.52813 0 0.86334 0.34727 0.33521 0.34485 0.33521 0.95498 0 0.49437-0.14952 0.77894-0.14711 0.28215-0.43167 0.4389-0.28215 0.15675-0.61736 0.15675-0.53778 0-0.87058-0.34485-0.33038-0.34485-0.33038-0.99357zm0.44614 0q0 0.49196 0.21463 0.73794 0.21463 0.24357 0.54019 0.24357 0.32315 0 0.53778-0.24598 0.21463-0.24598 0.21463-0.75 0-0.47508-0.21704-0.71865-0.21463-0.24598-0.53537-0.24598-0.32556 0-0.54019 0.24357-0.21463 0.24357-0.21463 0.73553z"/><path d="m68.373 93.631 0.42926-0.06752q0.03617 0.25804 0.20016 0.3955 0.1664 0.13746 0.46302 0.13746 0.29904 0 0.44373-0.12058 0.14469-0.12299 0.14469-0.28698 0-0.1471-0.12781-0.23151-0.08923-0.05788-0.44373-0.14711-0.47749-0.12058-0.66318-0.2074-0.18328-0.08923-0.27974-0.24357-0.09405-0.15675-0.09405-0.34485 0-0.17122 0.07717-0.31592 0.07958-0.1471 0.21463-0.24357 0.10129-0.07476 0.27492-0.1254 0.17604-0.05306 0.3762-0.05306 0.30145 0 0.52813 0.08682 0.2291 0.08682 0.33762 0.23633 0.10852 0.14711 0.14952 0.3955l-0.42444 0.05788q-0.02894-0.19775-0.16881-0.30868-0.13746-0.11093-0.39067-0.11093-0.29904 0-0.42685 0.09887t-0.12781 0.23151q0 0.0844 0.05306 0.15193 0.05305 0.06994 0.1664 0.11576 0.06511 0.02412 0.38344 0.11093 0.46061 0.12299 0.64148 0.20257 0.18328 0.07717 0.28698 0.22669 0.1037 0.14952 0.1037 0.37138 0 0.21704-0.12781 0.40997-0.1254 0.19051-0.36415 0.29662-0.23874 0.1037-0.54019 0.1037-0.49919 0-0.76206-0.2074-0.26045-0.2074-0.3328-0.61495z"/><path d="m71.016 95.377v-3.5426h0.3955v0.3328q0.13987-0.19534 0.31592-0.2918 0.17604-0.09887 0.42685-0.09887 0.32797 0 0.57878 0.16881t0.37862 0.47749q0.12781 0.30627 0.12781 0.67283 0 0.39308-0.14228 0.709-0.13987 0.3135-0.40997 0.48231-0.26768 0.1664-0.56431 0.1664-0.21704 0-0.39067-0.09164-0.17122-0.09164-0.28215-0.23151v1.2468zm0.39308-2.2476q0 0.49437 0.20016 0.7307 0.20016 0.23633 0.48472 0.23633 0.28939 0 0.49437-0.24357 0.2074-0.24598 0.2074-0.75964 0-0.48955-0.20257-0.73312-0.20016-0.24357-0.4799-0.24357-0.27733 0-0.49196 0.26045-0.21222 0.25804-0.21222 0.75241z"/><path d="m75.516 93.571 0.44855 0.05547q-0.10611 0.39309-0.39308 0.61013-0.28698 0.21704-0.73312 0.21704-0.5619 0-0.89228-0.34485-0.32797-0.34727-0.32797-0.97186 0-0.6463 0.3328-1.0032 0.3328-0.35691 0.86334-0.35691 0.51366 0 0.83922 0.34968 0.32556 0.34968 0.32556 0.98392 0 0.03858-0.0024 0.11576h-1.91q0.02412 0.42202 0.23874 0.6463 0.21463 0.22428 0.53537 0.22428 0.23874 0 0.40756-0.1254 0.16881-0.1254 0.26768-0.40032zm-1.4252-0.70177h1.4301q-0.02894-0.32315-0.16399-0.48472-0.2074-0.2508-0.53778-0.2508-0.29904 0-0.50402 0.20016-0.20257 0.20016-0.22428 0.53537z"/><path d="m78.181 93.457 0.42685 0.05547q-0.06994 0.44132-0.35932 0.69212-0.28698 0.24839-0.70659 0.24839-0.52572 0-0.84646-0.34244-0.31833-0.34485-0.31833-0.98633 0-0.41479 0.13746-0.72588 0.13746-0.31109 0.4172-0.46543 0.28215-0.15675 0.61254-0.15675 0.4172 0 0.68247 0.21222 0.26527 0.20981 0.34003 0.59807l-0.42202 0.06511q-0.06029-0.25804-0.21463-0.38826-0.15193-0.13022-0.36897-0.13022-0.32797 0-0.53296 0.23633-0.20498 0.23392-0.20498 0.74276 0 0.51608 0.19775 0.75 0.19775 0.23392 0.51608 0.23392 0.25563 0 0.42685-0.15675t0.21704-0.48231z"/><path d="m78.981 91.359v-0.49919h0.43408v0.49919zm0 3.0362v-2.5611h0.43408v2.5611z"/><path d="m80.18 94.396v-2.2235h-0.38344v-0.33762h0.38344v-0.27251q0-0.25804 0.04582-0.38344 0.0627-0.16881 0.21945-0.27251 0.15916-0.10611 0.44373-0.10611 0.18328 0 0.40514 0.04341l-0.06511 0.37862q-0.13505-0.02412-0.25563-0.02412-0.19775 0-0.27974 0.08441-0.08199 0.08441-0.08199 0.31592v0.23633h0.4992v0.33762h-0.4992v2.2235z"/><path d="m81.451 91.359v-0.49919h0.43408v0.49919zm0 3.0362v-2.5611h0.43408v2.5611z"/><path d="m84.217 93.457 0.42685 0.05547q-0.06994 0.44132-0.35932 0.69212-0.28698 0.24839-0.70659 0.24839-0.52572 0-0.84646-0.34244-0.31833-0.34485-0.31833-0.98633 0-0.41479 0.13746-0.72588 0.13746-0.31109 0.4172-0.46543 0.28215-0.15675 0.61254-0.15675 0.4172 0 0.68247 0.21222 0.26527 0.20981 0.34003 0.59807l-0.42202 0.06511q-0.06029-0.25804-0.21463-0.38826-0.15193-0.13022-0.36897-0.13022-0.32797 0-0.53296 0.23633-0.20498 0.23392-0.20498 0.74276 0 0.51608 0.19775 0.75 0.19775 0.23392 0.51608 0.23392 0.25563 0 0.42685-0.15675 0.17122-0.15675 0.21704-0.48231z"/><path d="m73.823 106.25v-3.5354h2.5563v0.4172h-2.0884v1.0828h1.9558v0.41479h-1.9558v1.2034h2.1704v0.4172z"/><path d="m77.763 106.25-0.97427-2.5611h0.4582l0.54984 1.5338q0.08923 0.24839 0.16399 0.51608 0.05788-0.20257 0.16158-0.48714l0.56913-1.5627h0.44614l-0.96945 2.5611z"/><path d="m81.275 105.42 0.44855 0.0555q-0.10611 0.39309-0.39308 0.61013-0.28698 0.21704-0.73312 0.21704-0.5619 0-0.89228-0.34486-0.32797-0.34726-0.32797-0.97186 0-0.6463 0.3328-1.0032 0.3328-0.35691 0.86334-0.35691 0.51366 0 0.83922 0.34967 0.32556 0.34968 0.32556 0.98392 0 0.0386-0.0024 0.11576h-1.91q0.02412 0.42202 0.23874 0.6463 0.21463 0.22428 0.53537 0.22428 0.23874 0 0.40756-0.12541 0.16881-0.1254 0.26768-0.40032zm-1.4252-0.70176h1.4301q-0.02894-0.32315-0.16399-0.48473-0.20739-0.2508-0.53778-0.2508-0.29903 0-0.50402 0.20016-0.20257 0.20016-0.22428 0.53537z"/><path d="m82.268 106.25v-2.5611h0.39067v0.36414q0.28215-0.42202 0.81511-0.42202 0.23151 0 0.42444 0.0844 0.19534 0.082 0.2918 0.21704 0.09646 0.13505 0.13505 0.32074 0.02412 0.12058 0.02412 0.42203v1.5748h-0.43409v-1.5579q0-0.26528-0.05064-0.3955-0.05064-0.13264-0.18087-0.20981-0.12781-0.0796-0.30145-0.0796-0.27733 0-0.4799 0.17605-0.20016 0.17604-0.20016 0.668v1.3987z"/></g><g transform="matrix(.75 0 0 .75 130.4 24.561)" color="#000000" style="shape-inside:url(#rect26);white-space:pre" aria-label="Species rich  Dominated"><path d="m45.39 93.26 0.44132-0.03858q0.03135 0.26527 0.14469 0.43649 0.11576 0.16881 0.35691 0.27492 0.24116 0.1037 0.5426 0.1037 0.26768 0 0.47267-0.07958 0.20498-0.07958 0.30386-0.21704 0.10129-0.13987 0.10129-0.30386 0-0.1664-0.09646-0.28939-0.09646-0.1254-0.31833-0.20981-0.14228-0.05547-0.62942-0.17122-0.48714-0.11817-0.68247-0.22186-0.25322-0.13264-0.37862-0.32797-0.12299-0.19775-0.12299-0.44132 0-0.26768 0.15193-0.4992 0.15193-0.23392 0.44373-0.3545 0.2918-0.12058 0.64871-0.12058 0.39309 0 0.69212 0.12781 0.30145 0.1254 0.46302 0.37138t0.17363 0.55707l-0.44855 0.03376q-0.03617-0.33521-0.24598-0.50643-0.2074-0.17122-0.61495-0.17122-0.42444 0-0.61977 0.15675-0.19292 0.15434-0.19292 0.37379 0 0.19051 0.13746 0.3135 0.13505 0.12299 0.70418 0.25322 0.57154 0.12781 0.78376 0.22428 0.30868 0.14228 0.45579 0.36174 0.14711 0.21704 0.14711 0.50161 0 0.28215-0.16158 0.53296-0.16158 0.24839-0.46543 0.38826-0.30145 0.13746-0.68006 0.13746-0.4799 0-0.80546-0.13987-0.32315-0.13987-0.50884-0.41961-0.18328-0.28215-0.19292-0.63665z"/><path d="m48.788 95.377v-3.5426h0.3955v0.3328q0.13987-0.19534 0.31592-0.2918 0.17604-0.09887 0.42685-0.09887 0.32797 0 0.57878 0.16881t0.37862 0.47749q0.12781 0.30627 0.12781 0.67283 0 0.39308-0.14228 0.709-0.13987 0.3135-0.40997 0.48231-0.26768 0.1664-0.56431 0.1664-0.21704 0-0.39067-0.09164-0.17122-0.09164-0.28215-0.23151v1.2468zm0.39309-2.2476q0 0.49437 0.20016 0.7307 0.20016 0.23633 0.48472 0.23633 0.28939 0 0.49437-0.24357 0.2074-0.24598 0.2074-0.75964 0-0.48955-0.20257-0.73312-0.20016-0.24357-0.4799-0.24357-0.27733 0-0.49196 0.26045-0.21222 0.25804-0.21222 0.75241z"/><path d="m53.288 93.571 0.44855 0.05547q-0.10611 0.39309-0.39309 0.61013-0.28698 0.21704-0.73312 0.21704-0.5619 0-0.89228-0.34485-0.32797-0.34727-0.32797-0.97186 0-0.6463 0.3328-1.0032t0.86334-0.35691q0.51366 0 0.83923 0.34968 0.32556 0.34968 0.32556 0.98392 0 0.03858-0.0024 0.11576h-1.91q0.02412 0.42202 0.23875 0.6463 0.21463 0.22428 0.53537 0.22428 0.23875 0 0.40756-0.1254 0.16881-0.1254 0.26768-0.40032zm-1.4252-0.70177h1.4301q-0.02894-0.32315-0.16399-0.48472-0.2074-0.2508-0.53778-0.2508-0.29903 0-0.50402 0.20016-0.20257 0.20016-0.22428 0.53537z"/><path d="m55.952 93.457 0.42685 0.05547q-0.06994 0.44132-0.35932 0.69212-0.28698 0.24839-0.70659 0.24839-0.52572 0-0.84646-0.34244-0.31833-0.34485-0.31833-0.98633 0-0.41479 0.13746-0.72588 0.13746-0.31109 0.4172-0.46543 0.28215-0.15675 0.61254-0.15675 0.4172 0 0.68247 0.21222 0.26527 0.20981 0.34003 0.59807l-0.42202 0.06511q-0.06029-0.25804-0.21463-0.38826-0.15193-0.13022-0.36897-0.13022-0.32797 0-0.53296 0.23633-0.20498 0.23392-0.20498 0.74276 0 0.51608 0.19775 0.75 0.19775 0.23392 0.51608 0.23392 0.25563 0 0.42685-0.15675 0.17122-0.15675 0.21704-0.48231z"/><path d="m56.753 91.359v-0.49919h0.43408v0.49919zm0 3.0362v-2.5611h0.43408v2.5611z"/><path d="m59.601 93.571 0.44855 0.05547q-0.10611 0.39309-0.39308 0.61013-0.28698 0.21704-0.73312 0.21704-0.5619 0-0.89228-0.34485-0.32797-0.34727-0.32797-0.97186 0-0.6463 0.3328-1.0032 0.3328-0.35691 0.86334-0.35691 0.51366 0 0.83923 0.34968 0.32556 0.34968 0.32556 0.98392 0 0.03858-0.0024 0.11576h-1.91q0.02412 0.42202 0.23874 0.6463 0.21463 0.22428 0.53537 0.22428 0.23874 0 0.40756-0.1254 0.16881-0.1254 0.26768-0.40032zm-1.4252-0.70177h1.4301q-0.02894-0.32315-0.16399-0.48472-0.2074-0.2508-0.53778-0.2508-0.29904 0-0.50402 0.20016-0.20257 0.20016-0.22428 0.53537z"/><path d="m60.421 93.631 0.42926-0.06752q0.03617 0.25804 0.20016 0.3955 0.1664 0.13746 0.46302 0.13746 0.29903 0 0.44373-0.12058 0.14469-0.12299 0.14469-0.28698 0-0.1471-0.12781-0.23151-0.08923-0.05788-0.44373-0.14711-0.47749-0.12058-0.66318-0.2074-0.18328-0.08923-0.27974-0.24357-0.09405-0.15675-0.09405-0.34485 0-0.17122 0.07717-0.31592 0.07958-0.1471 0.21463-0.24357 0.10128-0.07476 0.27492-0.1254 0.17604-0.05306 0.3762-0.05306 0.30145 0 0.52813 0.08682 0.2291 0.08682 0.33762 0.23633 0.10852 0.14711 0.14952 0.3955l-0.42444 0.05788q-0.02894-0.19775-0.16881-0.30868-0.13746-0.11093-0.39067-0.11093-0.29903 0-0.42685 0.09887t-0.12781 0.23151q0 0.0844 0.05305 0.15193 0.05306 0.06994 0.1664 0.11576 0.06511 0.02412 0.38344 0.11093 0.46061 0.12299 0.64148 0.20257 0.18328 0.07717 0.28698 0.22669t0.1037 0.37138q0 0.21704-0.12781 0.40997-0.1254 0.19051-0.36415 0.29662-0.23875 0.1037-0.54019 0.1037-0.4992 0-0.76206-0.2074-0.26045-0.2074-0.3328-0.61495z"/><path d="m64.432 94.396v-2.5611h0.39067v0.38826q0.14952-0.27251 0.27492-0.35932 0.12781-0.08682 0.27974-0.08682 0.21945 0 0.44614 0.13987l-0.14952 0.40273q-0.15916-0.09405-0.31833-0.09405-0.14228 0-0.25563 0.08682-0.11334 0.08441-0.16158 0.23633-0.07235 0.23151-0.07235 0.50643v1.3408z"/><path d="m66.083 91.359v-0.49919h0.43408v0.49919zm0 3.0362v-2.5611h0.43408v2.5611z"/><path d="m68.85 93.457 0.42685 0.05547q-0.06994 0.44132-0.35932 0.69212-0.28698 0.24839-0.70659 0.24839-0.52572 0-0.84646-0.34244-0.31833-0.34485-0.31833-0.98633 0-0.41479 0.13746-0.72588 0.13746-0.31109 0.4172-0.46543 0.28215-0.15675 0.61254-0.15675 0.4172 0 0.68247 0.21222 0.26527 0.20981 0.34003 0.59807l-0.42202 0.06511q-0.06029-0.25804-0.21463-0.38826-0.15193-0.13022-0.36897-0.13022-0.32797 0-0.53296 0.23633-0.20498 0.23392-0.20498 0.74276 0 0.51608 0.19775 0.75 0.19775 0.23392 0.51608 0.23392 0.25563 0 0.42685-0.15675t0.21704-0.48231z"/><path d="m69.648 94.396v-3.5354h0.43408v1.2685q0.30386-0.35209 0.76688-0.35209 0.28456 0 0.49437 0.11334 0.20981 0.11093 0.29903 0.30868 0.09164 0.19775 0.09164 0.57395v1.623h-0.43408v-1.623q0-0.32556-0.14228-0.47267-0.13987-0.14952-0.39791-0.14952-0.19293 0-0.36415 0.10129-0.16881 0.09887-0.24116 0.2701-0.07235 0.17122-0.07235 0.47267v1.4011z"/><path d="m45.549 106.25v-3.5354h1.2178q0.41238 0 0.62942 0.0507 0.30386 0.0699 0.51849 0.25321 0.27974 0.23633 0.4172 0.6053 0.13987 0.36656 0.13987 0.83923 0 0.40273-0.09405 0.71382t-0.24116 0.51608q-0.1471 0.20257-0.32315 0.32074-0.17363 0.11575-0.42202 0.17604-0.24598 0.0603-0.56672 0.0603zm0.46784-0.4172h0.75482q0.34968 0 0.54743-0.0651 0.20016-0.0651 0.31833-0.18328 0.1664-0.1664 0.25804-0.44614 0.09405-0.28216 0.09405-0.68248 0-0.55466-0.18328-0.85128-0.18087-0.29903-0.44132-0.40032-0.1881-0.0724-0.6053-0.0724h-0.74276z"/><path d="m48.899 104.97q0-0.71141 0.3955-1.0539 0.33038-0.28456 0.80546-0.28456 0.52813 0 0.86334 0.34726 0.33521 0.34486 0.33521 0.95498 0 0.49438-0.14952 0.77894-0.14711 0.28215-0.43167 0.43891-0.28215 0.15675-0.61736 0.15675-0.53778 0-0.87058-0.34486-0.33038-0.34485-0.33038-0.99356zm0.44614 0q0 0.49196 0.21463 0.73794 0.21463 0.24357 0.54019 0.24357 0.32315 0 0.53778-0.24598 0.21463-0.24598 0.21463-0.75 0-0.47508-0.21704-0.71865-0.21463-0.24598-0.53537-0.24598-0.32556 0-0.54019 0.24357-0.21463 0.24357-0.21463 0.73553z"/><path d="m51.807 106.25v-2.5611h0.38826v0.35932q0.12058-0.1881 0.32074-0.30145 0.20016-0.11575 0.45579-0.11575 0.28456 0 0.46543 0.11816 0.18328 0.11817 0.25804 0.33039 0.30386-0.44855 0.79099-0.44855 0.38103 0 0.58601 0.21222 0.20498 0.2098 0.20498 0.64871v1.758h-0.43167v-1.6133q0-0.26045-0.04341-0.37379-0.041-0.11576-0.15193-0.18569-0.11093-0.0699-0.26045-0.0699-0.2701 0-0.44855 0.18087-0.17846 0.17846-0.17846 0.57395v1.4879h-0.43408v-1.664q0-0.28939-0.10611-0.43408-0.10611-0.1447-0.34727-0.1447-0.18328 0-0.34003 0.0965-0.15434 0.0965-0.22428 0.28216-0.06994 0.18569-0.06994 0.53537v1.3288z"/><path d="m55.924 103.21v-0.4992h0.43408v0.4992zm0 3.0362v-2.5611h0.43408v2.5611z"/><path d="m57.018 106.25v-2.5611h0.39067v0.36414q0.28215-0.42202 0.81511-0.42202 0.23151 0 0.42444 0.0844 0.19534 0.082 0.2918 0.21704 0.09646 0.13505 0.13505 0.32074 0.02412 0.12058 0.02412 0.42203v1.5748h-0.43408v-1.5579q0-0.26528-0.05064-0.3955-0.05064-0.13264-0.18087-0.20981-0.12781-0.0796-0.30145-0.0796-0.27733 0-0.4799 0.17605-0.20016 0.17604-0.20016 0.668v1.3987z"/><path d="m61.436 105.93q-0.24116 0.20499-0.46543 0.28939-0.22186 0.0844-0.47749 0.0844-0.42202 0-0.64871-0.20499-0.22669-0.20739-0.22669-0.52813 0-0.1881 0.08441-0.34244 0.08682-0.15675 0.22428-0.2508 0.13987-0.0941 0.3135-0.14229 0.12781-0.0338 0.38585-0.0651 0.52572-0.0627 0.77411-0.14952 0.0024-0.0892 0.0024-0.11334 0-0.26527-0.12299-0.37379-0.1664-0.14711-0.49437-0.14711-0.30627 0-0.45337 0.10852-0.14469 0.10611-0.21463 0.37862l-0.42444-0.0579q0.05788-0.27251 0.19051-0.43891 0.13264-0.1688 0.38344-0.25803 0.2508-0.0916 0.58119-0.0916 0.32797 0 0.53296 0.0772 0.20498 0.0772 0.30144 0.19533 0.09646 0.11576 0.13505 0.29422 0.0217 0.11093 0.0217 0.40032v0.57877q0 0.60531 0.02653 0.76688 0.02894 0.15916 0.11093 0.30627h-0.45338q-0.06752-0.13505-0.08682-0.31592zm-0.03617-0.96945q-0.23633 0.0965-0.709 0.16399-0.26768 0.0386-0.37862 0.0868t-0.17122 0.14228q-0.06029 0.0916-0.06029 0.20498 0 0.17364 0.13022 0.28939 0.13264 0.11576 0.38585 0.11576 0.2508 0 0.44614-0.10852 0.19534-0.11094 0.28698-0.30145 0.06994-0.14711 0.06994-0.43408z"/><path d="m63.46 105.86 0.0627 0.38344q-0.18328 0.0386-0.32797 0.0386-0.23633 0-0.36656-0.0748-0.13022-0.0748-0.18328-0.19533-0.05305-0.12299-0.05305-0.51367v-1.4735h-0.31833v-0.33761h0.31833v-0.63425l0.43167-0.26045v0.8947h0.43649v0.33761h-0.43649v1.4976q0 0.18569 0.0217 0.23874 0.02412 0.0531 0.07476 0.0844 0.05306 0.0314 0.14952 0.0314 0.07235 0 0.19051-0.0169z"/><path d="m65.637 105.42 0.44855 0.0555q-0.10611 0.39309-0.39308 0.61013-0.28698 0.21704-0.73312 0.21704-0.5619 0-0.89228-0.34486-0.32797-0.34726-0.32797-0.97186 0-0.6463 0.3328-1.0032 0.3328-0.35691 0.86334-0.35691 0.51366 0 0.83923 0.34967 0.32556 0.34968 0.32556 0.98392 0 0.0386-0.0024 0.11576h-1.91q0.02412 0.42202 0.23875 0.6463 0.21463 0.22428 0.53537 0.22428 0.23874 0 0.40755-0.12541 0.16881-0.1254 0.26768-0.40032zm-1.4252-0.70176h1.4301q-0.02894-0.32315-0.16399-0.48473-0.2074-0.2508-0.53778-0.2508-0.29904 0-0.50402 0.20016-0.20257 0.20016-0.22428 0.53537z"/><path d="m68.292 106.25v-0.32315q-0.24357 0.38103-0.71624 0.38103-0.30627 0-0.56431-0.16881-0.25563-0.16881-0.39791-0.47026-0.13987-0.30386-0.13987-0.69694 0-0.38344 0.12781-0.69453 0.12781-0.31351 0.38344-0.4799 0.25563-0.1664 0.57154-0.1664 0.23151 0 0.41238 0.0989 0.18087 0.0965 0.29421 0.25322v-1.2685h0.43167v3.5354zm-1.3722-1.2781q0 0.49196 0.20739 0.73553 0.2074 0.24357 0.48955 0.24357 0.28456 0 0.48231-0.23151 0.20016-0.23393 0.20016-0.71142 0-0.52572-0.20257-0.7717-0.20257-0.24598-0.4992-0.24598-0.28939 0-0.48472 0.23633-0.19292 0.23634-0.19292 0.74518z"/></g></g><g transform="matrix(.75 0 0 .75 19.527 23.934)" color="#000000" fill="#fff" stroke-width=".35278px" style="shape-inside:url(#rect30);white-space:pre" aria-label="CD1"><path d="m93.927 92.091q0 0.03514 0 0.09095 0.0021 0.05581 0 0.11576-0.0021 0.05994-0.01034 0.11369-0.0083 0.05374-0.02894 0.08475-0.02067 0.03101-0.05168 0.06201-0.03101 0.03101-0.06615 0.05581t-0.07028 0.03927q-0.03307 0.01447-0.05994 0.01447-0.02894 0-0.05374-0.01654-0.02481-0.01654-0.04134-0.04548-0.01447-0.03101-0.0186-0.07235-0.0021-0.04341 0.01033-0.09302 0.06821-0.26872 0.06408-0.41134-0.0021-0.14469-0.08475-0.14469-0.09095 0-0.21084 0.03721-0.11782 0.03514-0.24391 0.09715-0.12402 0.05994-0.24391 0.14056-0.11782 0.08061-0.21084 0.1695-0.17983 0.1695-0.3328 0.37207-0.1509 0.20257-0.26252 0.41961-0.10955 0.21497-0.17156 0.43202-0.06201 0.21704-0.06201 0.41754 0 0.05788 0.01033 0.13022 0.01034 0.07028 0.03514 0.14469 0.02687 0.07235 0.07235 0.14056t0.11369 0.12196q0.07028 0.05374 0.16743 0.08682 0.09715 0.03307 0.22531 0.03307 0.13229 0 0.28112-0.03514t0.29972-0.09302q0.1509-0.05994 0.29766-0.13849 0.14676-0.07855 0.27699-0.16536 0.11989-0.07855 0.1881-0.12402 0.06821-0.04548 0.08682-0.04754h0.0041q0.0186 0 0.03307 0.01447 0.01654 0.0124 0.02481 0.03101 0.01033 0.0186 0.01447 0.03927 0.0062 0.0186 0.0062 0.03307 0 0.03101-0.02687 0.07441-0.02687 0.04134-0.06615 0.08682-0.03927 0.04547-0.08682 0.08888-0.04754 0.04134-0.08682 0.07235-0.13022 0.09922-0.29146 0.19017-0.16123 0.08888-0.33486 0.1571-0.17363 0.06821-0.34933 0.10749-0.1757 0.04134-0.33486 0.04134-0.04754 0-0.13436-0.01447-0.08682-0.01447-0.19017-0.05374-0.10335-0.03721-0.21291-0.10542-0.10749-0.06615-0.19637-0.1695-0.08682-0.10542-0.14263-0.25218-0.05581-0.14883-0.05581-0.34727 0-0.45062 0.21291-0.89297 0.21497-0.44442 0.60771-0.85783 0.11162-0.11782 0.25632-0.23564 0.14469-0.11989 0.30386-0.21497 0.16123-0.09715 0.32246-0.1571 0.1633-0.05994 0.30799-0.05994 0.13643 0 0.23151 0.05168 0.09715 0.04961 0.15916 0.12402 0.06201 0.07441 0.09095 0.16123 0.02894 0.08475 0.02894 0.15503z"/><path d="m97.631 92.895q0 0.26252-0.19637 0.5085-0.19844 0.24805-0.49816 0.45062-0.1509 0.10129-0.30799 0.19017-0.15503 0.08682-0.31833 0.15916-0.1633 0.07235-0.30799 0.12816-0.14263 0.05374-0.26872 0.09095-0.15296 0.04754-0.37207 0.14883-0.01654 0.0083-0.04134 0.02274-0.0248 0.0124-0.05994 0.03101-0.06821 0.03927-0.10955 0.04754-0.18397 0.04134-0.23771 0.04134-0.09922 0-0.1695-0.05994-0.07028-0.05994-0.09302-0.15916-0.02067-0.08682-0.031-0.14469-0.0083-0.05788-0.0083-0.08888 0-0.02894 0.0124-0.08475 0.01447-0.05581 0.01447-0.09715 0-0.03101 0.0041-0.07028 0.0041-0.04134 0.0124-0.09302t0.0124-0.08268q0.0062-0.03307 0.0083-0.04961 0.0083-0.05168 0.03101-0.1943 0.02274-0.14469 0.05788-0.38241 0.02067-0.12609 0.04754-0.26665 0.02687-0.14056 0.06201-0.29972 0.0041-0.01447 0.0083-0.03721 0.0062-0.02274 0.01447-0.05374 0.01654-0.06201 0.02481-0.10542 0.0083-0.04341 0.0083-0.08268 0-0.04134-0.02481-0.07028-0.0248-0.02894-0.07028-0.05994-0.04341-0.03307-0.06201-0.05374-0.01654-0.02274-0.01654-0.06615 0-0.08268 0.07028-0.16536 0.07235-0.08475 0.1509-0.08475 0.09508 0 0.25425 0.0186 0.1571 0.0186 0.21911 0.0186 0.10542 0 0.32039-0.0124 0.21291-0.0124 0.31833-0.0124 0.29972 0 0.56431 0.04754t0.47749 0.1695q0.05788 0.03307 0.1695 0.11782 0.11162 0.07855 0.22118 0.31006 0.10955 0.23151 0.10955 0.3762zm-0.35967 0q0-0.28732-0.21084-0.44028-0.20877-0.1509-0.49609-0.19844-0.14263-0.02274-0.29146-0.03514-0.14676-0.0124-0.30179-0.0124-0.04754 0-0.09922 0.0041-0.05168 0.0021-0.10955 0.0062-0.11369 0.01033-0.21497 0.02067-0.10128 0.01034-0.21911 0.01447-0.02894 0.13643-0.05788 0.28525-0.02894 0.14676-0.05788 0.30799-0.0062 0.03927-0.0186 0.10335-0.0124 0.06201-0.03101 0.15503-0.01654 0.09302-0.03307 0.1695-0.01447 0.07648-0.0248 0.14263-0.01034 0.06615-0.02067 0.13849-0.01033 0.07028-0.0186 0.14469-0.0083 0.07235-0.01447 0.14469-0.0041 0.07028-0.0041 0.13229 0 0.1509 0.04754 0.24598 0.15503-0.02067 0.31626-0.06821 0.08061-0.02274 0.16743-0.05168 0.08888-0.02894 0.18397-0.06408 0.09715-0.03514 0.1695-0.05994 0.07441-0.02687 0.12816-0.04341 0.63459-0.20877 0.82889-0.39067 0.031-0.02894 0.07028-0.07441 0.03927-0.04548 0.08682-0.10955 0.09508-0.12816 0.16123-0.25838 0.06408-0.12609 0.06408-0.20877z"/><path d="m100.65 94.156q0 0.08061-0.0289 0.09715-0.11162 0.05788-0.24805 0.08475-0.13642 0.02687-0.28112 0.04754-0.14262 0.0186-0.28525 0.04341-0.14056 0.02481-0.26458 0.07855 0 0.02067 0.0041 0.05994t0.0041 0.06201q0 0.10749-0.27078 0.10749-0.02481-0.0021-0.04548-0.02274-0.0186-0.02274-0.03721-0.04754-0.0186-0.02481-0.03721-0.04341-0.01654-0.0186-0.03721-0.01447-0.03101 0-0.22531 0.05581-0.09922 0.02687-0.15916 0.04548-0.05994 0.01654-0.08475 0.02687-0.25218 0.08061-0.3514 0.08061-0.08475 0-0.13642-0.04754-0.07235-0.07235-0.07235-0.14056 0-0.10129 0.15296-0.14883 0.1509-0.04961 0.35967-0.08682 0.13229-0.02687 0.27078-0.05581t0.25011-0.08061q0.0083-0.12609 0.01654-0.23151 0.0083-0.10542 0.0186-0.1943 0.01034-0.08888 0.02274-0.20877 0.01447-0.11989 0.03514-0.27078 0.03927-0.29972 0.06821-0.50229 0.01447-0.10129 0.02687-0.19224 0.0124-0.09302 0.02274-0.17777-0.11989 0-0.3328 0.14469-0.07235 0.04754-0.13022 0.08061-0.05788 0.03101-0.09922 0.05168-0.08061 0.03927-0.23358 0.08268-0.11989 0.03307-0.20257 0.03307-0.05581 0-0.07441-0.03514t-0.0186-0.09508q0-0.09922 0.05994-0.13022 0.07648-0.03927 0.21497-0.09715 0.07235-0.03101 0.11576-0.04961 0.04341-0.0186 0.05788-0.02687 0.08888-0.04341 0.16743-0.08475 0.08062-0.04341 0.15296-0.08475 0.07235-0.04134 0.17777-0.10335 0.10542-0.06408 0.24391-0.14676 0.1633-0.09715 0.19844-0.09715 0.06615 0 0.11162 0.08888 0.04961 0.09095 0.04961 0.16123 0 0.05788-0.05994 0.11782-0.04961 0.21291-0.09302 0.42995-0.04341 0.21704-0.08268 0.44648-0.07441 0.45682-0.07441 0.73174 0 0.0124-0.0021 0.03307 0 0.02067-0.0021 0.04754 0 0.02481-0.0021 0.05374 0 0.02687 0 0.05168 0 0.03514 0.0021 0.06201 0.0041 0.02687 0.0083 0.04754 0.1509-0.0062 0.45268-0.08888 0.1385-0.03721 0.23152-0.05788 0.0951-0.02274 0.14676-0.03101 0.0744-0.01033 0.14262-0.01447 0.0703-0.0062 0.13643-0.0062 0.0496 0.09715 0.0496 0.16123z"/></g><g transform="matrix(.75 0 0 .75 81.775 32.864)" color="#000000" fill="#fff" stroke-width=".35278px" style="shape-inside:url(#rect30);white-space:pre" aria-label="CD1"><path d="m93.927 92.091q0 0.03514 0 0.09095 0.0021 0.05581 0 0.11576-0.0021 0.05994-0.01034 0.11369-0.0083 0.05374-0.02894 0.08475-0.02067 0.03101-0.05168 0.06201-0.03101 0.03101-0.06615 0.05581t-0.07028 0.03927q-0.03307 0.01447-0.05994 0.01447-0.02894 0-0.05374-0.01654-0.02481-0.01654-0.04134-0.04548-0.01447-0.03101-0.0186-0.07235-0.0021-0.04341 0.01033-0.09302 0.06821-0.26872 0.06408-0.41134-0.0021-0.14469-0.08475-0.14469-0.09095 0-0.21084 0.03721-0.11782 0.03514-0.24391 0.09715-0.12402 0.05994-0.24391 0.14056-0.11782 0.08061-0.21084 0.1695-0.17983 0.1695-0.3328 0.37207-0.1509 0.20257-0.26252 0.41961-0.10955 0.21497-0.17156 0.43202-0.06201 0.21704-0.06201 0.41754 0 0.05788 0.01033 0.13022 0.01034 0.07028 0.03514 0.14469 0.02687 0.07235 0.07235 0.14056t0.11369 0.12196q0.07028 0.05374 0.16743 0.08682 0.09715 0.03307 0.22531 0.03307 0.13229 0 0.28112-0.03514t0.29972-0.09302q0.1509-0.05994 0.29766-0.13849 0.14676-0.07855 0.27699-0.16536 0.11989-0.07855 0.1881-0.12402 0.06821-0.04548 0.08682-0.04754h0.0041q0.0186 0 0.03307 0.01447 0.01654 0.0124 0.02481 0.03101 0.01033 0.0186 0.01447 0.03927 0.0062 0.0186 0.0062 0.03307 0 0.03101-0.02687 0.07441-0.02687 0.04134-0.06615 0.08682-0.03927 0.04547-0.08682 0.08888-0.04754 0.04134-0.08682 0.07235-0.13022 0.09922-0.29146 0.19017-0.16123 0.08888-0.33486 0.1571-0.17363 0.06821-0.34933 0.10749-0.1757 0.04134-0.33486 0.04134-0.04754 0-0.13436-0.01447-0.08682-0.01447-0.19017-0.05374-0.10335-0.03721-0.21291-0.10542-0.10749-0.06615-0.19637-0.1695-0.08682-0.10542-0.14263-0.25218-0.05581-0.14883-0.05581-0.34727 0-0.45062 0.21291-0.89297 0.21497-0.44442 0.60771-0.85783 0.11162-0.11782 0.25632-0.23564 0.14469-0.11989 0.30386-0.21497 0.16123-0.09715 0.32246-0.1571 0.1633-0.05994 0.30799-0.05994 0.13643 0 0.23151 0.05168 0.09715 0.04961 0.15916 0.12402 0.06201 0.07441 0.09095 0.16123 0.02894 0.08475 0.02894 0.15503z"/><path d="m97.631 92.895q0 0.26252-0.19637 0.5085-0.19844 0.24805-0.49816 0.45062-0.1509 0.10129-0.30799 0.19017-0.15503 0.08682-0.31833 0.15916-0.1633 0.07235-0.30799 0.12816-0.14263 0.05374-0.26872 0.09095-0.15296 0.04754-0.37207 0.14883-0.01654 0.0083-0.04134 0.02274-0.0248 0.0124-0.05994 0.03101-0.06821 0.03927-0.10955 0.04754-0.18397 0.04134-0.23771 0.04134-0.09922 0-0.1695-0.05994-0.07028-0.05994-0.09302-0.15916-0.02067-0.08682-0.031-0.14469-0.0083-0.05788-0.0083-0.08888 0-0.02894 0.0124-0.08475 0.01447-0.05581 0.01447-0.09715 0-0.03101 0.0041-0.07028 0.0041-0.04134 0.0124-0.09302t0.0124-0.08268q0.0062-0.03307 0.0083-0.04961 0.0083-0.05168 0.03101-0.1943 0.02274-0.14469 0.05788-0.38241 0.02067-0.12609 0.04754-0.26665 0.02687-0.14056 0.06201-0.29972 0.0041-0.01447 0.0083-0.03721 0.0062-0.02274 0.01447-0.05374 0.01654-0.06201 0.02481-0.10542 0.0083-0.04341 0.0083-0.08268 0-0.04134-0.02481-0.07028-0.0248-0.02894-0.07028-0.05994-0.04341-0.03307-0.06201-0.05374-0.01654-0.02274-0.01654-0.06615 0-0.08268 0.07028-0.16536 0.07235-0.08475 0.1509-0.08475 0.09508 0 0.25425 0.0186 0.1571 0.0186 0.21911 0.0186 0.10542 0 0.32039-0.0124 0.21291-0.0124 0.31833-0.0124 0.29972 0 0.56431 0.04754t0.47749 0.1695q0.05788 0.03307 0.1695 0.11782 0.11162 0.07855 0.22118 0.31006 0.10955 0.23151 0.10955 0.3762zm-0.35967 0q0-0.28732-0.21084-0.44028-0.20877-0.1509-0.49609-0.19844-0.14263-0.02274-0.29146-0.03514-0.14676-0.0124-0.30179-0.0124-0.04754 0-0.09922 0.0041-0.05168 0.0021-0.10955 0.0062-0.11369 0.01033-0.21497 0.02067-0.10128 0.01034-0.21911 0.01447-0.02894 0.13643-0.05788 0.28525-0.02894 0.14676-0.05788 0.30799-0.0062 0.03927-0.0186 0.10335-0.0124 0.06201-0.03101 0.15503-0.01654 0.09302-0.03307 0.1695-0.01447 0.07648-0.0248 0.14263-0.01034 0.06615-0.02067 0.13849-0.01033 0.07028-0.0186 0.14469-0.0083 0.07235-0.01447 0.14469-0.0041 0.07028-0.0041 0.13229 0 0.1509 0.04754 0.24598 0.15503-0.02067 0.31626-0.06821 0.08061-0.02274 0.16743-0.05168 0.08888-0.02894 0.18397-0.06408 0.09715-0.03514 0.1695-0.05994 0.07441-0.02687 0.12816-0.04341 0.63459-0.20877 0.82889-0.39067 0.031-0.02894 0.07028-0.07441 0.03927-0.04548 0.08682-0.10955 0.09508-0.12816 0.16123-0.25838 0.06408-0.12609 0.06408-0.20877z"/><path d="m100.65 94.156q0 0.08061-0.0289 0.09715-0.11162 0.05788-0.24805 0.08475-0.13642 0.02687-0.28112 0.04754-0.14262 0.0186-0.28525 0.04341-0.14056 0.02481-0.26458 0.07855 0 0.02067 0.0041 0.05994t0.0041 0.06201q0 0.10749-0.27078 0.10749-0.02481-0.0021-0.04548-0.02274-0.0186-0.02274-0.03721-0.04754-0.0186-0.02481-0.03721-0.04341-0.01654-0.0186-0.03721-0.01447-0.03101 0-0.22531 0.05581-0.09922 0.02687-0.15916 0.04548-0.05994 0.01654-0.08475 0.02687-0.25218 0.08061-0.3514 0.08061-0.08475 0-0.13642-0.04754-0.07235-0.07235-0.07235-0.14056 0-0.10129 0.15296-0.14883 0.1509-0.04961 0.35967-0.08682 0.13229-0.02687 0.27078-0.05581t0.25011-0.08061q0.0083-0.12609 0.01654-0.23151 0.0083-0.10542 0.0186-0.1943 0.01034-0.08888 0.02274-0.20877 0.01447-0.11989 0.03514-0.27078 0.03927-0.29972 0.06821-0.50229 0.01447-0.10129 0.02687-0.19224 0.0124-0.09302 0.02274-0.17777-0.11989 0-0.3328 0.14469-0.07235 0.04754-0.13022 0.08061-0.05788 0.03101-0.09922 0.05168-0.08061 0.03927-0.23358 0.08268-0.11989 0.03307-0.20257 0.03307-0.05581 0-0.07441-0.03514t-0.0186-0.09508q0-0.09922 0.05994-0.13022 0.07648-0.03927 0.21497-0.09715 0.07235-0.03101 0.11576-0.04961 0.04341-0.0186 0.05788-0.02687 0.08888-0.04341 0.16743-0.08475 0.08062-0.04341 0.15296-0.08475 0.07235-0.04134 0.17777-0.10335 0.10542-0.06408 0.24391-0.14676 0.1633-0.09715 0.19844-0.09715 0.06615 0 0.11162 0.08888 0.04961 0.09095 0.04961 0.16123 0 0.05788-0.05994 0.11782-0.04961 0.21291-0.09302 0.42995-0.04341 0.21704-0.08268 0.44648-0.07441 0.45682-0.07441 0.73174 0 0.0124-0.0021 0.03307 0 0.02067-0.0021 0.04754 0 0.02481-0.0021 0.05374 0 0.02687 0 0.05168 0 0.03514 0.0021 0.06201 0.0041 0.02687 0.0083 0.04754 0.1509-0.0062 0.45268-0.08888 0.1385-0.03721 0.23152-0.05788 0.0951-0.02274 0.14676-0.03101 0.0744-0.01033 0.14262-0.01447 0.0703-0.0062 0.13643-0.0062 0.0496 0.09715 0.0496 0.16123z"/></g></g></svg>
