<?xml version="1.0" encoding="UTF-8"?>
<svg width="33.158mm" height="10.962mm" version="1.0" xmlns="http://www.w3.org/2000/svg"><g transform="translate(7.5591 3.7795)" fill="#fff" fill-opacity=".65" aria-label="dN"><path d="m10.072 0-2.6875 9.2188q-0.21875 0.75-0.21875 0.98438 0 0.07813 0.0625 0.14844 0.070312 0.07031 0.14062 0.07031 0.10156 0 0.24219-0.10156 0.26562-0.1875 0.89062-0.9375l0.26562 0.16406q-0.5625 0.78125-1.1406 1.2656-0.57031 0.48438-1.0703 0.48438-0.26562 0-0.4375-0.1875t-0.17188-0.53125q0-0.44531 0.23438-1.1953l0.30469-0.96875q-1.1328 1.75-2.0625 2.4219-0.64062 0.46094-1.2266 0.46094-0.59375 0-1.0391-0.52344-0.4375-0.53125-0.4375-1.4375 0-1.1641 0.74219-2.4844 0.74219-1.3203 1.9609-2.1484 0.96094-0.66406 1.7656-0.66406 0.42188 0 0.72656 0.17188t0.60156 0.57031l0.76562-2.7188q0.085937-0.28906 0.14062-0.46094 0.09375-0.3125 0.09375-0.51562 0-0.16406-0.11719-0.27344-0.16406-0.13281-0.42188-0.13281-0.17969 0-0.59375 0.054688v-0.28906zm-2.8984 5.5469q0-0.5-0.28906-0.80469t-0.73438-0.30469q-0.98438 0-2.0547 1.625-1.0625 1.625-1.0625 3.1094 0 0.58594 0.25781 0.89844 0.25781 0.30469 0.61719 0.30469 0.8125 0 2.0391-1.7578t1.2266-3.0703z"/><path d="m14.002 0.51562 3.2734 8.3047 1.7734-6.2031q0.21875-0.76562 0.21875-1.1875 0-0.28906-0.20312-0.45312t-0.75781-0.16406q-0.09375 0-0.19531-0.007813l0.08594-0.28906h3.4062l-0.09375 0.28906q-0.53125-0.007813-0.78906 0.10938-0.36719 0.16406-0.54688 0.42188-0.25 0.36719-0.50781 1.2812l-2.4922 8.7344h-0.28125l-3.5234-8.9375-1.8828 6.6016q-0.21094 0.75-0.21094 1.1484 0 0.29688 0.1875 0.45312 0.19531 0.14844 0.91406 0.20312l-0.07813 0.28906h-3.3281l0.10938-0.28906q0.625-0.01563 0.83594-0.10938 0.32031-0.14062 0.47656-0.36719 0.22656-0.34375 0.50781-1.3281l2.1016-7.3672q-0.30469-0.46875-0.65625-0.64062-0.34375-0.17969-1.0781-0.20312l0.08594-0.28906z"/></g><path d="m7.8922 20.97h22.157m44.481 0h42.898" fill="none" stroke="#fff" stroke-linecap="round" stroke-linejoin="round" stroke-opacity=".65098" stroke-width=".66638px"/><g fill="#fff" fill-opacity=".65"><g transform="translate(7.5591 3.7795)" aria-label="−"><path d="m92.758 6.1094h-8.4219v-0.64062h8.4219z" fill="#fff" fill-opacity=".65"/></g><g transform="translate(7.5591 3.7795)" aria-label="="><path d="m27.527 14.29h8.4297v0.64062h-8.4297zm0 2.5469h8.4297v0.64062h-8.4297z" fill="#fff" fill-opacity=".65"/></g><g transform="translate(7.5591 3.7795)" aria-label="K"><path d="m87.782 27.659 2.625 4.0547q0.70312 1.0781 1.1641 1.3828 0.46094 0.29688 1.2109 0.29688l-0.08594 0.28906h-4.5156l0.07031-0.28906q0.53906-0.05469 0.75781-0.25781 0.22656-0.20312 0.22656-0.46094 0-0.23438-0.07813-0.45312-0.0625-0.15625-0.45312-0.76562l-2.1484-3.3672-1.0391 3.5078q-0.25781 0.84375-0.25781 1.1328 0 0.29688 0.21875 0.45312t1.0781 0.21094l-0.125 0.28906h-4.1875l0.10156-0.28906q0.60938-0.01563 0.82031-0.10938 0.3125-0.14062 0.46094-0.35938 0.20312-0.32031 0.5-1.3281l1.8672-6.3984q0.21094-0.73438 0.21094-1.1797 0-0.3125-0.20312-0.47656-0.19531-0.16406-0.77344-0.16406h-0.15625l0.09375-0.28906h3.9766l-0.07813 0.28906q-0.49219-0.0078-0.73438 0.10938-0.33594 0.16406-0.49219 0.42188-0.15625 0.25781-0.46094 1.2891l-0.82031 2.7188 3.7656-2.8359q0.75-0.5625 0.98438-0.89062 0.14062-0.20312 0.14062-0.36719 0-0.14062-0.14844-0.27344-0.14062-0.13281-0.4375-0.17188l0.07813-0.28906h3.3906l-0.07031 0.28906q-0.55469 0.09375-0.9375 0.25-0.375 0.14844-0.77344 0.41406-0.11719 0.07813-1.5234 1.1562z" fill="#fff" fill-opacity=".65"/></g><g transform="translate(7.5591 3.7795)" aria-label="N"><path d="m101.38 0.51562 3.2734 8.3047 1.7734-6.2031q0.21875-0.76562 0.21875-1.1875 0-0.28906-0.20312-0.45312-0.20313-0.16406-0.75781-0.16406-0.0937 0-0.19532-0.007813l0.0859-0.28906h3.4062l-0.0937 0.28906q-0.53125-0.007813-0.78906 0.10938-0.36719 0.16406-0.54688 0.42188-0.25 0.36719-0.50781 1.2812l-2.4922 8.7344h-0.28125l-3.5234-8.9375-1.8828 6.6016q-0.21094 0.75-0.21094 1.1484 0 0.29688 0.1875 0.45312 0.19531 0.14844 0.91406 0.20312l-0.07813 0.28906h-3.3281l0.10938-0.28906q0.625-0.01563 0.83594-0.10938 0.32031-0.14062 0.47656-0.36719 0.22657-0.34375 0.50782-1.3281l2.1016-7.3672q-0.30469-0.46875-0.65625-0.64062-0.34375-0.17969-1.0781-0.20312l0.08594-0.28906z" fill="#fff" fill-opacity=".65"/></g><g transform="translate(7.5591 3.7795)" aria-label="K"><path d="m73.663 5.0859 2.625 4.0547q0.70312 1.0781 1.1641 1.3828 0.46094 0.29688 1.2109 0.29688l-0.08594 0.28906h-4.5156l0.07031-0.28906q0.53906-0.05469 0.75781-0.25781 0.22656-0.20312 0.22656-0.46094 0-0.23438-0.07813-0.45313-0.0625-0.15625-0.45312-0.76562l-2.1484-3.3672-1.0391 3.5078q-0.25781 0.84375-0.25781 1.1328 0 0.29688 0.21875 0.45312t1.0781 0.21094l-0.125 0.28906h-4.1875l0.10156-0.28906q0.60938-0.01563 0.82031-0.10938 0.3125-0.14062 0.46094-0.35938 0.20312-0.32031 0.5-1.3281l1.8672-6.3984q0.21094-0.73438 0.21094-1.1797 0-0.3125-0.20312-0.47656-0.19531-0.16406-0.77344-0.16406h-0.15625l0.09375-0.28906h3.9766l-0.07813 0.28906q-0.49218-0.0078125-0.73437 0.10938-0.33594 0.16406-0.49219 0.42188t-0.46094 1.2891l-0.82031 2.7188 3.7656-2.8359q0.75-0.5625 0.98438-0.89062 0.14062-0.20312 0.14062-0.36719 0-0.14062-0.14844-0.27344-0.14062-0.13281-0.4375-0.17188l0.07813-0.28906h3.3906l-0.07031 0.28906q-0.55469 0.09375-0.9375 0.25-0.375 0.14844-0.77344 0.41406-0.11719 0.078125-1.5234 1.1562z" fill="#fff" fill-opacity=".65"/></g><g transform="translate(7.5591 3.7795)" aria-label="rN"><path d="m41.068 14.556 2.6953-0.4375-1.125 3.7969q1.3672-2.3359 2.4844-3.2656 0.63281-0.53125 1.0312-0.53125 0.25781 0 0.40625 0.15625 0.14844 0.14844 0.14844 0.4375 0 0.51562-0.26562 0.98438-0.1875 0.35156-0.53906 0.35156-0.17969 0-0.3125-0.11719-0.125-0.11719-0.15625-0.35938-0.01563-0.14844-0.07031-0.19531-0.0625-0.0625-0.14844-0.0625-0.13281 0-0.25 0.0625-0.20312 0.10938-0.61719 0.60938-0.64844 0.76562-1.4062 1.9844-0.32812 0.51562-0.5625 1.1641-0.32812 0.89062-0.375 1.0703l-0.25 0.98438h-1.1953l1.4453-4.8516q0.25-0.84375 0.25-1.2031 0-0.14062-0.11719-0.23438-0.15625-0.125-0.41406-0.125-0.16406 0-0.60156 0.07031z"/><path d="m51.045 10.595 3.2734 8.3047 1.7734-6.2031q0.21875-0.76562 0.21875-1.1875 0-0.28906-0.20312-0.45312-0.20312-0.16406-0.75781-0.16406-0.09375 0-0.19531-0.0078l0.08594-0.28906h3.4062l-0.09375 0.28906q-0.53125-0.0078-0.78906 0.10938-0.36719 0.16406-0.54688 0.42188-0.25 0.36719-0.50781 1.2812l-2.4922 8.7344h-0.28125l-3.5234-8.9375-1.8828 6.6016q-0.21094 0.75-0.21094 1.1484 0 0.29688 0.1875 0.45312 0.19531 0.14844 0.91406 0.20312l-0.07813 0.28906h-3.3281l0.10938-0.28906q0.625-0.01563 0.83594-0.10938 0.32031-0.14062 0.47656-0.36719 0.22656-0.34375 0.50781-1.3281l2.1016-7.3672q-0.30469-0.46875-0.65625-0.64062-0.34375-0.17969-1.0781-0.20312l0.08594-0.28906z"/></g><g transform="translate(7.5591 3.7795)" aria-label="dt"><path d="m13.571 22.574-2.6875 9.2188q-0.21875 0.75-0.21875 0.98438 0 0.07813 0.0625 0.14844 0.07031 0.07031 0.14062 0.07031 0.10156 0 0.24219-0.10156 0.26562-0.1875 0.89062-0.9375l0.26562 0.16406q-0.5625 0.78125-1.1406 1.2656-0.57031 0.48438-1.0703 0.48438-0.26562 0-0.4375-0.1875t-0.17188-0.53125q0-0.44531 0.23438-1.1953l0.30469-0.96875q-1.1328 1.75-2.0625 2.4219-0.64062 0.46094-1.2266 0.46094-0.59375 0-1.0391-0.52344-0.4375-0.53125-0.4375-1.4375 0-1.1641 0.74219-2.4844 0.74219-1.3203 1.9609-2.1484 0.96094-0.66406 1.7656-0.66406 0.42187 0 0.72656 0.17188 0.30469 0.17188 0.60156 0.57031l0.76562-2.7188q0.08594-0.28906 0.14062-0.46094 0.09375-0.3125 0.09375-0.51562 0-0.16406-0.11719-0.27344-0.16406-0.13281-0.42188-0.13281-0.17969 0-0.59375 0.05469v-0.28906zm-2.8984 5.5469q0-0.5-0.28906-0.80469-0.28906-0.30469-0.73438-0.30469-0.98438 0-2.0547 1.625-1.0625 1.625-1.0625 3.1094 0 0.58594 0.25781 0.89844 0.25781 0.30469 0.61719 0.30469 0.8125 0 2.0391-1.7578 1.2266-1.7578 1.2266-3.0703z"/><path d="m17.071 24.675-0.60938 2.125h1.2266l-0.13281 0.49219h-1.2188l-1.3438 4.6094q-0.21875 0.74219-0.21875 0.96094 0 0.13281 0.0625 0.20312 0.0625 0.07031 0.14844 0.07031 0.19531 0 0.51562-0.27344 0.1875-0.15625 0.83594-0.96094l0.25781 0.19531q-0.71875 1.0469-1.3594 1.4766-0.4375 0.29688-0.88281 0.29688-0.34375 0-0.5625-0.21094-0.21875-0.21875-0.21875-0.55469 0-0.42188 0.25-1.2891l1.3047-4.5234h-1.1797l0.07813-0.30469q0.85938-0.23438 1.4297-0.69531 0.57031-0.46875 1.2734-1.6172z"/></g></g></svg>
