<?xml version="1.0" encoding="UTF-8"?>
<svg width="600" height="300" version="1.1" viewBox="0 0 600 300" xmlns="http://www.w3.org/2000/svg" xmlns:xlink="http://www.w3.org/1999/xlink"><path id="a" d="m80 50v200h200" color="#000000" fill="none" opacity=".5" stop-color="#000000" stroke="#000" stroke-linecap="round" stroke-linejoin="round" stroke-miterlimit="10" stroke-width="5"/><use transform="translate(280)" width="100%" height="100%" xlink:href="#a"/><g fill="#333" stroke-width="1px"><g transform="translate(-10 -38.683)" color="#000000" style="shape-inside:url(#rect1487);white-space:pre" aria-label="Size"><path d="m170.21 313.78 1.9062-0.16667q0.13542 1.1458 0.625 1.8854 0.5 0.72916 1.5417 1.1875 1.0417 0.44791 2.3438 0.44791 1.1562 0 2.0417-0.34375 0.88542-0.34375 1.3125-0.9375 0.4375-0.60416 0.4375-1.3125 0-0.71875-0.41666-1.25-0.41667-0.54167-1.375-0.90625-0.61458-0.23958-2.7188-0.73958-2.1042-0.51042-2.9479-0.95834-1.0938-0.57291-1.6354-1.4167-0.53125-0.85417-0.53125-1.9062 0-1.1562 0.65625-2.1562 0.65624-1.0104 1.9167-1.5312 1.2604-0.52083 2.8021-0.52083 1.6979 0 2.9896 0.55208 1.3021 0.54166 2 1.6042 0.69792 1.0625 0.75 2.4062l-1.9375 0.14583q-0.15625-1.4479-1.0625-2.1875-0.89583-0.73959-2.6562-0.73959-1.8333 0-2.6771 0.67709-0.83333 0.66666-0.83333 1.6146 0 0.82291 0.59375 1.3542 0.58333 0.53125 3.0417 1.0938 2.4688 0.55208 3.3854 0.96875 1.3333 0.61458 1.9688 1.5625 0.63542 0.93749 0.63542 2.1667 0 1.2188-0.69792 2.3021-0.69792 1.0729-2.0104 1.6771-1.3021 0.59375-2.9375 0.59375-2.0729 0-3.4792-0.60417-1.3958-0.60416-2.1979-1.8125-0.79167-1.2188-0.83334-2.75z"/><path d="m184.9 305.57v-2.1562h1.875v2.1562zm0 13.115v-11.062h1.875v11.062z"/><path d="m188.64 318.68v-1.5208l7.0416-8.0833q-1.1979 0.0625-2.1146 0.0625h-4.5104v-1.5208h9.0417v1.2396l-5.9896 7.0208-1.1562 1.2812q1.2604-0.0937 2.3646-0.0937h5.1146v1.6146z"/><path d="m207.86 315.12 1.9375 0.23958q-0.45833 1.6979-1.6979 2.6354t-3.1667 0.9375q-2.4271 0-3.8542-1.4896-1.4167-1.5-1.4167-4.1979 0-2.7917 1.4375-4.3333 1.4375-1.5417 3.7292-1.5417 2.2188 0 3.625 1.5104 1.4062 1.5104 1.4062 4.25 0 0.16666-0.0104 0.5h-8.25q0.10417 1.8229 1.0312 2.7917t2.3125 0.96875q1.0312 0 1.7604-0.54167 0.72916-0.54166 1.1562-1.7292zm-6.1562-3.0312h6.1771q-0.125-1.3958-0.70833-2.0937-0.89584-1.0833-2.3229-1.0833-1.2917 0-2.1771 0.86459-0.87499 0.86458-0.96874 2.3125z"/></g><g transform="rotate(-90 40.659 299.34)" color="#000000" style="shape-inside:url(#rect1495);white-space:pre" aria-label="Frequency"><path d="m141.35 318.68v-15.271h10.302v1.8021h-8.2812v4.7292h7.1667v1.8021h-7.1667v6.9375z"/><path d="m154.02 318.68v-11.062h1.6875v1.6771q0.64583-1.1771 1.1875-1.5521 0.55208-0.375 1.2083-0.375 0.94791 0 1.9271 0.60417l-0.64584 1.7396q-0.68749-0.40625-1.375-0.40625-0.61459 0-1.1042 0.375-0.48958 0.36458-0.69791 1.0208-0.3125 1-0.3125 2.1875v5.7917z"/><path d="m168.72 315.12 1.9375 0.23958q-0.45833 1.6979-1.6979 2.6354-1.2396 0.9375-3.1667 0.9375-2.4271 0-3.8542-1.4896-1.4167-1.5-1.4167-4.1979 0-2.7917 1.4375-4.3333 1.4375-1.5417 3.7292-1.5417 2.2187 0 3.625 1.5104 1.4062 1.5104 1.4062 4.25 0 0.16666-0.0104 0.5h-8.25q0.10416 1.8229 1.0312 2.7917 0.92709 0.96875 2.3125 0.96875 1.0312 0 1.7604-0.54167 0.72917-0.54166 1.1562-1.7292zm-6.1562-3.0312h6.1771q-0.125-1.3958-0.70834-2.0937-0.89583-1.0833-2.3229-1.0833-1.2917 0-2.1771 0.86459-0.875 0.86458-0.96875 2.3125z"/><path d="m180.06 322.92v-5.4167q-0.4375 0.61458-1.2292 1.0208-0.78125 0.40625-1.6667 0.40625-1.9688 0-3.3958-1.5729-1.4167-1.5729-1.4167-4.3125 0-1.6667 0.57291-2.9896 0.58333-1.3229 1.6771-2 1.1042-0.6875 2.4167-0.6875 2.0521 0 3.2292 1.7292v-1.4792h1.6875v15.302zm-5.7812-9.8021q0 2.1354 0.89583 3.2083 0.89583 1.0625 2.1458 1.0625 1.1979 0 2.0625-1.0104 0.86459-1.0208 0.86459-3.0937 0-2.2083-0.91667-3.3229-0.90625-1.1146-2.1354-1.1146-1.2188 0-2.0729 1.0417-0.84374 1.0312-0.84374 3.2292z"/><path d="m192.12 318.68v-1.625q-1.2917 1.875-3.5104 1.875-0.97916 0-1.8333-0.375-0.84374-0.375-1.2604-0.9375-0.40625-0.57291-0.57292-1.3958-0.11458-0.55208-0.11458-1.75v-6.8542h1.875v6.1354q0 1.4687 0.11458 1.9792 0.17708 0.73958 0.75 1.1667 0.57292 0.41667 1.4167 0.41667 0.84375 0 1.5833-0.42708 0.73958-0.4375 1.0417-1.1771 0.3125-0.75 0.3125-2.1667v-5.9271h1.875v11.062z"/><path d="m204.31 315.12 1.9375 0.23958q-0.45834 1.6979-1.6979 2.6354t-3.1667 0.9375q-2.4271 0-3.8542-1.4896-1.4167-1.5-1.4167-4.1979 0-2.7917 1.4375-4.3333 1.4375-1.5417 3.7292-1.5417 2.2188 0 3.625 1.5104 1.4062 1.5104 1.4062 4.25 0 0.16666-0.0104 0.5h-8.25q0.10417 1.8229 1.0312 2.7917t2.3125 0.96875q1.0312 0 1.7604-0.54167 0.72917-0.54166 1.1562-1.7292zm-6.1562-3.0312h6.1771q-0.125-1.3958-0.70833-2.0937-0.89583-1.0833-2.3229-1.0833-1.2917 0-2.1771 0.86459-0.875 0.86458-0.96875 2.3125z"/><path d="m208.6 318.68v-11.062h1.6875v1.5729q1.2188-1.8229 3.5208-1.8229 1 0 1.8333 0.36458 0.84375 0.35417 1.2604 0.9375 0.41666 0.58333 0.58333 1.3854 0.10417 0.52083 0.10417 1.8229v6.8021h-1.875v-6.7292q0-1.1458-0.21875-1.7083-0.21875-0.57292-0.78125-0.90625-0.55208-0.34375-1.3021-0.34375-1.1979 0-2.0729 0.76041-0.86459 0.76042-0.86459 2.8854v6.0417z"/><path d="m227.69 314.63 1.8438 0.23958q-0.30209 1.9062-1.5521 2.9896-1.2396 1.0729-3.0521 1.0729-2.2708 0-3.6562-1.4792-1.375-1.4896-1.375-4.2604 0-1.7917 0.59375-3.1354 0.59375-1.3438 1.8021-2.0104 1.2188-0.67708 2.6458-0.67708 1.8021 0 2.9479 0.91667 1.1458 0.90624 1.4687 2.5833l-1.8229 0.28125q-0.26042-1.1146-0.92708-1.6771-0.65625-0.5625-1.5938-0.5625-1.4167 0-2.3021 1.0208-0.88542 1.0104-0.88542 3.2083 0 2.2292 0.85417 3.2396 0.85417 1.0104 2.2292 1.0104 1.1042 0 1.8438-0.67708 0.73958-0.67709 0.9375-2.0833z"/><path d="m231.05 322.94-0.20833-1.7604q0.61458 0.16666 1.0729 0.16666 0.62499 0 0.99999-0.20833t0.61459-0.58333q0.17708-0.28125 0.57291-1.3958 0.0521-0.15625 0.16667-0.45833l-4.1979-11.083h2.0208l2.3021 6.4062q0.44791 1.2188 0.80208 2.5625 0.32292-1.2917 0.77083-2.5208l2.3646-6.4479h1.875l-4.2083 11.25q-0.67708 1.8229-1.0521 2.5104-0.5 0.92709-1.1458 1.3542-0.64583 0.4375-1.5417 0.4375-0.54166 0-1.2083-0.22917z"/></g><g transform="translate(-10 -278.68)" color="#000000" style="shape-inside:url(#rect1501);white-space:pre" aria-label="r-strategists"><path d="m134.99 318.73 2.3125-11.062h1.6667l-0.46875 2.2604q0.85416-1.2812 1.6667-1.8958 0.82292-0.61459 1.6771-0.61459 0.5625 0 1.3854 0.40625l-0.77083 1.75q-0.48959-0.35416-1.0729-0.35416-0.98958 0-2.0312 1.1042-1.0417 1.1042-1.6354 3.9687l-0.9375 4.4375z"/><g fill="#333"><path d="m142.07 314.15v-1.8854h5.7604v1.8854z"/><path d="m149.15 315.43 1.8542-0.29167q0.15625 1.1146 0.86458 1.7083 0.71875 0.59375 2 0.59375 1.2917 0 1.9167-0.52083 0.625-0.53125 0.625-1.2396 0-0.63542-0.55208-1-0.38542-0.25-1.9167-0.63542-2.0625-0.52083-2.8646-0.89583-0.79167-0.38541-1.2083-1.0521-0.40625-0.67708-0.40625-1.4896 0-0.73958 0.33333-1.3646 0.34375-0.63542 0.92708-1.0521 0.4375-0.32292 1.1875-0.54167 0.76041-0.22917 1.625-0.22917 1.3021 0 2.2812 0.375 0.98958 0.375 1.4583 1.0208 0.46875 0.63541 0.64584 1.7083l-1.8333 0.25q-0.125-0.85417-0.72917-1.3333-0.59375-0.47916-1.6875-0.47916-1.2917 0-1.8437 0.42708-0.55209 0.42708-0.55209 1 0 0.36458 0.22917 0.65625 0.22917 0.30208 0.71875 0.5 0.28125 0.10416 1.6562 0.47916 1.9896 0.53125 2.7708 0.875 0.79167 0.33334 1.2396 0.97917 0.44791 0.64583 0.44791 1.6042 0 0.9375-0.55208 1.7708-0.54167 0.82292-1.5729 1.2812-1.0312 0.44792-2.3333 0.44792-2.1562 0-3.2917-0.89584-1.125-0.89583-1.4375-2.6562z"/><path d="m164.66 317.06 0.27083 1.6562q-0.79166 0.16667-1.4167 0.16667-1.0208 0-1.5833-0.32292-0.5625-0.32291-0.79167-0.84374-0.22916-0.53125-0.22916-2.2188v-6.3646h-1.375v-1.4583h1.375v-2.7396l1.8646-1.125v3.8646h1.8854v1.4583h-1.8854v6.4687q0 0.80208 0.0937 1.0312 0.10416 0.22917 0.32291 0.36459 0.22917 0.13541 0.64583 0.13541 0.3125 0 0.82292-0.0729z"/><path d="m166.47 318.73v-11.062h1.6875v1.6771q0.64583-1.1771 1.1875-1.5521 0.55208-0.375 1.2083-0.375 0.94792 0 1.9271 0.60417l-0.64583 1.7396q-0.6875-0.40625-1.375-0.40625-0.61458 0-1.1042 0.375-0.48959 0.36458-0.69792 1.0208-0.3125 1-0.3125 2.1875v5.7917z"/><path d="m180.82 317.37q-1.0417 0.88541-2.0104 1.25-0.95833 0.36459-2.0625 0.36459-1.8229 0-2.8021-0.88542-0.97916-0.89583-0.97916-2.2812 0-0.81249 0.36458-1.4792 0.375-0.67708 0.96875-1.0833 0.60416-0.40625 1.3542-0.61458 0.55209-0.14584 1.6667-0.28125 2.2708-0.27084 3.3437-0.64584 0.0104-0.38541 0.0104-0.48958 0-1.1458-0.53125-1.6146-0.71875-0.63541-2.1354-0.63541-1.3229 0-1.9583 0.46874-0.625 0.45834-0.92709 1.6354l-1.8333-0.25q0.25-1.1771 0.82292-1.8958 0.57291-0.72917 1.6562-1.1146 1.0833-0.39584 2.5104-0.39584 1.4167 0 2.3021 0.33334 0.88541 0.33333 1.3021 0.84375 0.41667 0.5 0.58333 1.2708 0.0937 0.47916 0.0937 1.7292v2.5q0 2.6146 0.11459 3.3125 0.125 0.6875 0.47916 1.3229h-1.9583q-0.29167-0.58334-0.375-1.3646zm-0.15625-4.1875q-1.0208 0.41667-3.0625 0.70833-1.1562 0.16667-1.6354 0.375-0.47916 0.20834-0.73958 0.61459-0.26042 0.39583-0.26042 0.88541 0 0.75 0.5625 1.25 0.57292 0.5 1.6667 0.5 1.0833 0 1.9271-0.46875 0.84375-0.47917 1.2396-1.3021 0.30208-0.63542 0.30208-1.875z"/><path d="m189.56 317.06 0.27084 1.6562q-0.79167 0.16667-1.4167 0.16667-1.0208 0-1.5833-0.32292-0.5625-0.32291-0.79166-0.84374-0.22917-0.53125-0.22917-2.2188v-6.3646h-1.375v-1.4583h1.375v-2.7396l1.8646-1.125v3.8646h1.8854v1.4583h-1.8854v6.4687q0 0.80208 0.0937 1.0312 0.10417 0.22917 0.32292 0.36459 0.22916 0.13541 0.64583 0.13541 0.3125 0 0.82291-0.0729z"/><path d="m198.96 315.17 1.9375 0.23959q-0.45834 1.6979-1.6979 2.6354t-3.1667 0.9375q-2.4271 0-3.8542-1.4896-1.4167-1.5-1.4167-4.1979 0-2.7917 1.4375-4.3333 1.4375-1.5417 3.7292-1.5417 2.2188 0 3.625 1.5104 1.4062 1.5104 1.4062 4.25 0 0.16667-0.0104 0.5h-8.25q0.10417 1.8229 1.0312 2.7917 0.92708 0.96875 2.3125 0.96875 1.0312 0 1.7604-0.54166 0.72917-0.54167 1.1562-1.7292zm-6.1562-3.0312h6.1771q-0.125-1.3958-0.70833-2.0938-0.89583-1.0833-2.3229-1.0833-1.2917 0-2.1771 0.86458-0.875 0.86458-0.96875 2.3125z"/><path d="m202.91 319.65 1.8229 0.27083q0.11458 0.84375 0.63542 1.2292 0.69791 0.52083 1.9062 0.52083 1.3021 0 2.0104-0.52083t0.95833-1.4583q0.14583-0.57292 0.13542-2.4062-1.2292 1.4479-3.0625 1.4479-2.2812 0-3.5312-1.6458-1.25-1.6458-1.25-3.9479 0-1.5833 0.57291-2.9167 0.57292-1.3437 1.6562-2.0729 1.0938-0.72917 2.5625-0.72917 1.9583 0 3.2292 1.5833v-1.3333h1.7292v9.5625q0 2.5833-0.53125 3.6562-0.52083 1.0833-1.6667 1.7083-1.1354 0.625-2.8021 0.625-1.9792 0-3.1979-0.89583-1.2188-0.88541-1.1771-2.6771zm1.5521-6.6458q0 2.1771 0.86458 3.1771t2.1667 1q1.2917 0 2.1667-0.98959 0.875-0.99999 0.875-3.125 0-2.0312-0.90625-3.0625-0.89583-1.0312-2.1667-1.0312-1.25 0-2.125 1.0208-0.875 1.0104-0.875 3.0104z"/><path d="m215.13 305.62v-2.1562h1.875v2.1562zm0 13.115v-11.062h1.875v11.062z"/><path d="m219.11 315.43 1.8542-0.29167q0.15625 1.1146 0.86459 1.7083 0.71874 0.59375 2 0.59375 1.2917 0 1.9167-0.52083 0.62499-0.53125 0.62499-1.2396 0-0.63542-0.55208-1-0.38541-0.25-1.9167-0.63542-2.0625-0.52083-2.8646-0.89583-0.79167-0.38541-1.2083-1.0521-0.40625-0.67708-0.40625-1.4896 0-0.73958 0.33333-1.3646 0.34375-0.63542 0.92708-1.0521 0.4375-0.32292 1.1875-0.54167 0.76042-0.22917 1.625-0.22917 1.3021 0 2.2812 0.375 0.98958 0.375 1.4583 1.0208 0.46875 0.63541 0.64583 1.7083l-1.8333 0.25q-0.125-0.85417-0.72917-1.3333-0.59375-0.47916-1.6875-0.47916-1.2917 0-1.8438 0.42708t-0.55208 1q0 0.36458 0.22916 0.65625 0.22917 0.30208 0.71875 0.5 0.28125 0.10416 1.6562 0.47916 1.9896 0.53125 2.7708 0.875 0.79166 0.33334 1.2396 0.97917t0.44792 1.6042q0 0.9375-0.55209 1.7708-0.54166 0.82292-1.5729 1.2812-1.0312 0.44792-2.3333 0.44792-2.1562 0-3.2917-0.89584-1.125-0.89583-1.4375-2.6562z"/><path d="m234.62 317.06 0.27083 1.6562q-0.79166 0.16667-1.4167 0.16667-1.0208 0-1.5833-0.32292-0.5625-0.32291-0.79167-0.84374-0.22916-0.53125-0.22916-2.2188v-6.3646h-1.375v-1.4583h1.375v-2.7396l1.8646-1.125v3.8646h1.8854v1.4583h-1.8854v6.4687q0 0.80208 0.0937 1.0312 0.10416 0.22917 0.32291 0.36459 0.22917 0.13541 0.64584 0.13541 0.3125 0 0.82291-0.0729z"/><path d="m235.7 315.43 1.8542-0.29167q0.15625 1.1146 0.86458 1.7083 0.71875 0.59375 2 0.59375 1.2917 0 1.9167-0.52083 0.625-0.53125 0.625-1.2396 0-0.63542-0.55208-1-0.38542-0.25-1.9167-0.63542-2.0625-0.52083-2.8646-0.89583-0.79167-0.38541-1.2083-1.0521-0.40625-0.67708-0.40625-1.4896 0-0.73958 0.33333-1.3646 0.34375-0.63542 0.92708-1.0521 0.4375-0.32292 1.1875-0.54167 0.76041-0.22917 1.625-0.22917 1.3021 0 2.2812 0.375 0.98958 0.375 1.4583 1.0208 0.46875 0.63541 0.64584 1.7083l-1.8333 0.25q-0.125-0.85417-0.72917-1.3333-0.59375-0.47916-1.6875-0.47916-1.2917 0-1.8437 0.42708-0.55209 0.42708-0.55209 1 0 0.36458 0.22917 0.65625 0.22917 0.30208 0.71875 0.5 0.28125 0.10416 1.6562 0.47916 1.9896 0.53125 2.7708 0.875 0.79167 0.33334 1.2396 0.97917 0.44791 0.64583 0.44791 1.6042 0 0.9375-0.55208 1.7708-0.54167 0.82292-1.5729 1.2812-1.0312 0.44792-2.3333 0.44792-2.1562 0-3.2917-0.89584-1.125-0.89583-1.4375-2.6562z"/></g></g><g transform="translate(270 -38.683)" color="#000000" style="shape-inside:url(#rect1515);white-space:pre" aria-label="Size"><path d="m170.21 313.78 1.9062-0.16667q0.13542 1.1458 0.625 1.8854 0.5 0.72916 1.5417 1.1875 1.0417 0.44791 2.3438 0.44791 1.1562 0 2.0417-0.34375 0.88542-0.34375 1.3125-0.9375 0.4375-0.60416 0.4375-1.3125 0-0.71875-0.41666-1.25-0.41667-0.54167-1.375-0.90625-0.61458-0.23958-2.7188-0.73958-2.1042-0.51042-2.9479-0.95834-1.0938-0.57291-1.6354-1.4167-0.53125-0.85417-0.53125-1.9062 0-1.1562 0.65625-2.1562 0.65624-1.0104 1.9167-1.5312 1.2604-0.52083 2.8021-0.52083 1.6979 0 2.9896 0.55208 1.3021 0.54166 2 1.6042 0.69792 1.0625 0.75 2.4062l-1.9375 0.14583q-0.15625-1.4479-1.0625-2.1875-0.89583-0.73959-2.6562-0.73959-1.8333 0-2.6771 0.67709-0.83333 0.66666-0.83333 1.6146 0 0.82291 0.59375 1.3542 0.58333 0.53125 3.0417 1.0938 2.4688 0.55208 3.3854 0.96875 1.3333 0.61458 1.9688 1.5625 0.63542 0.93749 0.63542 2.1667 0 1.2188-0.69792 2.3021-0.69792 1.0729-2.0104 1.6771-1.3021 0.59375-2.9375 0.59375-2.0729 0-3.4792-0.60417-1.3958-0.60416-2.1979-1.8125-0.79167-1.2188-0.83334-2.75z"/><path d="m184.9 305.57v-2.1562h1.875v2.1562zm0 13.115v-11.062h1.875v11.062z"/><path d="m188.64 318.68v-1.5208l7.0416-8.0833q-1.1979 0.0625-2.1146 0.0625h-4.5104v-1.5208h9.0417v1.2396l-5.9896 7.0208-1.1562 1.2812q1.2604-0.0937 2.3646-0.0937h5.1146v1.6146z"/><path d="m207.86 315.12 1.9375 0.23958q-0.45833 1.6979-1.6979 2.6354t-3.1667 0.9375q-2.4271 0-3.8542-1.4896-1.4167-1.5-1.4167-4.1979 0-2.7917 1.4375-4.3333 1.4375-1.5417 3.7292-1.5417 2.2188 0 3.625 1.5104 1.4062 1.5104 1.4062 4.25 0 0.16666-0.0104 0.5h-8.25q0.10417 1.8229 1.0312 2.7917t2.3125 0.96875q1.0312 0 1.7604-0.54167 0.72916-0.54166 1.1562-1.7292zm-6.1562-3.0312h6.1771q-0.125-1.3958-0.70833-2.0937-0.89584-1.0833-2.3229-1.0833-1.2917 0-2.1771 0.86459-0.87499 0.86458-0.96874 2.3125z"/></g><g transform="rotate(-90 180.66 159.34)" color="#000000" style="shape-inside:url(#rect1517);white-space:pre" aria-label="Frequency"><path d="m141.35 318.68v-15.271h10.302v1.8021h-8.2812v4.7292h7.1667v1.8021h-7.1667v6.9375z"/><path d="m154.02 318.68v-11.062h1.6875v1.6771q0.64583-1.1771 1.1875-1.5521 0.55208-0.375 1.2083-0.375 0.94791 0 1.9271 0.60417l-0.64584 1.7396q-0.68749-0.40625-1.375-0.40625-0.61459 0-1.1042 0.375-0.48958 0.36458-0.69791 1.0208-0.3125 1-0.3125 2.1875v5.7917z"/><path d="m168.72 315.12 1.9375 0.23958q-0.45833 1.6979-1.6979 2.6354-1.2396 0.9375-3.1667 0.9375-2.4271 0-3.8542-1.4896-1.4167-1.5-1.4167-4.1979 0-2.7917 1.4375-4.3333 1.4375-1.5417 3.7292-1.5417 2.2187 0 3.625 1.5104 1.4062 1.5104 1.4062 4.25 0 0.16666-0.0104 0.5h-8.25q0.10416 1.8229 1.0312 2.7917 0.92709 0.96875 2.3125 0.96875 1.0312 0 1.7604-0.54167 0.72917-0.54166 1.1562-1.7292zm-6.1562-3.0312h6.1771q-0.125-1.3958-0.70834-2.0937-0.89583-1.0833-2.3229-1.0833-1.2917 0-2.1771 0.86459-0.875 0.86458-0.96875 2.3125z"/><path d="m180.06 322.92v-5.4167q-0.4375 0.61458-1.2292 1.0208-0.78125 0.40625-1.6667 0.40625-1.9688 0-3.3958-1.5729-1.4167-1.5729-1.4167-4.3125 0-1.6667 0.57291-2.9896 0.58333-1.3229 1.6771-2 1.1042-0.6875 2.4167-0.6875 2.0521 0 3.2292 1.7292v-1.4792h1.6875v15.302zm-5.7812-9.8021q0 2.1354 0.89583 3.2083 0.89583 1.0625 2.1458 1.0625 1.1979 0 2.0625-1.0104 0.86459-1.0208 0.86459-3.0937 0-2.2083-0.91667-3.3229-0.90625-1.1146-2.1354-1.1146-1.2188 0-2.0729 1.0417-0.84374 1.0312-0.84374 3.2292z"/><path d="m192.12 318.68v-1.625q-1.2917 1.875-3.5104 1.875-0.97916 0-1.8333-0.375-0.84374-0.375-1.2604-0.9375-0.40625-0.57291-0.57292-1.3958-0.11458-0.55208-0.11458-1.75v-6.8542h1.875v6.1354q0 1.4687 0.11458 1.9792 0.17708 0.73958 0.75 1.1667 0.57292 0.41667 1.4167 0.41667 0.84375 0 1.5833-0.42708 0.73958-0.4375 1.0417-1.1771 0.3125-0.75 0.3125-2.1667v-5.9271h1.875v11.062z"/><path d="m204.31 315.12 1.9375 0.23958q-0.45834 1.6979-1.6979 2.6354t-3.1667 0.9375q-2.4271 0-3.8542-1.4896-1.4167-1.5-1.4167-4.1979 0-2.7917 1.4375-4.3333 1.4375-1.5417 3.7292-1.5417 2.2188 0 3.625 1.5104 1.4062 1.5104 1.4062 4.25 0 0.16666-0.0104 0.5h-8.25q0.10417 1.8229 1.0312 2.7917t2.3125 0.96875q1.0312 0 1.7604-0.54167 0.72917-0.54166 1.1562-1.7292zm-6.1562-3.0312h6.1771q-0.125-1.3958-0.70833-2.0937-0.89583-1.0833-2.3229-1.0833-1.2917 0-2.1771 0.86459-0.875 0.86458-0.96875 2.3125z"/><path d="m208.6 318.68v-11.062h1.6875v1.5729q1.2188-1.8229 3.5208-1.8229 1 0 1.8333 0.36458 0.84375 0.35417 1.2604 0.9375 0.41666 0.58333 0.58333 1.3854 0.10417 0.52083 0.10417 1.8229v6.8021h-1.875v-6.7292q0-1.1458-0.21875-1.7083-0.21875-0.57292-0.78125-0.90625-0.55208-0.34375-1.3021-0.34375-1.1979 0-2.0729 0.76041-0.86459 0.76042-0.86459 2.8854v6.0417z"/><path d="m227.69 314.63 1.8438 0.23958q-0.30209 1.9062-1.5521 2.9896-1.2396 1.0729-3.0521 1.0729-2.2708 0-3.6562-1.4792-1.375-1.4896-1.375-4.2604 0-1.7917 0.59375-3.1354 0.59375-1.3438 1.8021-2.0104 1.2188-0.67708 2.6458-0.67708 1.8021 0 2.9479 0.91667 1.1458 0.90624 1.4687 2.5833l-1.8229 0.28125q-0.26042-1.1146-0.92708-1.6771-0.65625-0.5625-1.5938-0.5625-1.4167 0-2.3021 1.0208-0.88542 1.0104-0.88542 3.2083 0 2.2292 0.85417 3.2396 0.85417 1.0104 2.2292 1.0104 1.1042 0 1.8438-0.67708 0.73958-0.67709 0.9375-2.0833z"/><path d="m231.05 322.94-0.20833-1.7604q0.61458 0.16666 1.0729 0.16666 0.62499 0 0.99999-0.20833t0.61459-0.58333q0.17708-0.28125 0.57291-1.3958 0.0521-0.15625 0.16667-0.45833l-4.1979-11.083h2.0208l2.3021 6.4062q0.44791 1.2188 0.80208 2.5625 0.32292-1.2917 0.77083-2.5208l2.3646-6.4479h1.875l-4.2083 11.25q-0.67708 1.8229-1.0521 2.5104-0.5 0.92709-1.1458 1.3542-0.64583 0.4375-1.5417 0.4375-0.54166 0-1.2083-0.22917z"/></g><g transform="translate(270 -278.68)" color="#000000" style="shape-inside:url(#rect1519);white-space:pre" aria-label="K-strategists"><path d="m131.67 318.73 3.1875-15.271h2.0417l-1.5312 7.3542 8.2916-7.3542h2.875l-7.0937 6.2187 5.1979 9.0521h-2.2812l-4.4062-7.7396-3.1979 2.7812-1.0417 4.9583z"/><g fill="#333"><path d="m145.63 314.15v-1.8854h5.7604v1.8854z"/><path d="m152.71 315.43 1.8542-0.29167q0.15625 1.1146 0.86459 1.7083 0.71875 0.59375 2 0.59375 1.2917 0 1.9167-0.52083 0.625-0.53125 0.625-1.2396 0-0.63542-0.55209-1-0.38541-0.25-1.9167-0.63542-2.0625-0.52083-2.8646-0.89583-0.79166-0.38541-1.2083-1.0521-0.40625-0.67708-0.40625-1.4896 0-0.73958 0.33333-1.3646 0.34375-0.63542 0.92708-1.0521 0.4375-0.32292 1.1875-0.54167 0.76042-0.22917 1.625-0.22917 1.3021 0 2.2812 0.375 0.98958 0.375 1.4583 1.0208 0.46875 0.63541 0.64583 1.7083l-1.8333 0.25q-0.125-0.85417-0.72917-1.3333-0.59374-0.47916-1.6875-0.47916-1.2917 0-1.8438 0.42708t-0.55208 1q0 0.36458 0.22916 0.65625 0.22917 0.30208 0.71875 0.5 0.28125 0.10416 1.6562 0.47916 1.9896 0.53125 2.7708 0.875 0.79166 0.33334 1.2396 0.97917t0.44792 1.6042q0 0.9375-0.55209 1.7708-0.54166 0.82292-1.5729 1.2812-1.0312 0.44792-2.3333 0.44792-2.1562 0-3.2917-0.89584-1.125-0.89583-1.4375-2.6562z"/><path d="m168.22 317.06 0.27084 1.6562q-0.79167 0.16667-1.4167 0.16667-1.0208 0-1.5833-0.32292-0.5625-0.32291-0.79166-0.84374-0.22917-0.53125-0.22917-2.2188v-6.3646h-1.375v-1.4583h1.375v-2.7396l1.8646-1.125v3.8646h1.8854v1.4583h-1.8854v6.4687q0 0.80208 0.0937 1.0312 0.10417 0.22917 0.32292 0.36459 0.22916 0.13541 0.64583 0.13541 0.3125 0 0.82291-0.0729z"/><path d="m170.04 318.73v-11.062h1.6875v1.6771q0.64583-1.1771 1.1875-1.5521 0.55208-0.375 1.2083-0.375 0.94791 0 1.9271 0.60417l-0.64583 1.7396q-0.6875-0.40625-1.375-0.40625-0.61458 0-1.1042 0.375-0.48958 0.36458-0.69791 1.0208-0.3125 1-0.3125 2.1875v5.7917z"/><path d="m184.38 317.37q-1.0417 0.88541-2.0104 1.25-0.95833 0.36459-2.0625 0.36459-1.8229 0-2.8021-0.88542-0.97917-0.89583-0.97917-2.2812 0-0.81249 0.36458-1.4792 0.375-0.67708 0.96875-1.0833 0.60417-0.40625 1.3542-0.61458 0.55208-0.14584 1.6667-0.28125 2.2708-0.27084 3.3438-0.64584 0.0104-0.38541 0.0104-0.48958 0-1.1458-0.53125-1.6146-0.71875-0.63541-2.1354-0.63541-1.3229 0-1.9583 0.46874-0.625 0.45834-0.92708 1.6354l-1.8333-0.25q0.25-1.1771 0.82291-1.8958 0.57292-0.72917 1.6562-1.1146 1.0833-0.39584 2.5104-0.39584 1.4167 0 2.3021 0.33334 0.88542 0.33333 1.3021 0.84375 0.41667 0.5 0.58334 1.2708 0.0937 0.47916 0.0937 1.7292v2.5q0 2.6146 0.11458 3.3125 0.125 0.6875 0.47917 1.3229h-1.9583q-0.29167-0.58334-0.375-1.3646zm-0.15625-4.1875q-1.0208 0.41667-3.0625 0.70833-1.1562 0.16667-1.6354 0.375-0.47917 0.20834-0.73959 0.61459-0.26041 0.39583-0.26041 0.88541 0 0.75 0.5625 1.25 0.57291 0.5 1.6667 0.5 1.0833 0 1.9271-0.46875 0.84375-0.47917 1.2396-1.3021 0.30209-0.63542 0.30209-1.875z"/><path d="m193.12 317.06 0.27083 1.6562q-0.79166 0.16667-1.4167 0.16667-1.0208 0-1.5833-0.32292-0.5625-0.32291-0.79167-0.84374-0.22917-0.53125-0.22917-2.2188v-6.3646h-1.375v-1.4583h1.375v-2.7396l1.8646-1.125v3.8646h1.8854v1.4583h-1.8854v6.4687q0 0.80208 0.0937 1.0312 0.10417 0.22917 0.32292 0.36459 0.22917 0.13541 0.64583 0.13541 0.3125 0 0.82292-0.0729z"/><path d="m202.53 315.17 1.9375 0.23959q-0.45833 1.6979-1.6979 2.6354-1.2396 0.9375-3.1667 0.9375-2.4271 0-3.8542-1.4896-1.4167-1.5-1.4167-4.1979 0-2.7917 1.4375-4.3333 1.4375-1.5417 3.7292-1.5417 2.2187 0 3.625 1.5104 1.4062 1.5104 1.4062 4.25 0 0.16667-0.0104 0.5h-8.25q0.10416 1.8229 1.0312 2.7917 0.92709 0.96875 2.3125 0.96875 1.0312 0 1.7604-0.54166 0.72916-0.54167 1.1562-1.7292zm-6.1562-3.0312h6.1771q-0.125-1.3958-0.70834-2.0938-0.89583-1.0833-2.3229-1.0833-1.2917 0-2.1771 0.86458-0.875 0.86458-0.96875 2.3125z"/><path d="m206.47 319.65 1.8229 0.27083q0.11458 0.84375 0.63542 1.2292 0.69791 0.52083 1.9062 0.52083 1.3021 0 2.0104-0.52083 0.70833-0.52083 0.95833-1.4583 0.14583-0.57292 0.13541-2.4062-1.2292 1.4479-3.0625 1.4479-2.2812 0-3.5312-1.6458-1.25-1.6458-1.25-3.9479 0-1.5833 0.57291-2.9167 0.57292-1.3437 1.6562-2.0729 1.0938-0.72917 2.5625-0.72917 1.9583 0 3.2292 1.5833v-1.3333h1.7292v9.5625q0 2.5833-0.53125 3.6562-0.52083 1.0833-1.6667 1.7083-1.1354 0.625-2.8021 0.625-1.9792 0-3.1979-0.89583-1.2188-0.88541-1.1771-2.6771zm1.5521-6.6458q0 2.1771 0.86458 3.1771t2.1667 1q1.2917 0 2.1667-0.98959 0.87499-0.99999 0.87499-3.125 0-2.0312-0.90624-3.0625-0.89584-1.0312-2.1667-1.0312-1.25 0-2.125 1.0208-0.875 1.0104-0.875 3.0104z"/><path d="m218.69 305.62v-2.1562h1.875v2.1562zm0 13.115v-11.062h1.875v11.062z"/><path d="m222.67 315.43 1.8542-0.29167q0.15625 1.1146 0.86458 1.7083 0.71875 0.59375 2 0.59375 1.2917 0 1.9167-0.52083 0.625-0.53125 0.625-1.2396 0-0.63542-0.55208-1-0.38542-0.25-1.9167-0.63542-2.0625-0.52083-2.8646-0.89583-0.79167-0.38541-1.2083-1.0521-0.40625-0.67708-0.40625-1.4896 0-0.73958 0.33333-1.3646 0.34375-0.63542 0.92708-1.0521 0.4375-0.32292 1.1875-0.54167 0.76042-0.22917 1.625-0.22917 1.3021 0 2.2812 0.375 0.98959 0.375 1.4583 1.0208 0.46875 0.63541 0.64584 1.7083l-1.8333 0.25q-0.125-0.85417-0.72917-1.3333-0.59375-0.47916-1.6875-0.47916-1.2917 0-1.8437 0.42708-0.55209 0.42708-0.55209 1 0 0.36458 0.22917 0.65625 0.22917 0.30208 0.71875 0.5 0.28125 0.10416 1.6562 0.47916 1.9896 0.53125 2.7708 0.875 0.79166 0.33334 1.2396 0.97917 0.44791 0.64583 0.44791 1.6042 0 0.9375-0.55208 1.7708-0.54167 0.82292-1.5729 1.2812-1.0312 0.44792-2.3333 0.44792-2.1562 0-3.2917-0.89584-1.125-0.89583-1.4375-2.6562z"/><path d="m238.18 317.06 0.27083 1.6562q-0.79166 0.16667-1.4167 0.16667-1.0208 0-1.5833-0.32292-0.5625-0.32291-0.79167-0.84374-0.22917-0.53125-0.22917-2.2188v-6.3646h-1.375v-1.4583h1.375v-2.7396l1.8646-1.125v3.8646h1.8854v1.4583h-1.8854v6.4687q0 0.80208 0.0937 1.0312 0.10416 0.22917 0.32291 0.36459 0.22917 0.13541 0.64583 0.13541 0.3125 0 0.82292-0.0729z"/><path d="m239.27 315.43 1.8542-0.29167q0.15625 1.1146 0.86458 1.7083 0.71875 0.59375 2 0.59375 1.2917 0 1.9167-0.52083 0.625-0.53125 0.625-1.2396 0-0.63542-0.55208-1-0.38542-0.25-1.9167-0.63542-2.0625-0.52083-2.8646-0.89583-0.79167-0.38541-1.2083-1.0521-0.40625-0.67708-0.40625-1.4896 0-0.73958 0.33333-1.3646 0.34375-0.63542 0.92708-1.0521 0.4375-0.32292 1.1875-0.54167 0.76041-0.22917 1.625-0.22917 1.3021 0 2.2812 0.375 0.98959 0.375 1.4583 1.0208 0.46875 0.63541 0.64584 1.7083l-1.8333 0.25q-0.125-0.85417-0.72917-1.3333-0.59375-0.47916-1.6875-0.47916-1.2917 0-1.8437 0.42708-0.55209 0.42708-0.55209 1 0 0.36458 0.22917 0.65625 0.22917 0.30208 0.71875 0.5 0.28125 0.10416 1.6562 0.47916 1.9896 0.53125 2.7708 0.875 0.79166 0.33334 1.2396 0.97917 0.44791 0.64583 0.44791 1.6042 0 0.9375-0.55208 1.7708-0.54167 0.82292-1.5729 1.2812-1.0312 0.44792-2.3333 0.44792-2.1562 0-3.2917-0.89584-1.125-0.89583-1.4375-2.6562z"/></g></g></g></svg>
