<?xml version="1.0" encoding="UTF-8"?>
<svg width="233.81mm" height="140.06mm" version="1.0" xmlns="http://www.w3.org/2000/svg"><g fill="#009e73" fill-rule="evenodd"><path d="m97.677 408.03h1.3329v1.3329h-1.3329z"/><path d="m99.01 406.7h1.3329v1.3329h-1.3329z"/><path d="m99.01 408.03h1.3329v1.3329h-1.3329z"/></g><text x="462.45978" y="525.32666" fill="#000000" font-family="Arial" font-size="21.312px" font-weight="400" letter-spacing="0px" word-spacing="0px" style="line-height:125%" xml:space="preserve"><tspan x="462.45978" y="525.32666"><tspan dx="0" dy="0" fill="#000000" font-family="Arial" font-size="21.312px" font-weight="400">Octave</tspan></tspan></text><text transform="rotate(-90)" x="-286.43103" y="19.035448" fill="#000000" font-family="Arial" font-size="21.312px" font-weight="400" letter-spacing="0px" word-spacing="0px" style="line-height:125%" xml:space="preserve"><tspan x="-286.43103" y="19.035448"><tspan dx="0" dy="0" fill="#000000" font-family="Arial" font-size="21.312px" font-weight="400">Frequency</tspan></tspan></text><g fill="none" stroke="#000" stroke-linecap="round" stroke-linejoin="round" stroke-miterlimit="10" stroke-width="1.3329px"><path d="m496.22 4.1575m0 521.17m-477.18-289.24m109.3 190.61h653.13"/><path d="m128.33 426.69v11.996"/><path d="m292.28 426.69v11.996"/><path d="m454.9 426.69v11.996"/><path d="m618.85 426.69v11.996"/><path d="m781.46 426.69v11.996"/></g><g fill="#000000" font-family="Arial" font-size="21.312px" font-weight="400" letter-spacing="0px" word-spacing="0px"><text x="122.40784" y="473.34299" style="line-height:125%" xml:space="preserve"><tspan x="122.40784" y="473.34299"><tspan dx="0" dy="0" fill="#000000" font-family="Arial" font-size="21.312px" font-weight="400">0</tspan></tspan></text><text x="286.3562" y="473.34299" style="line-height:125%" xml:space="preserve"><tspan x="286.3562" y="473.34299"><tspan dx="0" dy="0" fill="#000000" font-family="Arial" font-size="21.312px" font-weight="400">2</tspan></tspan></text><text x="448.97165" y="473.34299" style="line-height:125%" xml:space="preserve"><tspan x="448.97165" y="473.34299"><tspan dx="0" dy="0" fill="#000000" font-family="Arial" font-size="21.312px" font-weight="400">4</tspan></tspan></text><text x="612.91998" y="473.34299" style="line-height:125%" xml:space="preserve"><tspan x="612.91998" y="473.34299"><tspan dx="0" dy="0" fill="#000000" font-family="Arial" font-size="21.312px" font-weight="400">6</tspan></tspan></text><text x="775.5354" y="473.34299" style="line-height:125%" xml:space="preserve"><tspan x="775.5354" y="473.34299"><tspan dx="0" dy="0" fill="#000000" font-family="Arial" font-size="21.312px" font-weight="400">8</tspan></tspan></text></g><g fill="none" stroke="#000" stroke-linecap="round" stroke-linejoin="round" stroke-miterlimit="10" stroke-width="1.3329px"><path d="m99.01 412.03h-11.996"/><path d="m99.01 361.38h-11.996"/><path d="m99.01 312.06h-11.996"/><path d="m99.01 261.41h-11.996"/><path d="m99.01 210.76h-11.996"/><path d="m99.01 160.11h-11.996"/><path d="m99.01 110.79h-11.996"/><path d="m99.01 60.14h-11.996"/></g><g fill="#000000" font-family="Arial" font-size="21.312px" font-weight="400" letter-spacing="0px" word-spacing="0px"><text transform="rotate(-90)" x="-367.30475" y="69.68615" style="line-height:125%" xml:space="preserve"><tspan x="-367.30475" y="69.68615"><tspan dx="0" dy="0" fill="#000000" font-family="Arial" font-size="21.312px" font-weight="400">2</tspan></tspan></text><text transform="rotate(-90)" x="-317.98697" y="69.68615" style="line-height:125%" xml:space="preserve"><tspan x="-317.98697" y="69.68615"><tspan dx="0" dy="0" fill="#000000" font-family="Arial" font-size="21.312px" font-weight="400">4</tspan></tspan></text><text transform="rotate(-90)" x="-267.33624" y="69.68615" style="line-height:125%" xml:space="preserve"><tspan x="-267.33624" y="69.68615"><tspan dx="0" dy="0" fill="#000000" font-family="Arial" font-size="21.312px" font-weight="400">6</tspan></tspan></text><text transform="rotate(-90)" x="-216.68556" y="69.686142" style="line-height:125%" xml:space="preserve"><tspan x="-216.68556" y="69.686142"><tspan dx="0" dy="0" fill="#000000" font-family="Arial" font-size="21.312px" font-weight="400">8</tspan></tspan></text><text transform="rotate(-90)" x="-171.96135" y="69.68615" style="line-height:125%" xml:space="preserve"><tspan x="-171.96135" y="69.68615"><tspan dx="0" dy="0" fill="#000000" font-family="Arial" font-size="21.312px" font-weight="400">10</tspan></tspan></text><text transform="rotate(-90)" x="-122.64355" y="69.68615" style="line-height:125%" xml:space="preserve"><tspan x="-122.64355" y="69.68615"><tspan dx="0" dy="0" fill="#000000" font-family="Arial" font-size="21.312px" font-weight="400">12</tspan></tspan></text><text transform="rotate(-90)" x="-71.992836" y="69.68615" style="line-height:125%" xml:space="preserve"><tspan x="-71.992836" y="69.68615"><tspan dx="0" dy="0" fill="#000000" font-family="Arial" font-size="21.312px" font-weight="400">14</tspan></tspan></text></g><g fill="none" stroke="#000" stroke-linecap="round" stroke-linejoin="round" stroke-miterlimit="10" stroke-width="1.3329px"><path d="m69.686 412.03m0-50.651m0-49.318m0-50.651m0-50.651m0-50.651m0-49.318m0-50.651m58.648 175.94h81.308v175.94h-81.308v-175.94"/><path d="m209.64 160.11h82.641v251.92h-82.641v-251.92"/><path d="m292.28 236.08h81.308v175.94h-81.308v-175.94"/><path d="m373.59 60.14h81.308v351.89h-81.308v-351.89"/><path d="m454.9 236.08h81.308v175.94h-81.308v-175.94"/><path d="m536.21 386.7h82.641v25.325h-82.641v-25.325"/><path d="m618.85 412.03h81.308-81.308"/><path d="m700.15 412.03h81.308-81.308"/><path d="m781.46 412.03h81.308-81.308"/></g><g fill="#009e73" fill-rule="evenodd"><path d="m81.682 408.03h1.3329v1.3329h-1.3329z"/><path d="m81.682 408.03h1.3329v1.3329h-1.3329z"/><path d="m83.015 408.03h1.3329v1.3329h-1.3329z"/><path d="m83.015 408.03h1.3329v1.3329h-1.3329z"/><path d="m84.348 408.03h1.3329v1.3329h-1.3329z"/><path d="m84.348 408.03h1.3329v1.3329h-1.3329z"/><path d="m85.681 408.03h1.3329v1.3329h-1.3329z"/><path d="m85.681 408.03h1.3329v1.3329h-1.3329z"/><path d="m87.014 408.03h1.3329v1.3329h-1.3329z"/><path d="m87.014 408.03h1.3329v1.3329h-1.3329z"/><path d="m88.347 408.03h1.3329v1.3329h-1.3329z"/><path d="m88.347 408.03h1.3329v1.3329h-1.3329z"/><path d="m89.68 408.03h1.3329v1.3329h-1.3329z"/><path d="m89.68 408.03h1.3329v1.3329h-1.3329z"/><path d="m91.013 408.03h1.3329v1.3329h-1.3329z"/><path d="m91.013 408.03h1.3329v1.3329h-1.3329z"/><path d="m92.346 408.03h1.3329v1.3329h-1.3329z"/><path d="m92.346 408.03h1.3329v1.3329h-1.3329z"/><path d="m93.679 408.03h1.3329v1.3329h-1.3329z"/><path d="m93.679 408.03h1.3329v1.3329h-1.3329z"/><path d="m95.012 408.03h1.3329v1.3329h-1.3329z"/><path d="m95.012 408.03h1.3329v1.3329h-1.3329z"/><path d="m96.344 408.03h1.3329v1.3329h-1.3329z"/><path d="m96.344 408.03h1.3329v1.3329h-1.3329z"/><path d="m97.677 408.03h1.3329v1.3329h-1.3329z"/><path d="m99.01 406.7h1.3329v1.3329h-1.3329z"/><path d="m100.34 406.7h1.3329v1.3329h-1.3329z"/><path d="m100.34 406.7h1.3329v1.3329h-1.3329z"/><path d="m101.68 406.7h1.3329v1.3329h-1.3329z"/><path d="m101.68 406.7h1.3329v1.3329h-1.3329z"/><path d="m103.01 406.7h1.3329v1.3329h-1.3329z"/><path d="m103.01 406.7h1.3329v1.3329h-1.3329z"/><path d="m104.34 406.7h1.3329v1.3329h-1.3329z"/><path d="m104.34 406.7h1.3329v1.3329h-1.3329z"/><path d="m105.67 406.7h1.3329v1.3329h-1.3329z"/><path d="m105.67 406.7h1.3329v1.3329h-1.3329z"/><path d="m107.01 406.7h1.3329v1.3329h-1.3329z"/><path d="m107.01 406.7h1.3329v1.3329h-1.3329z"/><path d="m108.34 406.7h1.3329v1.3329h-1.3329z"/><path d="m108.34 406.7h1.3329v1.3329h-1.3329z"/><path d="m109.67 406.7h1.3329v1.3329h-1.3329z"/><path d="m109.67 406.7h1.3329v1.3329h-1.3329z"/><path d="m111.01 406.7h1.3329v1.3329h-1.3329z"/><path d="m111.01 406.7h1.3329v1.3329h-1.3329z"/><path d="m112.34 405.36h1.3329v1.3329h-1.3329z"/><path d="m112.34 405.36h1.3329v1.3329h-1.3329z"/><path d="m113.67 405.36h1.3329v1.3329h-1.3329z"/><path d="m113.67 405.36h1.3329v1.3329h-1.3329z"/><path d="m115.01 405.36h1.3329v1.3329h-1.3329z"/><path d="m115.01 405.36h1.3329v1.3329h-1.3329z"/><path d="m116.34 405.36h1.3329v1.3329h-1.3329z"/><path d="m116.34 405.36h1.3329v1.3329h-1.3329z"/><path d="m117.67 405.36h1.3329v1.3329h-1.3329z"/><path d="m117.67 405.36h1.3329v1.3329h-1.3329z"/><path d="m119 405.36h1.3329v1.3329h-1.3329z"/><path d="m119 405.36h1.3329v1.3329h-1.3329z"/><path d="m120.34 405.36h1.3329v1.3329h-1.3329z"/><path d="m120.34 405.36h1.3329v1.3329h-1.3329z"/><path d="m120.34 405.36h1.3329v1.3329h-1.3329z"/><path d="m121.67 405.36h1.3329v1.3329h-1.3329z"/><path d="m121.67 404.03h1.3329v1.3329h-1.3329z"/><path d="m123 404.03h1.3329v1.3329h-1.3329z"/><path d="m123 404.03h1.3329v1.3329h-1.3329z"/><path d="m124.34 404.03h1.3329v1.3329h-1.3329z"/><path d="m124.34 404.03h1.3329v1.3329h-1.3329z"/><path d="m125.67 404.03h1.3329v1.3329h-1.3329z"/><path d="m125.67 404.03h1.3329v1.3329h-1.3329z"/><path d="m127 404.03h1.3329v1.3329h-1.3329z"/><path d="m127 404.03h1.3329v1.3329h-1.3329z"/><path d="m128.33 404.03h1.3329v1.3329h-1.3329z"/><path d="m128.33 404.03h1.3329v1.3329h-1.3329z"/><path d="m129.67 404.03h1.3329v1.3329h-1.3329z"/><path d="m129.67 404.03h1.3329v1.3329h-1.3329z"/><path d="m131 404.03h1.3329v1.3329h-1.3329z"/><path d="m131 402.7h1.3329v1.3329h-1.3329z"/><path d="m132.33 402.7h1.3329v1.3329h-1.3329z"/><path d="m132.33 402.7h1.3329v1.3329h-1.3329z"/><path d="m133.67 402.7h1.3329v1.3329h-1.3329z"/><path d="m133.67 402.7h1.3329v1.3329h-1.3329z"/><path d="m135 402.7h1.3329v1.3329h-1.3329z"/><path d="m135 402.7h1.3329v1.3329h-1.3329z"/><path d="m136.33 402.7h1.3329v1.3329h-1.3329z"/><path d="m136.33 402.7h1.3329v1.3329h-1.3329z"/><path d="m137.66 402.7h1.3329v1.3329h-1.3329z"/><path d="m137.66 402.7h1.3329v1.3329h-1.3329z"/><path d="m139 402.7h1.3329v1.3329h-1.3329z"/><path d="m139 401.37h1.3329v1.3329h-1.3329z"/><path d="m140.33 401.37h1.3329v1.3329h-1.3329z"/><path d="m140.33 401.37h1.3329v1.3329h-1.3329z"/><path d="m141.66 401.37h1.3329v1.3329h-1.3329z"/><path d="m141.66 401.37h1.3329v1.3329h-1.3329z"/><path d="m141.66 401.37h1.3329v1.3329h-1.3329z"/><path d="m143 401.37h1.3329v1.3329h-1.3329z"/><path d="m143 401.37h1.3329v1.3329h-1.3329z"/><path d="m144.33 401.37h1.3329v1.3329h-1.3329z"/><path d="m144.33 401.37h1.3329v1.3329h-1.3329z"/><path d="m145.66 401.37h1.3329v1.3329h-1.3329z"/><path d="m145.66 400.03h1.3329v1.3329h-1.3329z"/><path d="m147 400.03h1.3329v1.3329h-1.3329z"/><path d="m147 400.03h1.3329v1.3329h-1.3329z"/><path d="m148.33 400.03h1.3329v1.3329h-1.3329z"/><path d="m148.33 400.03h1.3329v1.3329h-1.3329z"/><path d="m149.66 400.03h1.3329v1.3329h-1.3329z"/><path d="m149.66 400.03h1.3329v1.3329h-1.3329z"/><path d="m150.99 400.03h1.3329v1.3329h-1.3329z"/><path d="m150.99 400.03h1.3329v1.3329h-1.3329z"/><path d="m152.33 400.03h1.3329v1.3329h-1.3329z"/><path d="m152.33 398.7h1.3329v1.3329h-1.3329z"/><path d="m153.66 398.7h1.3329v1.3329h-1.3329z"/><path d="m153.66 398.7h1.3329v1.3329h-1.3329z"/><path d="m154.99 398.7h1.3329v1.3329h-1.3329z"/><path d="m154.99 398.7h1.3329v1.3329h-1.3329z"/><path d="m156.33 398.7h1.3329v1.3329h-1.3329z"/><path d="m156.33 398.7h1.3329v1.3329h-1.3329z"/><path d="m157.66 398.7h1.3329v1.3329h-1.3329z"/><path d="m157.66 398.7h1.3329v1.3329h-1.3329z"/><path d="m158.99 398.7h1.3329v1.3329h-1.3329z"/><path d="m158.99 397.37h1.3329v1.3329h-1.3329z"/><path d="m160.32 397.37h1.3329v1.3329h-1.3329z"/><path d="m160.32 397.37h1.3329v1.3329h-1.3329z"/><path d="m161.66 397.37h1.3329v1.3329h-1.3329z"/><path d="m161.66 397.37h1.3329v1.3329h-1.3329z"/><path d="m162.99 397.37h1.3329v1.3329h-1.3329z"/><path d="m162.99 397.37h1.3329v1.3329h-1.3329z"/><path d="m162.99 397.37h1.3329v1.3329h-1.3329z"/><path d="m164.32 396.03h1.3329v1.3329h-1.3329z"/><path d="m164.32 396.03h1.3329v1.3329h-1.3329z"/><path d="m165.66 396.03h1.3329v1.3329h-1.3329z"/><path d="m165.66 396.03h1.3329v1.3329h-1.3329z"/><path d="m166.99 396.03h1.3329v1.3329h-1.3329z"/><path d="m166.99 396.03h1.3329v1.3329h-1.3329z"/><path d="m168.32 396.03h1.3329v1.3329h-1.3329z"/><path d="m168.32 396.03h1.3329v1.3329h-1.3329z"/><path d="m169.65 394.7h1.3329v1.3329h-1.3329z"/><path d="m169.65 394.7h1.3329v1.3329h-1.3329z"/><path d="m170.99 394.7h1.3329v1.3329h-1.3329z"/><path d="m170.99 394.7h1.3329v1.3329h-1.3329z"/><path d="m172.32 394.7h1.3329v1.3329h-1.3329z"/><path d="m172.32 394.7h1.3329v1.3329h-1.3329z"/><path d="m173.65 394.7h1.3329v1.3329h-1.3329z"/><path d="m173.65 394.7h1.3329v1.3329h-1.3329z"/><path d="m174.99 393.37h1.3329v1.3329h-1.3329z"/><path d="m174.99 393.37h1.3329v1.3329h-1.3329z"/><path d="m176.32 393.37h1.3329v1.3329h-1.3329z"/><path d="m176.32 393.37h1.3329v1.3329h-1.3329z"/><path d="m177.65 393.37h1.3329v1.3329h-1.3329z"/><path d="m177.65 393.37h1.3329v1.3329h-1.3329z"/><path d="m178.99 393.37h1.3329v1.3329h-1.3329z"/><path d="m178.99 392.04h1.3329v1.3329h-1.3329z"/><path d="m180.32 392.04h1.3329v1.3329h-1.3329z"/><path d="m180.32 392.04h1.3329v1.3329h-1.3329z"/><path d="m181.65 392.04h1.3329v1.3329h-1.3329z"/><path d="m181.65 392.04h1.3329v1.3329h-1.3329z"/><path d="m182.98 392.04h1.3329v1.3329h-1.3329z"/><path d="m182.98 392.04h1.3329v1.3329h-1.3329z"/><path d="m184.32 390.7h1.3329v1.3329h-1.3329z"/><path d="m184.32 390.7h1.3329v1.3329h-1.3329z"/><path d="m185.65 390.7h1.3329v1.3329h-1.3329z"/><path d="m185.65 390.7h1.3329v1.3329h-1.3329z"/><path d="m185.65 390.7h1.3329v1.3329h-1.3329z"/><path d="m186.98 390.7h1.3329v1.3329h-1.3329z"/><path d="m186.98 390.7h1.3329v1.3329h-1.3329z"/><path d="m188.32 389.37h1.3329v1.3329h-1.3329z"/><path d="m188.32 389.37h1.3329v1.3329h-1.3329z"/><path d="m189.65 389.37h1.3329v1.3329h-1.3329z"/><path d="m189.65 389.37h1.3329v1.3329h-1.3329z"/><path d="m190.98 389.37h1.3329v1.3329h-1.3329z"/><path d="m190.98 389.37h1.3329v1.3329h-1.3329z"/><path d="m192.31 388.04h1.3329v1.3329h-1.3329z"/><path d="m192.31 388.04h1.3329v1.3329h-1.3329z"/><path d="m193.65 388.04h1.3329v1.3329h-1.3329z"/><path d="m193.65 388.04h1.3329v1.3329h-1.3329z"/><path d="m194.98 388.04h1.3329v1.3329h-1.3329z"/><path d="m194.98 388.04h1.3329v1.3329h-1.3329z"/><path d="m196.31 386.7h1.3329v1.3329h-1.3329z"/><path d="m196.31 386.7h1.3329v1.3329h-1.3329z"/><path d="m197.65 386.7h1.3329v1.3329h-1.3329z"/><path d="m197.65 386.7h1.3329v1.3329h-1.3329z"/><path d="m198.98 386.7h1.3329v1.3329h-1.3329z"/><path d="m198.98 386.7h1.3329v1.3329h-1.3329z"/><path d="m200.31 385.37h1.3329v1.3329h-1.3329z"/><path d="m200.31 385.37h1.3329v1.3329h-1.3329z"/><path d="m201.64 385.37h1.3329v1.3329h-1.3329z"/><path d="m201.64 385.37h1.3329v1.3329h-1.3329z"/><path d="m202.98 385.37h1.3329v1.3329h-1.3329z"/><path d="m202.98 385.37h1.3329v1.3329h-1.3329z"/><path d="m204.31 384.04h1.3329v1.3329h-1.3329z"/><path d="m204.31 384.04h1.3329v1.3329h-1.3329z"/><path d="m205.64 384.04h1.3329v1.3329h-1.3329z"/><path d="m205.64 384.04h1.3329v1.3329h-1.3329z"/><path d="m206.98 384.04h1.3329v1.3329h-1.3329z"/><path d="m206.98 384.04h1.3329v1.3329h-1.3329z"/><path d="m206.98 382.7h1.3329v1.3329h-1.3329z"/><path d="m208.31 382.7h1.3329v1.3329h-1.3329z"/><path d="m208.31 382.7h1.3329v1.3329h-1.3329z"/><path d="m209.64 382.7h1.3329v1.3329h-1.3329z"/><path d="m209.64 382.7h1.3329v1.3329h-1.3329z"/><path d="m210.97 381.37h1.3329v1.3329h-1.3329z"/><path d="m210.97 381.37h1.3329v1.3329h-1.3329z"/><path d="m212.31 381.37h1.3329v1.3329h-1.3329z"/><path d="m212.31 381.37h1.3329v1.3329h-1.3329z"/><path d="m213.64 381.37h1.3329v1.3329h-1.3329z"/><path d="m213.64 380.04h1.3329v1.3329h-1.3329z"/><path d="m214.97 380.04h1.3329v1.3329h-1.3329z"/><path d="m214.97 380.04h1.3329v1.3329h-1.3329z"/><path d="m216.31 380.04h1.3329v1.3329h-1.3329z"/><path d="m216.31 380.04h1.3329v1.3329h-1.3329z"/><path d="m217.64 380.04h1.3329v1.3329h-1.3329z"/><path d="m217.64 378.71h1.3329v1.3329h-1.3329z"/><path d="m218.97 378.71h1.3329v1.3329h-1.3329z"/><path d="m218.97 378.71h1.3329v1.3329h-1.3329z"/><path d="m220.31 378.71h1.3329v1.3329h-1.3329z"/><path d="m220.31 378.71h1.3329v1.3329h-1.3329z"/><path d="m221.64 377.37h1.3329v1.3329h-1.3329z"/><path d="m221.64 377.37h1.3329v1.3329h-1.3329z"/><path d="m222.97 377.37h1.3329v1.3329h-1.3329z"/><path d="m222.97 377.37h1.3329v1.3329h-1.3329z"/><path d="m224.3 377.37h1.3329v1.3329h-1.3329z"/><path d="m224.3 376.04h1.3329v1.3329h-1.3329z"/><path d="m225.64 376.04h1.3329v1.3329h-1.3329z"/><path d="m225.64 376.04h1.3329v1.3329h-1.3329z"/><path d="m226.97 376.04h1.3329v1.3329h-1.3329z"/><path d="m226.97 376.04h1.3329v1.3329h-1.3329z"/><path d="m228.3 374.71h1.3329v1.3329h-1.3329z"/><path d="m228.3 374.71h1.3329v1.3329h-1.3329z"/><path d="m228.3 374.71h1.3329v1.3329h-1.3329z"/><path d="m229.64 374.71h1.3329v1.3329h-1.3329z"/><path d="m229.64 374.71h1.3329v1.3329h-1.3329z"/><path d="m230.97 373.37h1.3329v1.3329h-1.3329z"/><path d="m230.97 373.37h1.3329v1.3329h-1.3329z"/><path d="m232.3 373.37h1.3329v1.3329h-1.3329z"/><path d="m232.3 373.37h1.3329v1.3329h-1.3329z"/><path d="m233.63 373.37h1.3329v1.3329h-1.3329z"/><path d="m233.63 372.04h1.3329v1.3329h-1.3329z"/><path d="m234.97 372.04h1.3329v1.3329h-1.3329z"/><path d="m234.97 372.04h1.3329v1.3329h-1.3329z"/><path d="m236.3 372.04h1.3329v1.3329h-1.3329z"/><path d="m236.3 372.04h1.3329v1.3329h-1.3329z"/><path d="m237.63 370.71h1.3329v1.3329h-1.3329z"/><path d="m237.63 370.71h1.3329v1.3329h-1.3329z"/><path d="m238.97 370.71h1.3329v1.3329h-1.3329z"/><path d="m238.97 370.71h1.3329v1.3329h-1.3329z"/><path d="m240.3 370.71h1.3329v1.3329h-1.3329z"/><path d="m240.3 369.38h1.3329v1.3329h-1.3329z"/><path d="m241.63 369.38h1.3329v1.3329h-1.3329z"/><path d="m241.63 369.38h1.3329v1.3329h-1.3329z"/><path d="m242.96 369.38h1.3329v1.3329h-1.3329z"/><path d="m242.96 369.38h1.3329v1.3329h-1.3329z"/><path d="m244.3 368.04h1.3329v1.3329h-1.3329z"/><path d="m244.3 368.04h1.3329v1.3329h-1.3329z"/><path d="m245.63 368.04h1.3329v1.3329h-1.3329z"/><path d="m245.63 368.04h1.3329v1.3329h-1.3329z"/><path d="m246.96 366.71h1.3329v1.3329h-1.3329z"/><path d="m246.96 366.71h1.3329v1.3329h-1.3329z"/><path d="m248.3 366.71h1.3329v1.3329h-1.3329z"/><path d="m248.3 366.71h1.3329v1.3329h-1.3329z"/><path d="m249.63 366.71h1.3329v1.3329h-1.3329z"/><path d="m249.63 365.38h1.3329v1.3329h-1.3329z"/><path d="m249.63 365.38h1.3329v1.3329h-1.3329z"/><path d="m250.96 365.38h1.3329v1.3329h-1.3329z"/><path d="m250.96 365.38h1.3329v1.3329h-1.3329z"/><path d="m252.3 365.38h1.3329v1.3329h-1.3329z"/><path d="m252.3 364.04h1.3329v1.3329h-1.3329z"/><path d="m253.63 364.04h1.3329v1.3329h-1.3329z"/><path d="m253.63 364.04h1.3329v1.3329h-1.3329z"/><path d="m254.96 364.04h1.3329v1.3329h-1.3329z"/><path d="m254.96 364.04h1.3329v1.3329h-1.3329z"/><path d="m256.29 362.71h1.3329v1.3329h-1.3329z"/><path d="m256.29 362.71h1.3329v1.3329h-1.3329z"/><path d="m257.63 362.71h1.3329v1.3329h-1.3329z"/><path d="m257.63 362.71h1.3329v1.3329h-1.3329z"/><path d="m258.96 361.38h1.3329v1.3329h-1.3329z"/><path d="m258.96 361.38h1.3329v1.3329h-1.3329z"/><path d="m260.29 361.38h1.3329v1.3329h-1.3329z"/><path d="m260.29 361.38h1.3329v1.3329h-1.3329z"/><path d="m261.63 361.38h1.3329v1.3329h-1.3329z"/><path d="m261.63 360.05h1.3329v1.3329h-1.3329z"/><path d="m262.96 360.05h1.3329v1.3329h-1.3329z"/><path d="m262.96 360.05h1.3329v1.3329h-1.3329z"/><path d="m264.29 360.05h1.3329v1.3329h-1.3329z"/><path d="m264.29 360.05h1.3329v1.3329h-1.3329z"/><path d="m265.62 358.71h1.3329v1.3329h-1.3329z"/><path d="m265.62 358.71h1.3329v1.3329h-1.3329z"/><path d="m266.96 358.71h1.3329v1.3329h-1.3329z"/><path d="m266.96 358.71h1.3329v1.3329h-1.3329z"/><path d="m268.29 358.71h1.3329v1.3329h-1.3329z"/><path d="m268.29 357.38h1.3329v1.3329h-1.3329z"/><path d="m269.62 357.38h1.3329v1.3329h-1.3329z"/><path d="m269.62 357.38h1.3329v1.3329h-1.3329z"/><path d="m270.96 357.38h1.3329v1.3329h-1.3329z"/><path d="m270.96 357.38h1.3329v1.3329h-1.3329z"/><path d="m272.29 356.05h1.3329v1.3329h-1.3329z"/><path d="m272.29 356.05h1.3329v1.3329h-1.3329z"/><path d="m272.29 356.05h1.3329v1.3329h-1.3329z"/><path d="m273.62 356.05h1.3329v1.3329h-1.3329z"/><path d="m273.62 356.05h1.3329v1.3329h-1.3329z"/><path d="m274.95 354.71h1.3329v1.3329h-1.3329z"/><path d="m274.95 354.71h1.3329v1.3329h-1.3329z"/><path d="m276.29 354.71h1.3329v1.3329h-1.3329z"/><path d="m276.29 354.71h1.3329v1.3329h-1.3329z"/><path d="m277.62 354.71h1.3329v1.3329h-1.3329z"/><path d="m277.62 353.38h1.3329v1.3329h-1.3329z"/><path d="m278.95 353.38h1.3329v1.3329h-1.3329z"/><path d="m278.95 353.38h1.3329v1.3329h-1.3329z"/><path d="m280.29 353.38h1.3329v1.3329h-1.3329z"/><path d="m280.29 353.38h1.3329v1.3329h-1.3329z"/><path d="m281.62 352.05h1.3329v1.3329h-1.3329z"/><path d="m281.62 352.05h1.3329v1.3329h-1.3329z"/><path d="m282.95 352.05h1.3329v1.3329h-1.3329z"/><path d="m282.95 352.05h1.3329v1.3329h-1.3329z"/><path d="m284.29 352.05h1.3329v1.3329h-1.3329z"/><path d="m284.29 350.71h1.3329v1.3329h-1.3329z"/><path d="m285.62 350.71h1.3329v1.3329h-1.3329z"/><path d="m285.62 350.71h1.3329v1.3329h-1.3329z"/><path d="m286.95 350.71h1.3329v1.3329h-1.3329z"/><path d="m286.95 350.71h1.3329v1.3329h-1.3329z"/><path d="m288.28 349.38h1.3329v1.3329h-1.3329z"/><path d="m288.28 349.38h1.3329v1.3329h-1.3329z"/><path d="m289.62 349.38h1.3329v1.3329h-1.3329z"/><path d="m289.62 349.38h1.3329v1.3329h-1.3329z"/><path d="m290.95 349.38h1.3329v1.3329h-1.3329z"/><path d="m290.95 349.38h1.3329v1.3329h-1.3329z"/><path d="m292.28 348.05h1.3329v1.3329h-1.3329z"/><path d="m292.28 348.05h1.3329v1.3329h-1.3329z"/><path d="m293.62 348.05h1.3329v1.3329h-1.3329z"/><path d="m293.62 348.05h1.3329v1.3329h-1.3329z"/><path d="m293.62 348.05h1.3329v1.3329h-1.3329z"/><path d="m294.95 348.05h1.3329v1.3329h-1.3329z"/><path d="m294.95 346.72h1.3329v1.3329h-1.3329z"/><path d="m296.28 346.72h1.3329v1.3329h-1.3329z"/><path d="m296.28 346.72h1.3329v1.3329h-1.3329z"/><path d="m297.61 346.72h1.3329v1.3329h-1.3329z"/><path d="m297.61 346.72h1.3329v1.3329h-1.3329z"/><path d="m298.95 345.38h1.3329v1.3329h-1.3329z"/><path d="m298.95 345.38h1.3329v1.3329h-1.3329z"/><path d="m300.28 345.38h1.3329v1.3329h-1.3329z"/><path d="m300.28 345.38h1.3329v1.3329h-1.3329z"/><path d="m301.61 345.38h1.3329v1.3329h-1.3329z"/><path d="m301.61 345.38h1.3329v1.3329h-1.3329z"/><path d="m302.95 345.38h1.3329v1.3329h-1.3329z"/><path d="m302.95 344.05h1.3329v1.3329h-1.3329z"/><path d="m304.28 344.05h1.3329v1.3329h-1.3329z"/><path d="m304.28 344.05h1.3329v1.3329h-1.3329z"/><path d="m305.61 344.05h1.3329v1.3329h-1.3329z"/><path d="m305.61 344.05h1.3329v1.3329h-1.3329z"/><path d="m306.94 344.05h1.3329v1.3329h-1.3329z"/><path d="m306.94 342.72h1.3329v1.3329h-1.3329z"/><path d="m308.28 342.72h1.3329v1.3329h-1.3329z"/><path d="m308.28 342.72h1.3329v1.3329h-1.3329z"/><path d="m309.61 342.72h1.3329v1.3329h-1.3329z"/><path d="m309.61 342.72h1.3329v1.3329h-1.3329z"/><path d="m310.94 342.72h1.3329v1.3329h-1.3329z"/><path d="m310.94 342.72h1.3329v1.3329h-1.3329z"/><path d="m312.28 341.38h1.3329v1.3329h-1.3329z"/><path d="m312.28 341.38h1.3329v1.3329h-1.3329z"/><path d="m313.61 341.38h1.3329v1.3329h-1.3329z"/><path d="m313.61 341.38h1.3329v1.3329h-1.3329z"/><path d="m314.94 341.38h1.3329v1.3329h-1.3329z"/><path d="m314.94 341.38h1.3329v1.3329h-1.3329z"/><path d="m314.94 341.38h1.3329v1.3329h-1.3329z"/><path d="m316.28 340.05h1.3329v1.3329h-1.3329z"/><path d="m316.28 340.05h1.3329v1.3329h-1.3329z"/><path d="m317.61 340.05h1.3329v1.3329h-1.3329z"/><path d="m317.61 340.05h1.3329v1.3329h-1.3329z"/><path d="m318.94 340.05h1.3329v1.3329h-1.3329z"/><path d="m318.94 340.05h1.3329v1.3329h-1.3329z"/><path d="m320.27 340.05h1.3329v1.3329h-1.3329z"/><path d="m320.27 340.05h1.3329v1.3329h-1.3329z"/><path d="m321.61 338.72h1.3329v1.3329h-1.3329z"/><path d="m321.61 338.72h1.3329v1.3329h-1.3329z"/><path d="m322.94 338.72h1.3329v1.3329h-1.3329z"/><path d="m322.94 338.72h1.3329v1.3329h-1.3329z"/><path d="m324.27 338.72h1.3329v1.3329h-1.3329z"/><path d="m324.27 338.72h1.3329v1.3329h-1.3329z"/><path d="m325.61 338.72h1.3329v1.3329h-1.3329z"/><path d="m325.61 338.72h1.3329v1.3329h-1.3329z"/><path d="m326.94 338.72h1.3329v1.3329h-1.3329z"/><path d="m326.94 338.72h1.3329v1.3329h-1.3329z"/><path d="m328.27 337.39h1.3329v1.3329h-1.3329z"/><path d="m328.27 337.39h1.3329v1.3329h-1.3329z"/><path d="m329.6 337.39h1.3329v1.3329h-1.3329z"/><path d="m329.6 337.39h1.3329v1.3329h-1.3329z"/><path d="m330.94 337.39h1.3329v1.3329h-1.3329z"/><path d="m330.94 337.39h1.3329v1.3329h-1.3329z"/><path d="m332.27 337.39h1.3329v1.3329h-1.3329z"/><path d="m332.27 337.39h1.3329v1.3329h-1.3329z"/><path d="m333.6 337.39h1.3329v1.3329h-1.3329z"/><path d="m333.6 337.39h1.3329v1.3329h-1.3329z"/><path d="m334.94 337.39h1.3329v1.3329h-1.3329z"/><path d="m334.94 336.05h1.3329v1.3329h-1.3329z"/><path d="m336.27 336.05h1.3329v1.3329h-1.3329z"/><path d="m336.27 336.05h1.3329v1.3329h-1.3329z"/><path d="m337.6 336.05h1.3329v1.3329h-1.3329z"/><path d="m337.6 336.05h1.3329v1.3329h-1.3329z"/><path d="m337.6 336.05h1.3329v1.3329h-1.3329z"/><path d="m338.93 336.05h1.3329v1.3329h-1.3329z"/><path d="m338.93 336.05h1.3329v1.3329h-1.3329z"/><path d="m340.27 336.05h1.3329v1.3329h-1.3329z"/><path d="m340.27 336.05h1.3329v1.3329h-1.3329z"/><path d="m341.6 336.05h1.3329v1.3329h-1.3329z"/><path d="m341.6 336.05h1.3329v1.3329h-1.3329z"/><path d="m342.93 336.05h1.3329v1.3329h-1.3329z"/><path d="m342.93 336.05h1.3329v1.3329h-1.3329z"/><path d="m344.27 336.05h1.3329v1.3329h-1.3329z"/><path d="m344.27 334.72h1.3329v1.3329h-1.3329z"/><path d="m345.6 334.72h1.3329v1.3329h-1.3329z"/><path d="m345.6 334.72h1.3329v1.3329h-1.3329z"/><path d="m346.93 334.72h1.3329v1.3329h-1.3329z"/><path d="m346.93 334.72h1.3329v1.3329h-1.3329z"/><path d="m348.27 334.72h1.3329v1.3329h-1.3329z"/><path d="m348.27 334.72h1.3329v1.3329h-1.3329z"/><path d="m349.6 334.72h1.3329v1.3329h-1.3329z"/><path d="m349.6 334.72h1.3329v1.3329h-1.3329z"/><path d="m350.93 334.72h1.3329v1.3329h-1.3329z"/><path d="m350.93 334.72h1.3329v1.3329h-1.3329z"/><path d="m352.26 334.72h1.3329v1.3329h-1.3329z"/><path d="m352.26 334.72h1.3329v1.3329h-1.3329z"/><path d="m353.6 334.72h1.3329v1.3329h-1.3329z"/><path d="m353.6 334.72h1.3329v1.3329h-1.3329z"/><path d="m354.93 334.72h1.3329v1.3329h-1.3329z"/><path d="m354.93 334.72h1.3329v1.3329h-1.3329z"/><path d="m356.26 334.72h1.3329v1.3329h-1.3329z"/><path d="m356.26 334.72h1.3329v1.3329h-1.3329z"/><path d="m357.6 334.72h1.3329v1.3329h-1.3329z"/><path d="m357.6 334.72h1.3329v1.3329h-1.3329z"/><path d="m358.93 334.72h1.3329v1.3329h-1.3329z"/><path d="m358.93 334.72h1.3329v1.3329h-1.3329z"/><path d="m358.93 334.72h1.3329v1.3329h-1.3329z"/><path d="m360.26 334.72h1.3329v1.3329h-1.3329z"/><path d="m360.26 334.72h1.3329v1.3329h-1.3329z"/><path d="m361.59 334.72h1.3329v1.3329h-1.3329z"/><path d="m361.59 334.72h1.3329v1.3329h-1.3329z"/><path d="m362.93 334.72h1.3329v1.3329h-1.3329z"/><path d="m362.93 334.72h1.3329v1.3329h-1.3329z"/><path d="m364.26 334.72h1.3329v1.3329h-1.3329z"/><path d="m364.26 334.72h1.3329v1.3329h-1.3329z"/><path d="m365.59 334.72h1.3329v1.3329h-1.3329z"/><path d="m365.59 334.72h1.3329v1.3329h-1.3329z"/><path d="m366.93 334.72h1.3329v1.3329h-1.3329z"/><path d="m366.93 334.72h1.3329v1.3329h-1.3329z"/><path d="m368.26 334.72h1.3329v1.3329h-1.3329z"/><path d="m368.26 334.72h1.3329v1.3329h-1.3329z"/><path d="m369.59 334.72h1.3329v1.3329h-1.3329z"/><path d="m369.59 334.72h1.3329v1.3329h-1.3329z"/><path d="m370.92 334.72h1.3329v1.3329h-1.3329z"/><path d="m370.92 334.72h1.3329v1.3329h-1.3329z"/><path d="m372.26 334.72h1.3329v1.3329h-1.3329z"/><path d="m372.26 334.72h1.3329v1.3329h-1.3329z"/><path d="m373.59 334.72h1.3329v1.3329h-1.3329z"/><path d="m373.59 334.72h1.3329v1.3329h-1.3329z"/><path d="m374.92 334.72h1.3329v1.3329h-1.3329z"/><path d="m374.92 334.72h1.3329v1.3329h-1.3329z"/><path d="m376.26 336.05h1.3329v1.3329h-1.3329z"/><path d="m376.26 336.05h1.3329v1.3329h-1.3329z"/><path d="m377.59 336.05h1.3329v1.3329h-1.3329z"/><path d="m377.59 336.05h1.3329v1.3329h-1.3329z"/><path d="m378.92 336.05h1.3329v1.3329h-1.3329z"/><path d="m378.92 336.05h1.3329v1.3329h-1.3329z"/><path d="m380.25 336.05h1.3329v1.3329h-1.3329z"/><path d="m380.25 336.05h1.3329v1.3329h-1.3329z"/><path d="m380.25 336.05h1.3329v1.3329h-1.3329z"/><path d="m381.59 336.05h1.3329v1.3329h-1.3329z"/><path d="m381.59 336.05h1.3329v1.3329h-1.3329z"/><path d="m382.92 336.05h1.3329v1.3329h-1.3329z"/><path d="m382.92 336.05h1.3329v1.3329h-1.3329z"/><path d="m384.25 336.05h1.3329v1.3329h-1.3329z"/><path d="m384.25 336.05h1.3329v1.3329h-1.3329z"/><path d="m385.59 337.39h1.3329v1.3329h-1.3329z"/><path d="m385.59 337.39h1.3329v1.3329h-1.3329z"/><path d="m386.92 337.39h1.3329v1.3329h-1.3329z"/><path d="m386.92 337.39h1.3329v1.3329h-1.3329z"/><path d="m388.25 337.39h1.3329v1.3329h-1.3329z"/><path d="m388.25 337.39h1.3329v1.3329h-1.3329z"/><path d="m389.59 337.39h1.3329v1.3329h-1.3329z"/><path d="m389.59 337.39h1.3329v1.3329h-1.3329z"/><path d="m390.92 337.39h1.3329v1.3329h-1.3329z"/><path d="m390.92 337.39h1.3329v1.3329h-1.3329z"/><path d="m392.25 337.39h1.3329v1.3329h-1.3329z"/><path d="m392.25 338.72h1.3329v1.3329h-1.3329z"/><path d="m393.58 338.72h1.3329v1.3329h-1.3329z"/><path d="m393.58 338.72h1.3329v1.3329h-1.3329z"/><path d="m394.92 338.72h1.3329v1.3329h-1.3329z"/><path d="m394.92 338.72h1.3329v1.3329h-1.3329z"/><path d="m396.25 338.72h1.3329v1.3329h-1.3329z"/><path d="m396.25 338.72h1.3329v1.3329h-1.3329z"/><path d="m397.58 338.72h1.3329v1.3329h-1.3329z"/><path d="m397.58 338.72h1.3329v1.3329h-1.3329z"/><path d="m398.92 338.72h1.3329v1.3329h-1.3329z"/><path d="m398.92 340.05h1.3329v1.3329h-1.3329z"/><path d="m400.25 340.05h1.3329v1.3329h-1.3329z"/><path d="m400.25 340.05h1.3329v1.3329h-1.3329z"/><path d="m401.58 340.05h1.3329v1.3329h-1.3329z"/><path d="m401.58 340.05h1.3329v1.3329h-1.3329z"/><path d="m401.58 340.05h1.3329v1.3329h-1.3329z"/><path d="m402.91 340.05h1.3329v1.3329h-1.3329z"/><path d="m402.91 340.05h1.3329v1.3329h-1.3329z"/><path d="m404.25 341.38h1.3329v1.3329h-1.3329z"/><path d="m404.25 341.38h1.3329v1.3329h-1.3329z"/><path d="m405.58 341.38h1.3329v1.3329h-1.3329z"/><path d="m405.58 341.38h1.3329v1.3329h-1.3329z"/><path d="m406.91 341.38h1.3329v1.3329h-1.3329z"/><path d="m406.91 341.38h1.3329v1.3329h-1.3329z"/><path d="m408.25 341.38h1.3329v1.3329h-1.3329z"/><path d="m408.25 342.72h1.3329v1.3329h-1.3329z"/><path d="m409.58 342.72h1.3329v1.3329h-1.3329z"/><path d="m409.58 342.72h1.3329v1.3329h-1.3329z"/><path d="m410.91 342.72h1.3329v1.3329h-1.3329z"/><path d="m410.91 342.72h1.3329v1.3329h-1.3329z"/><path d="m412.24 342.72h1.3329v1.3329h-1.3329z"/><path d="m412.24 342.72h1.3329v1.3329h-1.3329z"/><path d="m413.58 344.05h1.3329v1.3329h-1.3329z"/><path d="m413.58 344.05h1.3329v1.3329h-1.3329z"/><path d="m414.91 344.05h1.3329v1.3329h-1.3329z"/><path d="m414.91 344.05h1.3329v1.3329h-1.3329z"/><path d="m416.24 344.05h1.3329v1.3329h-1.3329z"/><path d="m416.24 344.05h1.3329v1.3329h-1.3329z"/><path d="m417.58 345.38h1.3329v1.3329h-1.3329z"/><path d="m417.58 345.38h1.3329v1.3329h-1.3329z"/><path d="m418.91 345.38h1.3329v1.3329h-1.3329z"/><path d="m418.91 345.38h1.3329v1.3329h-1.3329z"/><path d="m420.24 345.38h1.3329v1.3329h-1.3329z"/><path d="m420.24 345.38h1.3329v1.3329h-1.3329z"/><path d="m421.58 345.38h1.3329v1.3329h-1.3329z"/><path d="m421.58 346.72h1.3329v1.3329h-1.3329z"/><path d="m422.91 346.72h1.3329v1.3329h-1.3329z"/><path d="m422.91 346.72h1.3329v1.3329h-1.3329z"/><path d="m424.24 346.72h1.3329v1.3329h-1.3329z"/><path d="m424.24 346.72h1.3329v1.3329h-1.3329z"/><path d="m424.24 348.05h1.3329v1.3329h-1.3329z"/><path d="m425.57 348.05h1.3329v1.3329h-1.3329z"/><path d="m425.57 348.05h1.3329v1.3329h-1.3329z"/><path d="m426.91 348.05h1.3329v1.3329h-1.3329z"/><path d="m426.91 348.05h1.3329v1.3329h-1.3329z"/><path d="m428.24 348.05h1.3329v1.3329h-1.3329z"/><path d="m428.24 349.38h1.3329v1.3329h-1.3329z"/><path d="m429.57 349.38h1.3329v1.3329h-1.3329z"/><path d="m429.57 349.38h1.3329v1.3329h-1.3329z"/><path d="m430.91 349.38h1.3329v1.3329h-1.3329z"/><path d="m430.91 349.38h1.3329v1.3329h-1.3329z"/><path d="m432.24 349.38h1.3329v1.3329h-1.3329z"/><path d="m432.24 350.71h1.3329v1.3329h-1.3329z"/><path d="m433.57 350.71h1.3329v1.3329h-1.3329z"/><path d="m433.57 350.71h1.3329v1.3329h-1.3329z"/><path d="m434.9 350.71h1.3329v1.3329h-1.3329z"/><path d="m434.9 350.71h1.3329v1.3329h-1.3329z"/><path d="m436.24 352.05h1.3329v1.3329h-1.3329z"/><path d="m436.24 352.05h1.3329v1.3329h-1.3329z"/><path d="m437.57 352.05h1.3329v1.3329h-1.3329z"/><path d="m437.57 352.05h1.3329v1.3329h-1.3329z"/><path d="m438.9 352.05h1.3329v1.3329h-1.3329z"/><path d="m438.9 353.38h1.3329v1.3329h-1.3329z"/><path d="m440.24 353.38h1.3329v1.3329h-1.3329z"/><path d="m440.24 353.38h1.3329v1.3329h-1.3329z"/><path d="m441.57 353.38h1.3329v1.3329h-1.3329z"/><path d="m441.57 353.38h1.3329v1.3329h-1.3329z"/><path d="m442.9 354.71h1.3329v1.3329h-1.3329z"/><path d="m442.9 354.71h1.3329v1.3329h-1.3329z"/><path d="m444.23 354.71h1.3329v1.3329h-1.3329z"/><path d="m444.23 354.71h1.3329v1.3329h-1.3329z"/><path d="m445.57 354.71h1.3329v1.3329h-1.3329z"/><path d="m445.57 356.05h1.3329v1.3329h-1.3329z"/><path d="m445.57 356.05h1.3329v1.3329h-1.3329z"/><path d="m446.9 356.05h1.3329v1.3329h-1.3329z"/><path d="m446.9 356.05h1.3329v1.3329h-1.3329z"/><path d="m448.23 356.05h1.3329v1.3329h-1.3329z"/><path d="m448.23 357.38h1.3329v1.3329h-1.3329z"/><path d="m449.57 357.38h1.3329v1.3329h-1.3329z"/><path d="m449.57 357.38h1.3329v1.3329h-1.3329z"/><path d="m450.9 357.38h1.3329v1.3329h-1.3329z"/><path d="m450.9 357.38h1.3329v1.3329h-1.3329z"/><path d="m452.23 358.71h1.3329v1.3329h-1.3329z"/><path d="m452.23 358.71h1.3329v1.3329h-1.3329z"/><path d="m453.57 358.71h1.3329v1.3329h-1.3329z"/><path d="m453.57 358.71h1.3329v1.3329h-1.3329z"/><path d="m454.9 358.71h1.3329v1.3329h-1.3329z"/><path d="m454.9 360.05h1.3329v1.3329h-1.3329z"/><path d="m456.23 360.05h1.3329v1.3329h-1.3329z"/><path d="m456.23 360.05h1.3329v1.3329h-1.3329z"/><path d="m457.56 360.05h1.3329v1.3329h-1.3329z"/><path d="m457.56 360.05h1.3329v1.3329h-1.3329z"/><path d="m458.9 361.38h1.3329v1.3329h-1.3329z"/><path d="m458.9 361.38h1.3329v1.3329h-1.3329z"/><path d="m460.23 361.38h1.3329v1.3329h-1.3329z"/><path d="m460.23 361.38h1.3329v1.3329h-1.3329z"/><path d="m461.56 361.38h1.3329v1.3329h-1.3329z"/><path d="m461.56 362.71h1.3329v1.3329h-1.3329z"/><path d="m462.9 362.71h1.3329v1.3329h-1.3329z"/><path d="m462.9 362.71h1.3329v1.3329h-1.3329z"/><path d="m464.23 362.71h1.3329v1.3329h-1.3329z"/><path d="m464.23 364.04h1.3329v1.3329h-1.3329z"/><path d="m465.56 364.04h1.3329v1.3329h-1.3329z"/><path d="m465.56 364.04h1.3329v1.3329h-1.3329z"/><path d="m466.89 364.04h1.3329v1.3329h-1.3329z"/><path d="m466.89 364.04h1.3329v1.3329h-1.3329z"/><path d="m466.89 365.38h1.3329v1.3329h-1.3329z"/><path d="m468.23 365.38h1.3329v1.3329h-1.3329z"/><path d="m468.23 365.38h1.3329v1.3329h-1.3329z"/><path d="m469.56 365.38h1.3329v1.3329h-1.3329z"/><path d="m469.56 365.38h1.3329v1.3329h-1.3329z"/><path d="m470.89 366.71h1.3329v1.3329h-1.3329z"/><path d="m470.89 366.71h1.3329v1.3329h-1.3329z"/><path d="m472.23 366.71h1.3329v1.3329h-1.3329z"/><path d="m472.23 366.71h1.3329v1.3329h-1.3329z"/><path d="m473.56 366.71h1.3329v1.3329h-1.3329z"/><path d="m473.56 368.04h1.3329v1.3329h-1.3329z"/><path d="m474.89 368.04h1.3329v1.3329h-1.3329z"/><path d="m474.89 368.04h1.3329v1.3329h-1.3329z"/><path d="m476.22 368.04h1.3329v1.3329h-1.3329z"/><path d="m476.22 369.38h1.3329v1.3329h-1.3329z"/><path d="m477.56 369.38h1.3329v1.3329h-1.3329z"/><path d="m477.56 369.38h1.3329v1.3329h-1.3329z"/><path d="m478.89 369.38h1.3329v1.3329h-1.3329z"/><path d="m478.89 369.38h1.3329v1.3329h-1.3329z"/><path d="m480.22 370.71h1.3329v1.3329h-1.3329z"/><path d="m480.22 370.71h1.3329v1.3329h-1.3329z"/><path d="m481.56 370.71h1.3329v1.3329h-1.3329z"/><path d="m481.56 370.71h1.3329v1.3329h-1.3329z"/><path d="m482.89 370.71h1.3329v1.3329h-1.3329z"/><path d="m482.89 372.04h1.3329v1.3329h-1.3329z"/><path d="m484.22 372.04h1.3329v1.3329h-1.3329z"/><path d="m484.22 372.04h1.3329v1.3329h-1.3329z"/><path d="m485.56 372.04h1.3329v1.3329h-1.3329z"/><path d="m485.56 372.04h1.3329v1.3329h-1.3329z"/><path d="m486.89 373.37h1.3329v1.3329h-1.3329z"/><path d="m486.89 373.37h1.3329v1.3329h-1.3329z"/><path d="m488.22 373.37h1.3329v1.3329h-1.3329z"/><path d="m488.22 373.37h1.3329v1.3329h-1.3329z"/><path d="m488.22 373.37h1.3329v1.3329h-1.3329z"/><path d="m489.55 374.71h1.3329v1.3329h-1.3329z"/><path d="m489.55 374.71h1.3329v1.3329h-1.3329z"/><path d="m490.89 374.71h1.3329v1.3329h-1.3329z"/><path d="m490.89 374.71h1.3329v1.3329h-1.3329z"/><path d="m492.22 374.71h1.3329v1.3329h-1.3329z"/><path d="m492.22 376.04h1.3329v1.3329h-1.3329z"/><path d="m493.55 376.04h1.3329v1.3329h-1.3329z"/><path d="m493.55 376.04h1.3329v1.3329h-1.3329z"/><path d="m494.89 376.04h1.3329v1.3329h-1.3329z"/><path d="m494.89 376.04h1.3329v1.3329h-1.3329z"/><path d="m496.22 377.37h1.3329v1.3329h-1.3329z"/><path d="m496.22 377.37h1.3329v1.3329h-1.3329z"/><path d="m497.55 377.37h1.3329v1.3329h-1.3329z"/><path d="m497.55 377.37h1.3329v1.3329h-1.3329z"/><path d="m498.88 377.37h1.3329v1.3329h-1.3329z"/><path d="m498.88 378.71h1.3329v1.3329h-1.3329z"/><path d="m500.22 378.71h1.3329v1.3329h-1.3329z"/><path d="m500.22 378.71h1.3329v1.3329h-1.3329z"/><path d="m501.55 378.71h1.3329v1.3329h-1.3329z"/><path d="m501.55 378.71h1.3329v1.3329h-1.3329z"/><path d="m502.88 380.04h1.3329v1.3329h-1.3329z"/><path d="m502.88 380.04h1.3329v1.3329h-1.3329z"/><path d="m504.22 380.04h1.3329v1.3329h-1.3329z"/><path d="m504.22 380.04h1.3329v1.3329h-1.3329z"/><path d="m505.55 380.04h1.3329v1.3329h-1.3329z"/><path d="m505.55 380.04h1.3329v1.3329h-1.3329z"/><path d="m506.88 381.37h1.3329v1.3329h-1.3329z"/><path d="m506.88 381.37h1.3329v1.3329h-1.3329z"/><path d="m508.21 381.37h1.3329v1.3329h-1.3329z"/><path d="m508.21 381.37h1.3329v1.3329h-1.3329z"/><path d="m509.55 381.37h1.3329v1.3329h-1.3329z"/><path d="m509.55 382.7h1.3329v1.3329h-1.3329z"/><path d="m510.88 382.7h1.3329v1.3329h-1.3329z"/><path d="m510.88 382.7h1.3329v1.3329h-1.3329z"/><path d="m510.88 382.7h1.3329v1.3329h-1.3329z"/><path d="m512.21 382.7h1.3329v1.3329h-1.3329z"/><path d="m512.21 384.04h1.3329v1.3329h-1.3329z"/><path d="m513.55 384.04h1.3329v1.3329h-1.3329z"/><path d="m513.55 384.04h1.3329v1.3329h-1.3329z"/><path d="m514.88 384.04h1.3329v1.3329h-1.3329z"/><path d="m514.88 384.04h1.3329v1.3329h-1.3329z"/><path d="m516.21 384.04h1.3329v1.3329h-1.3329z"/><path d="m516.21 385.37h1.3329v1.3329h-1.3329z"/><path d="m517.55 385.37h1.3329v1.3329h-1.3329z"/><path d="m517.55 385.37h1.3329v1.3329h-1.3329z"/><path d="m518.88 385.37h1.3329v1.3329h-1.3329z"/><path d="m518.88 385.37h1.3329v1.3329h-1.3329z"/><path d="m520.21 385.37h1.3329v1.3329h-1.3329z"/><path d="m520.21 386.7h1.3329v1.3329h-1.3329z"/><path d="m521.54 386.7h1.3329v1.3329h-1.3329z"/><path d="m521.54 386.7h1.3329v1.3329h-1.3329z"/><path d="m522.88 386.7h1.3329v1.3329h-1.3329z"/><path d="m522.88 386.7h1.3329v1.3329h-1.3329z"/><path d="m524.21 386.7h1.3329v1.3329h-1.3329z"/><path d="m524.21 388.04h1.3329v1.3329h-1.3329z"/><path d="m525.54 388.04h1.3329v1.3329h-1.3329z"/><path d="m525.54 388.04h1.3329v1.3329h-1.3329z"/><path d="m526.88 388.04h1.3329v1.3329h-1.3329z"/><path d="m526.88 388.04h1.3329v1.3329h-1.3329z"/><path d="m528.21 388.04h1.3329v1.3329h-1.3329z"/><path d="m528.21 389.37h1.3329v1.3329h-1.3329z"/><path d="m529.54 389.37h1.3329v1.3329h-1.3329z"/><path d="m529.54 389.37h1.3329v1.3329h-1.3329z"/><path d="m530.87 389.37h1.3329v1.3329h-1.3329z"/><path d="m530.87 389.37h1.3329v1.3329h-1.3329z"/><path d="m532.21 389.37h1.3329v1.3329h-1.3329z"/><path d="m532.21 390.7h1.3329v1.3329h-1.3329z"/><path d="m532.21 390.7h1.3329v1.3329h-1.3329z"/><path d="m533.54 390.7h1.3329v1.3329h-1.3329z"/><path d="m533.54 390.7h1.3329v1.3329h-1.3329z"/><path d="m534.87 390.7h1.3329v1.3329h-1.3329z"/><path d="m534.87 390.7h1.3329v1.3329h-1.3329z"/><path d="m536.21 390.7h1.3329v1.3329h-1.3329z"/><path d="m536.21 392.04h1.3329v1.3329h-1.3329z"/><path d="m537.54 392.04h1.3329v1.3329h-1.3329z"/><path d="m537.54 392.04h1.3329v1.3329h-1.3329z"/><path d="m538.87 392.04h1.3329v1.3329h-1.3329z"/><path d="m538.87 392.04h1.3329v1.3329h-1.3329z"/><path d="m540.2 392.04h1.3329v1.3329h-1.3329z"/><path d="m540.2 392.04h1.3329v1.3329h-1.3329z"/><path d="m541.54 393.37h1.3329v1.3329h-1.3329z"/><path d="m541.54 393.37h1.3329v1.3329h-1.3329z"/><path d="m542.87 393.37h1.3329v1.3329h-1.3329z"/><path d="m542.87 393.37h1.3329v1.3329h-1.3329z"/><path d="m544.2 393.37h1.3329v1.3329h-1.3329z"/><path d="m544.2 393.37h1.3329v1.3329h-1.3329z"/><path d="m545.54 393.37h1.3329v1.3329h-1.3329z"/><path d="m545.54 394.7h1.3329v1.3329h-1.3329z"/><path d="m546.87 394.7h1.3329v1.3329h-1.3329z"/><path d="m546.87 394.7h1.3329v1.3329h-1.3329z"/><path d="m548.2 394.7h1.3329v1.3329h-1.3329z"/><path d="m548.2 394.7h1.3329v1.3329h-1.3329z"/><path d="m549.53 394.7h1.3329v1.3329h-1.3329z"/><path d="m549.53 394.7h1.3329v1.3329h-1.3329z"/><path d="m550.87 394.7h1.3329v1.3329h-1.3329z"/><path d="m550.87 396.03h1.3329v1.3329h-1.3329z"/><path d="m552.2 396.03h1.3329v1.3329h-1.3329z"/><path d="m552.2 396.03h1.3329v1.3329h-1.3329z"/><path d="m553.53 396.03h1.3329v1.3329h-1.3329z"/><path d="m553.53 396.03h1.3329v1.3329h-1.3329z"/><path d="m553.53 396.03h1.3329v1.3329h-1.3329z"/><path d="m554.87 396.03h1.3329v1.3329h-1.3329z"/><path d="m554.87 396.03h1.3329v1.3329h-1.3329z"/><path d="m556.2 397.37h1.3329v1.3329h-1.3329z"/><path d="m556.2 397.37h1.3329v1.3329h-1.3329z"/><path d="m557.53 397.37h1.3329v1.3329h-1.3329z"/><path d="m557.53 397.37h1.3329v1.3329h-1.3329z"/><path d="m558.87 397.37h1.3329v1.3329h-1.3329z"/><path d="m558.87 397.37h1.3329v1.3329h-1.3329z"/><path d="m560.2 397.37h1.3329v1.3329h-1.3329z"/><path d="m560.2 397.37h1.3329v1.3329h-1.3329z"/><path d="m561.53 398.7h1.3329v1.3329h-1.3329z"/><path d="m561.53 398.7h1.3329v1.3329h-1.3329z"/><path d="m562.86 398.7h1.3329v1.3329h-1.3329z"/><path d="m562.86 398.7h1.3329v1.3329h-1.3329z"/><path d="m564.2 398.7h1.3329v1.3329h-1.3329z"/><path d="m564.2 398.7h1.3329v1.3329h-1.3329z"/><path d="m565.53 398.7h1.3329v1.3329h-1.3329z"/><path d="m565.53 398.7h1.3329v1.3329h-1.3329z"/><path d="m566.86 398.7h1.3329v1.3329h-1.3329z"/><path d="m566.86 398.7h1.3329v1.3329h-1.3329z"/><path d="m568.2 400.03h1.3329v1.3329h-1.3329z"/><path d="m568.2 400.03h1.3329v1.3329h-1.3329z"/><path d="m569.53 400.03h1.3329v1.3329h-1.3329z"/><path d="m569.53 400.03h1.3329v1.3329h-1.3329z"/><path d="m570.86 400.03h1.3329v1.3329h-1.3329z"/><path d="m570.86 400.03h1.3329v1.3329h-1.3329z"/><path d="m572.19 400.03h1.3329v1.3329h-1.3329z"/><path d="m572.19 400.03h1.3329v1.3329h-1.3329z"/><path d="m573.53 400.03h1.3329v1.3329h-1.3329z"/><path d="m573.53 400.03h1.3329v1.3329h-1.3329z"/><path d="m574.86 401.37h1.3329v1.3329h-1.3329z"/><path d="m574.86 401.37h1.3329v1.3329h-1.3329z"/><path d="m574.86 401.37h1.3329v1.3329h-1.3329z"/><path d="m576.19 401.37h1.3329v1.3329h-1.3329z"/><path d="m576.19 401.37h1.3329v1.3329h-1.3329z"/><path d="m577.53 401.37h1.3329v1.3329h-1.3329z"/><path d="m577.53 401.37h1.3329v1.3329h-1.3329z"/><path d="m578.86 401.37h1.3329v1.3329h-1.3329z"/><path d="m578.86 401.37h1.3329v1.3329h-1.3329z"/><path d="m580.19 401.37h1.3329v1.3329h-1.3329z"/><path d="m580.19 401.37h1.3329v1.3329h-1.3329z"/><path d="m581.52 402.7h1.3329v1.3329h-1.3329z"/><path d="m581.52 402.7h1.3329v1.3329h-1.3329z"/><path d="m582.86 402.7h1.3329v1.3329h-1.3329z"/><path d="m582.86 402.7h1.3329v1.3329h-1.3329z"/><path d="m584.19 402.7h1.3329v1.3329h-1.3329z"/><path d="m584.19 402.7h1.3329v1.3329h-1.3329z"/><path d="m585.52 402.7h1.3329v1.3329h-1.3329z"/><path d="m585.52 402.7h1.3329v1.3329h-1.3329z"/><path d="m586.86 402.7h1.3329v1.3329h-1.3329z"/><path d="m586.86 402.7h1.3329v1.3329h-1.3329z"/><path d="m588.19 402.7h1.3329v1.3329h-1.3329z"/><path d="m588.19 402.7h1.3329v1.3329h-1.3329z"/><path d="m589.52 404.03h1.3329v1.3329h-1.3329z"/><path d="m589.52 404.03h1.3329v1.3329h-1.3329z"/><path d="m590.86 404.03h1.3329v1.3329h-1.3329z"/><path d="m590.86 404.03h1.3329v1.3329h-1.3329z"/><path d="m592.19 404.03h1.3329v1.3329h-1.3329z"/><path d="m592.19 404.03h1.3329v1.3329h-1.3329z"/><path d="m593.52 404.03h1.3329v1.3329h-1.3329z"/><path d="m593.52 404.03h1.3329v1.3329h-1.3329z"/><path d="m594.85 404.03h1.3329v1.3329h-1.3329z"/><path d="m594.85 404.03h1.3329v1.3329h-1.3329z"/><path d="m596.19 404.03h1.3329v1.3329h-1.3329z"/><path d="m596.19 404.03h1.3329v1.3329h-1.3329z"/><path d="m597.52 404.03h1.3329v1.3329h-1.3329z"/><path d="m597.52 404.03h1.3329v1.3329h-1.3329z"/><path d="m597.52 405.36h1.3329v1.3329h-1.3329z"/><path d="m598.85 405.36h1.3329v1.3329h-1.3329z"/><path d="m598.85 405.36h1.3329v1.3329h-1.3329z"/><path d="m600.19 405.36h1.3329v1.3329h-1.3329z"/><path d="m600.19 405.36h1.3329v1.3329h-1.3329z"/><path d="m601.52 405.36h1.3329v1.3329h-1.3329z"/><path d="m601.52 405.36h1.3329v1.3329h-1.3329z"/><path d="m602.85 405.36h1.3329v1.3329h-1.3329z"/><path d="m602.85 405.36h1.3329v1.3329h-1.3329z"/><path d="m604.18 405.36h1.3329v1.3329h-1.3329z"/><path d="m604.18 405.36h1.3329v1.3329h-1.3329z"/><path d="m605.52 405.36h1.3329v1.3329h-1.3329z"/><path d="m605.52 405.36h1.3329v1.3329h-1.3329z"/><path d="m606.85 405.36h1.3329v1.3329h-1.3329z"/><path d="m606.85 405.36h1.3329v1.3329h-1.3329z"/><path d="m608.18 405.36h1.3329v1.3329h-1.3329z"/><path d="m608.18 406.7h1.3329v1.3329h-1.3329z"/><path d="m609.52 406.7h1.3329v1.3329h-1.3329z"/><path d="m609.52 406.7h1.3329v1.3329h-1.3329z"/><path d="m610.85 406.7h1.3329v1.3329h-1.3329z"/><path d="m610.85 406.7h1.3329v1.3329h-1.3329z"/><path d="m612.18 406.7h1.3329v1.3329h-1.3329z"/><path d="m612.18 406.7h1.3329v1.3329h-1.3329z"/><path d="m613.51 406.7h1.3329v1.3329h-1.3329z"/><path d="m613.51 406.7h1.3329v1.3329h-1.3329z"/><path d="m614.85 406.7h1.3329v1.3329h-1.3329z"/><path d="m614.85 406.7h1.3329v1.3329h-1.3329z"/><path d="m616.18 406.7h1.3329v1.3329h-1.3329z"/><path d="m616.18 406.7h1.3329v1.3329h-1.3329z"/><path d="m617.51 406.7h1.3329v1.3329h-1.3329z"/><path d="m617.51 406.7h1.3329v1.3329h-1.3329z"/><path d="m618.85 406.7h1.3329v1.3329h-1.3329z"/><path d="m618.85 406.7h1.3329v1.3329h-1.3329z"/><path d="m618.85 406.7h1.3329v1.3329h-1.3329z"/><path d="m620.18 406.7h1.3329v1.3329h-1.3329z"/><path d="m620.18 406.7h1.3329v1.3329h-1.3329z"/><path d="m621.51 408.03h1.3329v1.3329h-1.3329z"/><path d="m621.51 408.03h1.3329v1.3329h-1.3329z"/><path d="m622.85 408.03h1.3329v1.3329h-1.3329z"/><path d="m622.85 408.03h1.3329v1.3329h-1.3329z"/><path d="m624.18 408.03h1.3329v1.3329h-1.3329z"/><path d="m624.18 408.03h1.3329v1.3329h-1.3329z"/><path d="m625.51 408.03h1.3329v1.3329h-1.3329z"/><path d="m625.51 408.03h1.3329v1.3329h-1.3329z"/><path d="m626.84 408.03h1.3329v1.3329h-1.3329z"/><path d="m626.84 408.03h1.3329v1.3329h-1.3329z"/><path d="m628.18 408.03h1.3329v1.3329h-1.3329z"/><path d="m628.18 408.03h1.3329v1.3329h-1.3329z"/><path d="m629.51 408.03h1.3329v1.3329h-1.3329z"/><path d="m629.51 408.03h1.3329v1.3329h-1.3329z"/><path d="m630.84 408.03h1.3329v1.3329h-1.3329z"/><path d="m630.84 408.03h1.3329v1.3329h-1.3329z"/><path d="m632.18 408.03h1.3329v1.3329h-1.3329z"/><path d="m632.18 408.03h1.3329v1.3329h-1.3329z"/><path d="m633.51 408.03h1.3329v1.3329h-1.3329z"/><path d="m633.51 408.03h1.3329v1.3329h-1.3329z"/><path d="m634.84 408.03h1.3329v1.3329h-1.3329z"/><path d="m634.84 408.03h1.3329v1.3329h-1.3329z"/><path d="m636.17 408.03h1.3329v1.3329h-1.3329z"/><path d="m636.17 408.03h1.3329v1.3329h-1.3329z"/><path d="m637.51 408.03h1.3329v1.3329h-1.3329z"/><path d="m637.51 408.03h1.3329v1.3329h-1.3329z"/><path d="m638.84 408.03h1.3329v1.3329h-1.3329z"/><path d="m638.84 409.36h1.3329v1.3329h-1.3329z"/><path d="m640.17 409.36h1.3329v1.3329h-1.3329z"/><path d="m640.17 409.36h1.3329v1.3329h-1.3329z"/><path d="m640.17 409.36h1.3329v1.3329h-1.3329z"/><path d="m641.51 409.36h1.3329v1.3329h-1.3329z"/><path d="m641.51 409.36h1.3329v1.3329h-1.3329z"/><path d="m642.84 409.36h1.3329v1.3329h-1.3329z"/><path d="m642.84 409.36h1.3329v1.3329h-1.3329z"/><path d="m644.17 409.36h1.3329v1.3329h-1.3329z"/><path d="m644.17 409.36h1.3329v1.3329h-1.3329z"/><path d="m645.5 409.36h1.3329v1.3329h-1.3329z"/><path d="m645.5 409.36h1.3329v1.3329h-1.3329z"/><path d="m646.84 409.36h1.3329v1.3329h-1.3329z"/><path d="m646.84 409.36h1.3329v1.3329h-1.3329z"/><path d="m648.17 409.36h1.3329v1.3329h-1.3329z"/><path d="m648.17 409.36h1.3329v1.3329h-1.3329z"/><path d="m649.5 409.36h1.3329v1.3329h-1.3329z"/><path d="m649.5 409.36h1.3329v1.3329h-1.3329z"/><path d="m650.84 409.36h1.3329v1.3329h-1.3329z"/><path d="m650.84 409.36h1.3329v1.3329h-1.3329z"/><path d="m652.17 409.36h1.3329v1.3329h-1.3329z"/><path d="m652.17 409.36h1.3329v1.3329h-1.3329z"/><path d="m653.5 409.36h1.3329v1.3329h-1.3329z"/><path d="m653.5 409.36h1.3329v1.3329h-1.3329z"/><path d="m654.84 409.36h1.3329v1.3329h-1.3329z"/><path d="m654.84 409.36h1.3329v1.3329h-1.3329z"/><path d="m656.17 409.36h1.3329v1.3329h-1.3329z"/><path d="m656.17 409.36h1.3329v1.3329h-1.3329z"/><path d="m657.5 409.36h1.3329v1.3329h-1.3329z"/><path d="m657.5 409.36h1.3329v1.3329h-1.3329z"/><path d="m658.83 409.36h1.3329v1.3329h-1.3329z"/><path d="m658.83 409.36h1.3329v1.3329h-1.3329z"/><path d="m660.17 409.36h1.3329v1.3329h-1.3329z"/><path d="m660.17 409.36h1.3329v1.3329h-1.3329z"/><path d="m661.5 409.36h1.3329v1.3329h-1.3329z"/><path d="m661.5 409.36h1.3329v1.3329h-1.3329z"/><path d="m662.83 409.36h1.3329v1.3329h-1.3329z"/><path d="m662.83 409.36h1.3329v1.3329h-1.3329z"/><path d="m662.83 409.36h1.3329v1.3329h-1.3329z"/><path d="m664.17 409.36h1.3329v1.3329h-1.3329z"/><path d="m664.17 409.36h1.3329v1.3329h-1.3329z"/><path d="m665.5 409.36h1.3329v1.3329h-1.3329z"/><path d="m665.5 410.7h1.3329v1.3329h-1.3329z"/><path d="m666.83 410.7h1.3329v1.3329h-1.3329z"/><path d="m666.83 410.7h1.3329v1.3329h-1.3329z"/><path d="m668.16 410.7h1.3329v1.3329h-1.3329z"/><path d="m668.16 410.7h1.3329v1.3329h-1.3329z"/><path d="m669.5 410.7h1.3329v1.3329h-1.3329z"/><path d="m669.5 410.7h1.3329v1.3329h-1.3329z"/><path d="m670.83 410.7h1.3329v1.3329h-1.3329z"/><path d="m670.83 410.7h1.3329v1.3329h-1.3329z"/><path d="m672.16 410.7h1.3329v1.3329h-1.3329z"/><path d="m672.16 410.7h1.3329v1.3329h-1.3329z"/><path d="m673.5 410.7h1.3329v1.3329h-1.3329z"/><path d="m673.5 410.7h1.3329v1.3329h-1.3329z"/><path d="m674.83 410.7h1.3329v1.3329h-1.3329z"/><path d="m674.83 410.7h1.3329v1.3329h-1.3329z"/><path d="m676.16 410.7h1.3329v1.3329h-1.3329z"/><path d="m676.16 410.7h1.3329v1.3329h-1.3329z"/><path d="m677.49 410.7h1.3329v1.3329h-1.3329z"/><path d="m677.49 410.7h1.3329v1.3329h-1.3329z"/><path d="m678.83 410.7h1.3329v1.3329h-1.3329z"/><path d="m678.83 410.7h1.3329v1.3329h-1.3329z"/><path d="m680.16 410.7h1.3329v1.3329h-1.3329z"/><path d="m680.16 410.7h1.3329v1.3329h-1.3329z"/><path d="m681.49 410.7h1.3329v1.3329h-1.3329z"/><path d="m681.49 410.7h1.3329v1.3329h-1.3329z"/><path d="m682.83 410.7h1.3329v1.3329h-1.3329z"/><path d="m682.83 410.7h1.3329v1.3329h-1.3329z"/></g><text x="722.5744" y="74.801888" fill="#000000" font-family="Arial" font-size="21.312px" font-weight="400" letter-spacing="0px" word-spacing="0px" style="line-height:125%" xml:space="preserve"><tspan x="722.5744" y="74.801888"><tspan dx="0" dy="0" fill="#bebebe" font-family="Arial" font-size="21.312px" font-weight="400">test for normality</tspan></tspan></text><text x="784.70117" y="101.46016" fill="#000000" font-family="Arial" font-size="21.312px" font-weight="400" letter-spacing="0px" word-spacing="0px" style="line-height:125%" xml:space="preserve"><tspan x="784.70117" y="101.46016"><tspan dx="0" dy="0" fill="#bebebe" font-family="Arial" font-size="21.312px" font-weight="400"> p = 0.232</tspan></tspan></text><path d="m128.33 473.34m163.95 0m162.62 0m163.95 0m162.62 0m-682.45-61.314v-351.89" fill="none" stroke="#000" stroke-linecap="round" stroke-linejoin="round" stroke-miterlimit="10" stroke-width="1.3329px"/><text transform="rotate(-90)" x="-417.95544" y="69.68615" fill="#000000" font-family="Arial" font-size="21.312px" font-weight="400" letter-spacing="0px" word-spacing="0px" style="line-height:125%" xml:space="preserve"><tspan x="-417.95544" y="69.68615"><tspan dx="0" dy="0" fill="#000000" font-family="Arial" font-size="21.312px" font-weight="400">0</tspan></tspan></text></svg>
